<?xml version="1.0" encoding="utf-8"?>
<!-- Generator: Adobe Illustrator 25.0.0, SVG Export Plug-In . SVG Version: 6.00 Build 0)  -->
<svg version="1.1" id="Слой_1" xmlns="http://www.w3.org/2000/svg" xmlns:xlink="http://www.w3.org/1999/xlink" x="0px" y="0px"
	 viewBox="0 0 1920 2160" style="enable-background:new 0 0 1920 2160;" xml:space="preserve">
<style type="text/css">
	.st0{fill:url(#SVGID_1_);}
</style>
<linearGradient id="SVGID_1_" gradientUnits="userSpaceOnUse" x1="774.7162" y1="1608.8606" x2="774.7162" y2="2086.7441">
	<stop  offset="0.4322" style="stop-color:#F29BAD"/>
	<stop  offset="0.4803" style="stop-color:#F3A2B0"/>
	<stop  offset="0.6663" style="stop-color:#F7BBBA"/>
	<stop  offset="0.7716" style="stop-color:#F8C3BD"/>
</linearGradient>
<path class="st0" d="M-203.5,1758.6c-4.7-3.6-11.5,0.1-14.3-1.9c-3.8-2.7,5-9.9,5.9-10.6c16.9-13.7,95.4-16.2,121.5-16.8
	c15.9,6.3,37.1,13.4,63.4,19.5c30.3,7,57.8,10.3,78.9,11.9c3.1,4.2,7.4,10.3,11.8,17.8c21.1,35.9,14.8,51.9,28.7,56.4
	c12.4,4,40.1-1.2,106.8-39.7c15.7,3.2,31.4,6.5,47.1,9.7c19.4,9.1,38.7,18.2,58.1,27.3c9.8-3.8,19.5-7.5,29.3-11.3
	c23.8-11,47.6-22,71.5-33c7.9,2.5,20,5.4,34.8,4.7c6.3-0.3,12.9-1.1,30.6-5.8c11.3-3,26.7-7.4,44.8-13.7
	c5.5,8.3,10.9,16.5,16.4,24.8c0.4,5.7,1.7,12.9,4.9,20.7c8,19.6,23,30,29.7,34.1c8.7,6.5,17.4,13.1,26.1,19.6
	c4.6,11.7,9.2,23.3,13.7,35c12.3-2.1,27.8-3.8,45.6-3.6c17.3,0.1,32.3,2,44.3,4.1c11.4-2.8,27.2-5.9,46.2-7.6
	c21-1.9,35.3-3.2,53.8,0c14.1,2.4,35.5,8.2,53.6,14.3c9,3,18.4,6.5,29.4,3.3c8.7-2.5,14.7-8.1,18.3-12.3c5.7,1.4,12.8,2.7,21.1,3.2
	c4.9,0.3,12.6,0.8,21.1-0.5c18.7-2.9,24.9-12,59.6-25.6c0,0,0,0,0,0c14.3-5.7,35.3-13.7,61.7-22.1c17.2-2.9,34.3-5.9,51.5-8.8
	c15.3-16.1,30.6-32.2,45.9-48.3c9.5-6.3,19-12.7,28.5-19c9.8,0.5,19.5,1.1,29.3,1.6c8.7-4.7,17.4-9.5,26.1-14.2
	c11.6,5.3,23.2,10.5,34.8,15.8c68.3,41,106.3,43.1,121.8,42.4c5.1-0.3,25.7-1.7,49.8-4.1c17.6-1.8,32.1-3.5,41.9-4.8
	c9.2,3.4,18.5,6.9,27.7,10.3c21.1-0.5,42.2-0.9,63.3-1.4c8.1-3.5,21.5-8.7,38.5-13.1c31.6-8.1,48.1-6,78.6-11.6
	c13.4-2.5,33.4-7.2,57.5-16.9c26.5,5.3,53.1,10.5,79.6,15.8c6.1,1,16.4,2.3,29,1.6c26.9-1.6,37.6-10.8,55.3-5.3
	c10.4,3.3,21.5,11.1,20.7,17.4c-0.6,4.7-7.9,7.7-29,13.2c-40.6,10.5-55,10.3-55.8,15c-1.5,9.4,53.9,29.3,77.3,52.1
	c6.8,6.6,13.1,12.9,13.1,20.6c0,9.2-3.9,15.6-13.2,23.4c-15.7,13.2-36.4,25.3-55.3,37c-55.3,34.4-117.6,63.7-186.9,88.7
	c-68.2,24.6-148.3,40.9-227.1,50.2c-51.4,6.1-100.7,7.2-152.8,9c-50.3,1.7-100.4,4.3-150.4,7.3c-165.3,9.8-331.5,20.8-497.9,23.2
	c-103.4,1.5-207.1,1.4-310.5,1.4c-93.1,0-187.3,1.9-280.3-0.7c-104.5-3-212.9-8-313.2-25.5c-17.9-3.6-35.7-7.2-53.6-10.8
	c-12.8-4.5-26.4-7.8-41-9.8c-20.7-3.2-37.1-7.1-51.2-17.3c-13-9.4-10.6-17.2-4.8-28.3c10.9-15.3,24-30.1,39.3-44.2
	c23.6-23.6,43.3-48.1,59.1-73.5c1.4-7.2,1.3-14.2,3.4-21.4c10.1-21.5,22.4-42.7,36.7-63.5c5-8,10.7-15.9,17.3-23.5
	c14.9-17.3,33.8-33.7,39.6-53.1c1.2-3.9-0.6-5.5-1.7-10.1c-0.5-2.1-0.4-2.7-0.8-5.6C-200.1,1764.8-200.7,1760.7-203.5,1758.6z"/>
</svg>
