<?xml version="1.0" encoding="utf-8"?>
<!-- Generator: Adobe Illustrator 25.0.0, SVG Export Plug-In . SVG Version: 6.00 Build 0)  -->
<svg version="1.1" id="Слой_1" xmlns="http://www.w3.org/2000/svg" xmlns:xlink="http://www.w3.org/1999/xlink" x="0px" y="0px"
	 viewBox="0 0 1920 2160" style="enable-background:new 0 0 1920 2160;" xml:space="preserve">
<style type="text/css">
	.st0{fill:url(#SVGID_1_);}
</style>
<linearGradient id="SVGID_1_" gradientUnits="userSpaceOnUse" x1="1062.8462" y1="1588.8188" x2="1062.8462" y2="2218.6582">
	<stop  offset="0.2744" style="stop-color:#D6AB9A"/>
	<stop  offset="0.3298" style="stop-color:#DFB6A5"/>
	<stop  offset="0.4063" style="stop-color:#E8C1B0"/>
	<stop  offset="0.4417" style="stop-color:#EAC1B3"/>
	<stop  offset="0.477" style="stop-color:#F1C3BA"/>
	<stop  offset="0.4929" style="stop-color:#F6C4BF"/>
</linearGradient>
<path class="st0" d="M-233.9,1770.8c0.5-0.1,1-0.1,1.5-0.1c11.9-1,30.8,2.1,44.2,2c29.6-0.2,101.2-13.8,190-15.5
	c24.9-0.5,16.4,1,97.6,2.4c34.3,0.6,62.4,0.7,81,0.8c9.4,5,17.9,8.6,24.8,11.3c8.6,3.3,21.3,7.7,37.2,11.3c4.2,1,13.5,2.9,25.6,4.5
	c7.5,1,14,1.5,19.3,1.8c13.9,3.7,27.9,7.4,41.8,11.1c14.7,5,33.9,10.3,57.2,13.6c27.4,3.8,51.1,3.5,68.6,2.3
	c18.7-4.5,37.5-9.1,56.2-13.6c7.5,2.4,50.4,16,82,25.7c30.2,9.2,19,5.3,25.7,7.5c15.3,5,20.3,7.7,28.6,7.5c9.4-0.2,16.3-4,22.6-7.5
	c12.2-6.9,30-17.6,51.8-32.4c6.2,1.8,39.7,10.6,71.6-3.5c13.3-5.9,21.7-13.7,26.6-19.1c7.3-3.1,14.6-6.3,21.9-9.4
	c9-3.9,17.9-7.8,26.7-11.7c8.2-6.3,16.5-12.6,24.7-18.9c6.1-0.1,14.9-0.8,24.8-3.7c7.7-2.2,13.8-5.1,18.1-7.5
	c6.8,5.6,16.8,13.9,30.4,22.7c8.3,5.3,16.6,10.6,24.8,15.8c21.9,14.8,41.5,26.6,57.2,35.5c10.2,5.8,15.2,8.9,21,11.3
	c25.8,10.9,33.3,9.6,66.7,21.2c8.1,2.8,20.1,7.2,34.6,12.5c6.7,2.5,12.2,4.5,15.9,5.8c19.2,3.3,38.5,6.7,57.7,10
	c46.2,2.2,92.3,4.4,138.5,6.7c42.9,11.4,85.8,22.8,128.7,34.2c36.7-5.7,62.4-13.8,79-20c35.5-13.3,57.8-14.6,57.7-20.8
	c-0.1-3.8-5.2-6.9-7.6-8.3c-35.2-19.6-120.3,4.3-119.5,7c0.7,2.3,61.8-7,101.2-15.4c51.4-11,91.5-26,118-37.4
	c34.3-5,68.6-10.1,102.9-15.1c28-8.6,55.9-17.1,83.9-25.7c41.8,16.9,76.8,26.3,101,31.7c54,12.1,60,5.8,89.6,18.1
	c12.2,5.1,27.5,13,44,9.1c12.3-2.9,12.5-10,27.4-11.8c9.6-1.2,14.1,0.2,34.8,0.1c4,0,11.6-0.9,15.3-0.3c9.8,1.6,15.3,14.2,19.2,19
	c10.7,13.2,19.3,26.8,30.5,40c12.9,15.1,26.1,30.2,39.2,45.3c17.3,19.9,36.7,39.4,54.9,59c9.9,10.7,21,21.4,30,32.4
	c9,11,13.9,22.9,24.3,33.5c9.1,9.3,24.2,16.7,31.2,26.3c8.2,11.3,13,24.1,13.4,36.2c0.2,4.9,1,11-0.8,15.6
	c-2.6,6.2-12.9,10.1-21.5,13.5c-37.3,14.5-79,20.5-120.5,29.1c-45.8,9.5-89.2,25-132.8,37.4c-64.5,18.4-132.9,32.5-200.5,46.4
	c-48.4,10-96.1,21.6-145.4,30.1c-35.6,6.2-71.8,11-107.5,17.1c-95.7,16.4-194.2,24.1-293.5,29c-149.3,7.3-299,9.1-448.6,13.5
	c-119.4,3.5-238.7,2.9-358.1,7.9c-67.8,2.9-136.1,5.3-203.9,1.9c-147.9-7.3-291.5-31.5-437.3-46.5c-24-2.5-48.2-5.4-72.3-7.4
	c-55-4.6-112.4-4.8-167.3-8.5c-27.7-1.9-61.3-1.5-85-11.8c-14.7-6.3-13.3-11.9-16-20.9c-4.3-14.1-17.7-27.5-25.1-41.2
	c-7.7-14.2,0.5-23.3,7.6-37.7c5.8-11.9,11-23.8,17.1-35.6c5.1-9.8,6.2-21.2,8.9-31.4c3.1-11.6,7.7-23.5,9-35.3
	c2.6-23.1,5.3-46.3,8-69.4c3.9-33.4,7.6-67.1,7.5-100.6c-0.1-11.7,0-23.4,0-35.2c0-12.5,3.5-24.6,4-37.1c0.4-11.4-1.3-23-0.2-34.4
	c0.3-2.9,0.9-7,4.7-9.2c5.2-3.1,15.6-4.5,22-6.5C-255.4,1777.9-244.2,1772-233.9,1770.8z"/>
</svg>
