<?xml version="1.0" encoding="utf-8"?>
<!-- Generator: Adobe Illustrator 25.0.0, SVG Export Plug-In . SVG Version: 6.00 Build 0)  -->
<svg version="1.1" id="Слой_1" xmlns="http://www.w3.org/2000/svg" xmlns:xlink="http://www.w3.org/1999/xlink" x="0px" y="0px"
	 viewBox="0 0 1920 2160" style="enable-background:new 0 0 1920 2160;" xml:space="preserve">
<style type="text/css">
	.st0{fill:url(#SVGID_1_);}
</style>
<linearGradient id="SVGID_1_" gradientUnits="userSpaceOnUse" x1="951.3851" y1="1205.0786" x2="951.3851" y2="2231.3879">
	<stop  offset="0.55" style="stop-color:#80539C"/>
	<stop  offset="0.596" style="stop-color:#925CA0"/>
	<stop  offset="0.7304" style="stop-color:#C278AB"/>
	<stop  offset="0.8969" style="stop-color:#A6A0C5"/>
</linearGradient>
<path class="st0" d="M2171.7,1925.5c-12.1-14.9-19.2-28.5-23.3-41.1c-19.1-58-6.4-85.5-24.2-97.4c-11.3-7.6-24.8,0.6-99.4,36.5
	c-0.3,3-0.8,5.6-3.8,5.6c-0.7,0-0.9-1.8-1.6-3c-2,1-4.1,1.9-6.2,2.9c-0.9,0.9-1.9,1.7-3.2,2.1c0-0.1-0.1-0.3-0.2-0.4
	c-7.7,3.7-16,7.6-24.8,11.8c-1.7,0.8-3.2,1.5-4.8,2.3c-0.3,4.5-1.6,8.8-3,13.6c0,0.3-0.1,0.6-0.3,0.9c0.1-0.3,0.2-0.6,0.3-0.9
	c0.2-1.9-1.3-4.4-1.3-6.1c-1,3-3,5-3,8c-1-4-2-7-2-11c-1,4-2,7-4,10c-1.8-1.8-2-4.4-2.7-7c-6.5,3-11.9,5.4-16.6,7.4
	c-0.3,2.3-1.1,4.5-2.7,6.7c0-2,0-3.6-0.3-5.4c-11.2,4.6-18.2,6.7-26.9,8.6c-2,0.4-3.9,0.8-5.7,1.1c-0.2,3-0.7,5.9-2,8.6
	c-0.8-2.5-1-5.7-2.7-7.8c-0.6,0.1-1.2,0.2-1.8,0.3c-1,2.5-2.4,5.2-2.4,8.5c-3.4-1.3-4-4.5-4.7-7.6c-14.2,1.5-24.3,0.9-36.2,2.8
	c-0.8,3.2-1.1,6.5-1.1,9.9c-3.7-1.9-4.4-5.2-4.8-8.7c-5.2,1.2-11,2.9-17.6,5.6c-9.9,3.9-16.6,7.8-24.6,11.2c0,3.6,0,7.3,0,10.9
	c-3.8-1.5-4.1-5.4-5-9c-2,0.7-4.1,1.4-6.3,2c-0.3,2.7-0.5,5.5-1.7,7.9c0-2.7-0.9-4.9-1.8-7c-1.8,0.5-3.7,0.9-5.7,1.3
	c-3.4,0.7-6.2,1.1-8.7,1.4c-0.8,2.9-1.8,5.7-3.8,8.3c0.6-3-0.6-5.3-1.5-7.8c-6.1,0.4-11.4,0.5-22.4,2.8
	c-22.6,4.8-31.3,15.3-41.1,10.3c-3.5-1.8-1.9-2.8-13.2-14.5c-4.1-4.2-5.7-5.6-8.4-8.1c-1.4,0.8-2.8,1.3-4.4,1.3
	c0.5-1.5,1-2.8,1.4-4.1c-1-0.9-2.1-2-3.4-3.3c-10-10.1-10-11.4-14.2-13.7c-6.4-3.5-9.2-2.2-16.9-5.3c-7.3-2.9-12.5-7.3-15.9-10.8
	c-13.5-12.6-26.9-25.1-40.4-37.7c-2.6,1.5-6.4,4-9.7,8.2c-4,5-4.3,8.5-7.1,12.9c-2.3,3.6-6.7,8.3-15.6,11.9
	c-2.1,1.9-4.1,3.7-6.2,5.6c0.2,3.5,0.4,6.6-1.1,10.4c0-2-3-4-3-6c-3,3,0,12-6,9c-0.7-0.4-1.5-1.2-2.2-2.2c-3.2,2.9-6.3,5.7-9.5,8.6
	c-2.2,5.1-6.3,12.7-13.7,19.8c-3.2,3-6.5,5.5-9.7,7.6c-0.3,2.2-0.5,4.3-0.9,6.3c-0.7-1.5-1.5-3-2.2-4.5c-2,1.1-3.9,2-5.8,2.8
	c0,1.6,0,3.3,0,4.7c-0.5-1.5-1.2-2.7-2-3.9c-5.9,2.2-10.9,3.2-13.9,3.6c-7.3,8.8-14.4,17-21.3,24.4c-1,5-2.8,9.8-6.8,9.8
	c-0.6,0-1.1-0.3-1.7-0.8c-7.6,8-14.8,15-21.3,21.2c0,4.5,0,9.1,0,13.6c-1.8-3-4.3-5.3-6.1-8c-0.7,0.6-1.4,1.3-2.1,1.9
	c-12.3,11.1-22,19.1-30,24.8c-0.1,2.1-0.4,4.1-0.9,6.3c-1-1.3-1.9-2.5-2.8-3.7c-14,9.5-21.7,11.5-27.4,12.5
	c-12.8,2.2-13.9-1.2-45.7-2.2c-0.9,4.2-1.8,8.3-3.1,12.4c-2,9-2-4-9-1c-3,1-1-7-5-7c-2,0-3,6-4,4c-4-4-6-8-12-5
	c-0.4-1.2-0.8-2.4-1.2-3.7c-7.3,0.2-15.1,0.7-23.7,1.7c-5.4,0.6-10.4,1.3-15.2,2.1c-3.1,5.9-6.5,11.6-10.9,16.9c-3-3-4-9-6-10
	c-5-1-7,8-12,9c-6,1-2-5-3-8c-4,3-6,8-9,11c-1-3-1-5-2-8c-5,3-3,13-6,11c-3-1.6-4.6-4.9-5.8-8.6c-9.5,2.9-17.6,5.9-24.2,8.4
	c-3.3-1.2-7.3-2.4-11.7-3.6c-2.6,4.2-5.2,8.3-8.3,11.9c-3-8-5-7-13-7c1-3-2-6-3-5c-5,0-4,8-9,10c0-5.1,0.5-10.2,0-14.9
	c-10.1-0.4-17.8,0.4-27.8,1.5c-1.2,0.1-2.4,0.3-3.5,0.4c-1.5,4.4-2.1,9.2-2.7,14c-4-3-4-7-5-12c-3,1-3,7-7,6c-1.7,0-1.2-3.7-2.3-6
	c-0.5,0.1-0.9,0.1-1.4,0.2c-1.5,2.6-2.3,5.3-2.3,8.8c-3-2.3-3.8-5.1-3.5-8.1c-11.4,1.5-18.1,2.5-23.4,3.2c-0.4,3.6-1.5,7-2.1,10.9
	c-0.9-3.4-1-6.9-2.3-10.3c-2.8,0.4-5.4,0.6-8.6,0.8c-13.3,0.9-17.8-0.5-32.9-3.7c-0.2,2.9-0.7,5.6-2.3,7.1c-4,3-1-6-5-7c0,2-3,4-3,6
	c-2.5-2.5-2.7-6.1-3.8-8.9c-8.3-1.6-19-3.4-32.9-5.4c-5.4-0.8-10.2-1.4-14.4-2c-1.6,3.6-2.8,7.3-5.8,10.3c0-2,1-4,0-5c-3-1-3,5-6,4
	c-3-2-3-6-6-9c1,2-1,5-1,7c-6.4-3.2-11.5-8.3-18-11.8c-4-0.7-7.9-1.6-12.9-3c-1.4-0.4-2.7-0.8-4-1.2c-1.4,4-2.6,8-4.1,12
	c-3-4-6-8-7-13c0,2-2,2-2,4c-2-3-3-8-7-6c-1,1,0,5,0,7c-2.7-5.3-5.6-11.2-9.4-16.3c-10.2-5.3-18.8-10.9-25.6-15.9
	c-1.2,2.7-2.7,5.2-5,7.1c-1-3-2-5-2-8c-2,2-2,4-3,6c-1,0-3,0-3,0c-0.7-2.6-0.5-5.2-0.2-7.8c-4.6-0.1-9.9-0.9-15.5-2.8
	c-1.8-0.6-3.4-1.3-4.9-2c-0.6,1.7-1.6,3.1-3.4,3.7c-2,1,0-3-1-5c1,3-2,4-2,7c-5,0-2-4-3-6c-2,2-2,4-2,6c-3.3-5.3-5.7-11-8.7-16.2
	c-5.6-1.9-13.7-3.5-24.5-2.6c-41.1,25.6-68.1,25-84.9,19.9c-33.5-10-41.2-41.8-87.8-53.5c-3.8-0.9-7-1.6-9.9-2
	c-1.2,1.8-2.8,3.3-5.1,4.4c0.9-1.9-2.4-2.9-2.1-5.4c-0.3,0-0.6-0.1-0.9-0.1c-2.3,1.6-3.4,5.2-6,3.5c-1.1-1.1-1.9-2.9-2.6-4.8
	c-3.6-0.8-7.6-2-12.4-4.1c-24.9-10.9-40.1-31.3-49.1-46.9c-9.5-4.4-21.8-11.3-34.3-22.2c-8-7-12.1-12.1-16.2-16.5
	c-1.3,2.2-2.8,3.9-5.5,3.4c-2-1-2-8-5-11c0-1-2,5-3,4c-2.6-2.6-2.9-5.9-3.6-9.4c-9.9-4.8-16.7-4.1-35.9-9.6c-3.4-1-7.1-2.2-11.3-3.6
	c-1.8,2-3.8,4-6.2,5.6c-2.7-5.5-8.8-8.4-13.6-13.4c-2.7-1.2-5.6-2.6-8.5-4c-8.8-3.8-16.5-7.7-23.1-11.2c-1.8,2.6-3.6,4.7-5.8,4.7
	c-3.4,0-2.5-6.4-3.9-10.2c-0.9-0.6-1.9-1.1-2.7-1.6c-1.8,1-2.8,4.4-4.4,2.8c-2.2-1.5-3.3-4.5-3.7-7.9c-3.1-2-5.9-3.7-9.3-5.3
	c-1.6,2.9-3,5.8-4,9.2c-4.7-2.8-5-9.2-8.3-13.2c-9-1.8-15-0.5-23-2.4c-8.2-2-19.1-7.6-30.1-23.7c-3.7-5-7.5-10-11.4-15.1
	c-0.5,0.8-0.9,1.6-1.3,2.5c-3.9-2.4-3.5-6-4.2-9.4c-0.5-0.6-1-1.3-1.5-1.9c-3-3.7-6-7.4-9-11c-0.8-5.5-1.6-11.1-2.5-16.6
	c-2.4-3.7-4.9-7.4-7.4-11.1c-5.1-7.5-10.3-14.7-15.4-21.7c-1.6-5.8-3.2-11.6-4.7-17.4c-5-1.4-9.5-2.2-13.4-2.7
	c-4.8,5.7-10.2,3.1-16.7-1.1c-1,0-1.9-0.1-2.8-0.2c-0.7,3-1.8,5.8-4.4,8.1c0-3-3-4-2-7c-3-1-2,2-3,3c-1.1-2.9-2.3-6-3.8-9
	c-2.7-1.9-4.7-4-6.1-5.7c-0.9,0.2-2,0.5-3,0.7c-2.2,2-4.5,3.5-7.1,4c-1.1,0-1.8-0.9-2.3-2.1c-4.4,0.7-9.4,1.4-14.9,1.8
	c-0.9,0.1-1.9,0.1-2.8,0.2c-1.6,1.9-3.2,3.6-5,4.2c-3,1.3-5.7-1-8.4-4c-6.1-0.2-11.2-0.7-15.1-1.1c-1.8-0.2-3.3-0.4-4.7-0.5
	c-0.7,1.3-1.3,2.5-1.8,3.7c-1.7-1-2.8-2.7-3.7-4.5c-3.2-0.6-6.2-1.2-10.9-2c-0.5,1.8-1.2,3.5-2.5,4.5c-0.7-2-1.3-3.5-2-5.2
	c-1.4-0.2-3-0.5-4.8-0.7c-0.9-0.1-1.9-0.2-2.9-0.3c-3.8,3.1-7.9,5.8-11.3,9.3c0-3.1,0-6.9,0-10.3c-0.8-0.1-1.6-0.2-2.4-0.2
	c-2.3,3.1-3.8,7-7.6,8.5c-0.6-3.4-1.3-6.6-2.1-9.9c-0.3-0.1-0.7-0.1-1-0.2c-12.4-2.3-23.4,0.7-35,2.7c-1.3,4.2-2.9,8.3-4.9,12.4
	c-3.7-3.1-7-6.9-9.7-11c-9.3,0.2-17.2-0.6-24-1.6c-0.5,1.7-0.8,3.5-0.3,5.6c-3.8-0.6-5.2-3.6-6.4-6.7c-12.2-2.2-19.9-4.4-24.9-0.5
	c-5.9,4.6-4.7,15.4-1.4,24.7c4.3-6.9,8.2-11.6,10.8-11c5.5,1.3,4.3,27.2,0,27.7c-2.5,0.3-7.6-7.5-10.8-16.7
	c-4.7,7.7-9.9,18-14.1,26.8c3.4-4.8,7.6-8.8,12.2-8.8c2.7,0,3.5,1.3,12.7,6.6c12.7,7.3,17.8,8.6,17.4,10.6c-0.8,4-21.7,1-25.3,7.9
	c-2.6,5,6.6,9.6,7.9,17.2c2.4,13.8-23.6,25.7-43.5,38.9c-18.8,12.5-33.1,30.4-61.7,66.3c-30.8,38.6-46.2,57.9-41.5,72.2
	c10,30.7,71.4,26.6,78.3,55.4c4.8,20.1-23.3,29.3-41.5,76.2c-9,23.1-4.9,28-10.7,46.5c-21.5,68.8-104.8,88.1-97.3,111.8
	c9.5,30.2,148,12.6,161.4,49.5c7.7,21.2-31.4,45.1-22.5,54.4c13.6,14.3,119.6-27.2,123.5-20.1c0.5,0.8-0.2,2.9,1.6,5.4
	c1.1,1.4,2.8,2.5,6,4.1c5.6,2.8,12.6,3.8,18.9,5c13.6,2.7,27,5.7,40.2,9.4c13.6,3.8,26.6,8.9,40.6,11.5c17,3.2,34.6,5,51.7,7.8
	c39.1,6.5,77.7,13.8,117.4,17.3c40.5,3.6,81,7.1,121.5,10.4c21.3,1.7,42.3,5.4,63.7,6.3c33.3,1.4,67.9,0.3,101,0.2
	c68.4-0.1,136.9-0.5,205.4,0.1c103.3,0.9,206.7,4.5,310,6.3c83.8,1.5,167.6,2.5,251.4,3.2c33.6,0.3,67.3,1,100.9,0.1
	c78.3-2.1,156.8-6.9,234.9-11.7c75.9-4.7,148.2-18,219.6-39.7c39-11.9,80.5-24.3,118-39.5c17.8-7.2,34.6-15.7,51.7-24
	c26.2-12.6,53.5-24.3,77.8-39.3c21.8-13.4,44-28.2,58.5-47.5c4.7-6.4,10.4-14.5,13.2-22c2.7-7.2,1.2-15,1.2-22.4
	c0-15.4-4.9-31.6-14.6-44.9c-21.2-29.1-33.3-33.8-30.5-43.3c5.9-20.4,81.1-10.4,91.5-33.7C2214.4,1964.2,2191.7,1950,2171.7,1925.5z
	"/>
</svg>
