<?xml version="1.0" encoding="utf-8"?>
<!-- Generator: Adobe Illustrator 25.0.0, SVG Export Plug-In . SVG Version: 6.00 Build 0)  -->
<svg version="1.1" id="Слой_1" xmlns="http://www.w3.org/2000/svg" xmlns:xlink="http://www.w3.org/1999/xlink" x="0px" y="0px"
	 viewBox="0 0 1920 2160" style="enable-background:new 0 0 1920 2160;" xml:space="preserve">
<style type="text/css">
	.st0{fill:url(#SVGID_1_);}
	.st1{opacity:0.21;fill:url(#SVGID_2_);}
</style>
<linearGradient id="SVGID_1_" gradientUnits="userSpaceOnUse" x1="986.3151" y1="1106.38" x2="952.6225" y2="2297.2397">
	<stop  offset="0.7169" style="stop-color:#624998"/>
	<stop  offset="0.7721" style="stop-color:#7A5AA2"/>
	<stop  offset="0.8193" style="stop-color:#8B67AA"/>
	<stop  offset="0.827" style="stop-color:#886BAD"/>
	<stop  offset="0.8675" style="stop-color:#767AB9"/>
	<stop  offset="0.9035" style="stop-color:#6982C0"/>
	<stop  offset="0.931" style="stop-color:#6485C2"/>
</linearGradient>
<path class="st0" d="M2176.7,2086.6c-8-38.1-16-76.2-24.1-114.3c-2.1-9.9-4.5-20.3-11.7-27.4c-7.8-7.5-17-9.3-23.7-10.8
	c-33.4-7.5-31.3-16.3-57.9-21.9c-21.5-4.5-24.1,1-64.3,1.8c-3.3,5.1-6,6.4-13.1,0.9c7,5.5,9.8,4.2,13.1-0.9
	c-4.5,0.1-9.4,0.1-14.9,0.1c-2.3,0-4.3-0.1-6.2-0.1c-1.2,2.5-2.7,4.9-6,6c0-1.8-0.7-4-1.1-6.2c-4.9-0.2-8.2-0.4-11.1-0.6
	c-1.4,2.6-2.7,5.2-3.8,7.7c0-2.3,0-5.3,0-7.9c-0.5,0-1,0-1.6,0c-1.1,1.8-2,3.6-3.4,2.9c-1.2-0.4-1.8-1.5-2.2-2.7
	c-0.9,0.1-1.9,0.1-2.9,0.2c-2,0.2-4.4,0.4-7.2,0.7c-0.2,3.3,2.7,8.3-2.7,6.8c-1.4-0.7-3.4-3-4.8-5.8c-5.5,0.8-11.7,2.1-18.5,3.9
	c-1.3,2.4-2,5.1-2.7,7.8c-2-1-1-4-3-5c2,1,1,4,3,5c0.7-2.7,1.4-5.4,2.7-7.8c-5.1,1.4-10.5,3.1-16.1,5.4c-0.6,2.2-1.9,4.3-2.6,6.5
	c-1,1-4,0-4-3c0,3,3,4,4,3c0.7-2.2,1.9-4.3,2.6-6.5c-3.3,1.3-6.7,2.8-10.2,4.5c-1.4,2.8-1.6,6.2-3.4,8c-1,2-2.9-2.8-5.8-3
	c-0.1,0-0.1,0.1-0.2,0.1c-0.1,3.8-3,3.9-5.9,3.9c-6.4,4.5-10.5,8.7-14.2,12.6c3.3,1.8,6.4,4.1,9.1,1.4c2-2,3-6,3-10c0,4-1,8-3,10
	c-2.7,2.7-5.8,0.4-9.1-1.4c-2,2.1-3.9,4.2-6,6.1c-0.5,1.9-0.9,3.9-0.9,6.3c-1.2-1.2-1.7-2.4-2.1-3.7c-3.9,3.2-8.8,6.2-16,8.8
	c-3,1.1-5.6,1.9-8,2.4c-0.2,1.7,0,3.6,0,5.5c-2.6-1.8-6.8-1.2-7.8-4.4c-1.8,0.1-3.6,0.1-5.4,0c-1.6,2.5-4.1,4.3-4.8,7.4
	c-2.9-1.9-6.8-3-7.9-7.6c-1.8,0-3.8,0.1-5.9,0.2c0.5,1.2,1.3,2.3,1.9,3.4c2,1,3-1,3-3c0,2-1,4-3,3c-0.5-1.1-1.4-2.2-1.9-3.4
	c-2.2,0.1-4.6,0.4-7.2,0.7c-1.6,2.5-2.2,5.3-2.9,8.7c-1.7-3.4-7.1-3.2-8.6-6.9c-8.1,1.5-14.2,3.2-19.1,4.9c-0.5,2.3-1.2,4.4-3.3,6
	c-2,1-3-2-4-2c-2,2-3,5-3,8c-2,0-1-4-4-3s-1,7-4,5c-1.6-0.8-3.7-2.8-5.1-5.1c-3.8,1-8.3,1.8-14.2,2.2c-5.1,0.3-9.4,0.2-13.3-0.1
	c-0.8,1.2-1.4,2.4-1.4,4c-2.4-2.4-5.9-3.5-8.8-5.3c-3.2-0.6-6.3-1.1-9.7-1.6c-1.2,2.2-2.4,4.3-4.5,5.9c-1-1-1-4-3-3c-1,1-1,4-2,4
	c-2.7-1.8-6.1-3.6-6.9-7.5c-0.4,0-0.7,0-1.1,0.1c-1.2,3.5-2.7,7.1-5,10.4c-1,1-3-2-4-2c-7,1-11,9-17,1c-1-1-4,2-3,5
	c-2.1-1.6-4-3.2-5.7-5c-2.7,1-5.7,2-9.4,3c-1.2,0.3-2.4,0.6-3.6,0.9c0.1,2.4,0.4,4.8,0.7,7.1c-4-1-6-3-9,0c0-1.9-0.4-3.9-1.5-5.3
	c-1,0.1-2.1,0.3-3.1,0.4c-0.9,1.6-2.7,2.7-3.4,4.9c-0.6-1.4-1.2-3-1.9-4.6c-4.3,0.1-8.2-0.1-12.2-0.5c-0.7,2.4-1.5,4.7-2.8,6.1
	c-2,1-2-3-3-4s-2,0-2,2c-3,0-3-2-3-4c-1,1-1,3-2,3c-1.1-1.5-1.7-3.3-2.2-5.2c-6.4-0.9-13.5-1.8-22.3-2.2c-0.6,1.3-1.2,2.7-1.5,4.3
	c-0.7-1.5-1.5-3-2.2-4.4c-0.8,0-1.5,0-2.3,0c-2.5,3-2.6,7.3-3.4,11.5c-3-2-3-8-6-7c-2,1,0,7-2,10c-0.9-4.7-4.6-8.6-5.8-14
	c-8.5,0.4-17.3,1-26.2,2.2c-0.3,2.5-0.5,4.9-1,6.8c-3-1-3.7-3.7-4.2-6c-2,0.3-4,0.7-6.1,1.2c-0.5,2.5-0.7,5.4-1.7,7.8
	c-0.4-2.1-0.8-4.7-1.5-7.1c-9.7,2.4-19.6,5.9-29.6,11.5c-0.4,0.2-0.8,0.5-1.3,0.7c-1.4,3.4-2.6,6.8-3.7,9.9
	c-1.6-1.6-2.6-3.5-3.4-5.4c-1.9,1.3-3.6,2.7-5.2,4c-1.3,3.4-2.4,6.8-2.4,10.5c-2.8,0-3.8-1.7-4-4.3c-0.3,0.3-0.6,0.7-0.9,1
	c-0.3,1.7,0.6,3.3-0.1,3.3c-1,0.1-1.8,0.1-2.5-0.2c-3.2,4-5.9,7.8-9.8,11.5c0.1,5.3,0.2,10.6,0.2,15.7c-3.7-2.2-6.4-5.6-7.9-9.7
	c-0.1,0.1-0.3,0.2-0.4,0.3c0.9,3.1,2.3,6,2.3,9.4c-4,0-8-2-8-6c0,4,4,6,8,6c0-3.4-1.4-6.3-2.3-9.4c-1.3,0.8-2.7,1.6-4.2,2.4
	c-5.3,2.8-10.3,4.5-15.2,5.5c-0.1,2-1,3.9-3.3,5.6c-2,3-6-4-10-3c-2,1,0,4-2,6c-1.6-4.7-7.5-5.7-9.4-8.9c-0.9-0.2-1.9-0.3-2.8-0.5
	c0,2.5,0.2,4.9,0.2,7.4c-3.1-2.3-5-5.2-6.6-8.7c-3.9-0.8-8-1.8-12.2-2.7c-2.7,1.5-5.2,3.3-7.2,3.3c-3.3,0.7-2.2-2.2-1.7-5
	c-1.5-0.2-3-0.5-4.6-0.7c-1.3,1-2.8,1.7-4.7,0.7c-0.4-0.4-0.8-0.9-1.2-1.4c-5.8-0.6-12.1-0.9-18.9-0.7c-0.8,2.1-1.6,4.1-2,6.2
	c-1.8-1.8-3.5-3.5-3.9-5.9c-0.6,0-1.3,0.1-1.9,0.1c-1.5,2.1-0.6,5.8-2.2,5.8c-2.3,0.8-3.4-2.6-5.2-5.1c-1.2,0.1-2.4,0.3-3.7,0.5
	c-0.5,0.1-0.9,0.1-1.4,0.2c-1.1,2.7-2.8,4.6-3.8,7.4c-0.9-2.2-2-4.3-2.9-6.3c-23.5,4.6-28.2,12.4-47.3,18.5
	c-0.3,1.9-0.9,3.7-2.8,4.8c-1.9,0.6-3.3-1.1-4.9-2.7c-1,0.2-2,0.5-3.1,0.7c0,2.4,0,4.9,0,7c-2.7-0.9-7-1.8-7.1-5.6
	c-0.7,0.1-1.4,0.2-2.2,0.4c-0.3,4.8,0.4,9.9-0.7,14.3c-4.2-3.3-4.2-8.7-6.4-13.3c-0.4,0.1-0.9,0.1-1.3,0.1c-2.3,2.7-6.6,5-9.4,3.2
	c-0.8-0.5-1.5-1.3-2.2-2.2c-1.2,0.1-2.3,0.1-3.4,0.2c-2.4,2.1-5.9,2.6-7.5,5c0-1.6,0.3-3.3,0.2-4.9c-3.7,0-7.1-0.2-10.4-0.4
	c-1,1.4-1.9,2.9-2.9,4.3c0-1.3,0-3,0-4.5c-13.6-1.1-24.1-3.2-39.6-1c-0.4,1.6-1,3.1-2.4,4.6c-1-1-1.5-2.4-2.1-3.8
	c-2.2,0.4-4.5,0.9-6.9,1.5c0,3.2-0.1,5.9-1,9.4c-1.7-3.3-4.7-5.3-8-7c-3.5,1-7.3,1.9-11.2,2.7c0.2,2.4,1.6,4.6-0.8,6.2
	c-1.3-2-2.6-3.5-3.4-5.5c-6.9,1.1-14.3,1.4-22.1-0.1c-0.6,1.6-1,3.2-1.5,4.6c-1.7-1.7-2.7-3.5-3.6-5.9c-0.2-0.1-0.5-0.1-0.7-0.2
	c-3.7-1.2-6.8-2.6-10.5-3.6c-2.4,1.6-4.6,2.7-6.2-1.3c1.6,4,3.8,2.9,6.2,1.3c-2.4-0.7-5.1-1.3-8.5-1.6c-1.3-0.1-2.6-0.2-3.8-0.2
	c-1.6,1.6-2.7,3.5-4.9,0.6c2.2,2.9,3.3,1,4.9-0.6c-2.5,0-4.7,0.2-6.8,0.6c-0.4,1.3,0.6,3.2-0.2,4c-1.9,0-5.7,1.8-7.8-1.6
	c-0.1,0.8-0.2,1.6-0.2,2.6c-1,1-2-2-4-1c2-1,3,2,4,1c0-0.9,0.1-1.8,0.2-2.6c0,0-0.1-0.1-0.1-0.1c-4,1.4-8.3,3-14.2,3.9
	c-1.3,0.2-2.4,0.3-3.7,0.3c-2.3,1.3-4.4,2.7-6.2,4.5c-0.5-1.6,0-3.4,0.3-5.2c-0.4-0.1-0.8-0.2-1.3-0.2c-1.6,1.1-3.2,2.7-4,4.4
	c-1.1-2.5-2.6-4.5-4.4-6.2c-0.3-0.1-0.5-0.1-0.8-0.2c-5.1,2.9-8.3,5.8-10.8-2.6c-0.5-0.1-1.1-0.3-1.7-0.4c-0.6,1-1,2-1.3,3.4
	c-2.8-0.9-2.1-3.6-4.4-4.8c0,0,0,0-0.1,0c-4.9,2.2-10.3,1.2-13.7-2.6c-0.4,1.5-0.8,3-0.8,4.4c-1.4-1.4-1.3-3.7-1.8-5.7
	c-1.7-0.4-3.2-0.8-4.6-1.1c-0.9,2.3-2.8,4.5-3.5,6.8c-1.3-2.6-0.9-5.2-0.8-7.8c-6.3-1.5-9.8-2.3-12.2-2.8c0.2,1.6,0.6,3.3,1.9,4.6
	c0-1,0-2,0-3c0,1,0,2,0,3c-1.3-1.3-1.8-3-1.9-4.6c-2.4-0.5-3.4-0.6-4.8-0.8c-2.6-0.3-5-0.4-7.2-0.4c-0.9,2.2-2.1,4.3-2.1,6.8
	c-1.2-1.8-1.3-4.4-1.7-6.8c-0.2,0-0.3,0-0.5,0c-0.3,1.6-1.3,3.2-2.9,4.8c0.5-1.5,0.2-3.1-0.2-4.6c-1.2,0.1-2.4,0.2-3.5,0.4
	c0.4,2.3,0.7,4.6,0.7,7.2c0-2.4-3.1-4.1-3.9-6.7c-4.3,0.8-7.9,1.9-11.9,2.6c-0.4,2-0.7,4.1-0.1,6.1c-0.7-2.2-2.5-3.8-3.4-5.7
	c-2.4,0.2-5.1,0.2-8.2,0c-6.4-0.6-6.7-1.8-42.5-22.4c-0.5,1.3-1.2,2.5-2.9,3.1c-0.6-1.7-1.1-3.8-1.7-5.8c-2.7-1.6-5.6-3.2-8.8-5
	c-0.9-0.5-1.7-1-2.5-1.4c0.6,1.3,1.4,2.6,2,4.2c0-1,0-1,1-1c-1,0-1,0-1,1c-0.5-1.6-1.3-2.9-2-4.2c-3.3-1.9-6.2-3.5-9-5.1
	c-0.5,1-1.2,1.8-2.1,2.3c-2-2.6-4.3-4.8-6.3-7.1c-1.7-1-3.5-2-5.3-3.1c-1.1,1.3-2,2.5-3.4,3.2c0-2,0-3.5,0-5.2c-1-0.6-2-1.2-3-1.8
	c-1.2,0.5-2.4,0.6-4,0.1c-0.8-0.8-1-1.7-1-3.1c-2.2-1.4-4.4-2.7-6.5-4c-0.5,1-1.2,2-2.1,2.8c-0.1,0.1-0.3,0.2-0.4,0.4
	c0.2-0.1,0.3-0.2,0.4-0.4c1.3-1.2,0.5-2.7-0.1-4.2c-5.1-3.2-9.6-6.1-13.3-8.6c-0.9,0.1-1.9,0.2-3,0.3c0,1.1,0.1,2.3-1,2.9
	c0-0.8-1.2-1.5-1.3-2.7c-4.4,0.2-9.6,0-15.4-1.1c-0.4,1.6-0.4,3.4-0.4,4.9c-1.4-2.1-2.8-3.7-3.8-5.8c-4.7-1.2-8.7-2.8-12.4-4.8
	c-0.4,1.4-0.6,2.7-1.7,1.6c-0.7-0.7-2.4-2.4-3-4.3c-3.5-2.2-6.6-4.7-9.7-7.3c-0.9,1-1.3,2.3-1.3,3.6c-1.5-2.9-2.9-5.3-3.6-7.9
	c-2.8-2.5-5.7-5.1-8.8-7.7c-1.8-1.5-4-3.3-6.5-5.3c-0.6,0.9-1.1,1.8-1.1,2.8c-1.7-1.7-1.3-3.3-1.6-5c-2-1.5-4.1-3.1-6.4-4.7
	c-0.4,0.9-0.7,1.8-1,2.7c-1.9-0.9-1.1-2.8-1.9-4.7c-5.7-3.8-12-7.7-18.9-10.8c-0.1,0.8-0.2,1.6-0.2,2.5c-1.6-1.1-2.6-2.5-3.1-4
	c-2.5-1.1-5.1-2-7.7-2.8c-0.2,1.9-0.2,3.8-0.2,5.8c-1.9-2.5-4.1-4.6-5.3-7.3c-2-0.5-4-0.9-6-1.1c-0.3,2.8-0.8,5.6-1.7,8.4
	c-1.4-2.7-2.2-6.3-4.2-9c-0.7,0-1.5,0-2.2-0.1c-0.9,3-3.2,4.7-5.6,7c0-2.1,0-4.4-0.1-6.8c-1.2,0.2-2.3,0.4-3.4,0.7
	c-1.7,1.9-4.3,3-7,3.1c-1.1,0.6-2.2,1.3-3.5,2c0,1-1,3-2,4c-0.5-0.5-0.7-1.4-1.1-2.3c-6.6,3.6-16.6,8.6-35.2,15.2
	c-6.6,2.3-12.5,4.2-17.8,5.8c-0.4,3.5-4,5.5-5,9.3c-0.8-2.4-2.2-4.7-3.2-7.1c-1.6,0.4-3.2,0.8-4.6,1.1c-1,2-2.1,3.7-2.1,5.9
	c-1.4-1.4-2.4-3.1-3.1-4.8c-16.2,3.1-23.2,1.5-26.6,0.4c-2.7-0.8-10.1-3.4-20.6-4.4c-0.2,0-0.3,0-0.5,0c-1.6,0.7-3.1,0.8-5.2-0.3
	c-0.9,0-1.8,0-2.6,0c-1.1,1.6-2.1,3.1-1.4,5.1c-1.3-1.3-2.2-3-3.2-4.9c-2.9,0.2-5.3,0.5-7,0.7c0,0-0.3,0-0.9,0.1
	c-0.4,2.4,0.1,5,0.1,7.1c-2.6-1.7-3.7-4.2-5.2-6.8c-1,0.1-2.1,0.1-3.3,0.1c-1.4,1.2-1.6,3.7-2.4,4.6c0-1.5-0.5-3-1.1-4.5
	c-7.8,0.1-18.3-0.2-28.8-2.1c-0.6,1-1,2.2-1,3.6c-1.7-1.1-1.5-2.6-1.1-4.1c-11.5-2.4-19.4-8.6-27.4-17c-1.1,1.4-2.2,2.8-3.5,4.1
	c0-2.6,0-5.2,0-7.8c-1.2-1.3-2.4-2.7-3.7-4.2c-2.1,1.8-4.1,3.2-5.3,2c-1.9-1.9-1-5.2-0.6-8.7c-1.5-1.7-3.1-3.4-4.7-5.2
	c-2-0.1-3-1.5-3.5-3.6c-2.6-2.6-7.3-7-13.8-12.6c-2.5,3.1-5.3,6.6-9.4,7c1-4,0-8-2-11c0-1-3,3-6,2c1.3-2.6,4.7-4.4,6.4-6.9
	c-1.5-1.2-3.1-2.3-4.7-3.5c-0.6,0.5-1.2,0.8-1.7,0.5c0-0.4,0-1.1,0-1.7c-1-0.7-2.1-1.5-3.1-2.3c-1.5,0.4-3.2,1-4.9,1
	c0-1.4,0.2-2.8,0.4-4.1c-3-2.1-6.1-4.2-9.4-6.3c-2.9,0.5-4.9-0.2-6.3-4c-1.1-0.7-2.2-1.4-3.4-2c-2.5,1.4-5.4,2.4-8.4,2.4
	c0-2.7,0-4.9,0-7.3c-3.1-1.7-6.2-3.4-9.4-5.1c-1.4,1.6-2.6,3.3-4.6,4.3c-0.9-2.6-4.1-5.3-4.2-8.6c-4.8-2.3-9.8-4.5-15-6.6
	c-1.3,1.6-2.3,3.7-3.8,5.2c0-2,0.5-4.5-0.2-6.9c-2.4-0.9-4.4-1.7-6.3-2.3c-0.2,0.4-0.4,0.8-0.6,1.2c-1.3,0.7-2.2-0.9-3-2.3
	c-3.1-0.9-5.7-1.5-8.4-2c-1.1,1.9-1.6,4.2-2.6,6.3c0-2.9-1.6-4.7-2.4-7.1c-5.4-0.8-12.3-1.7-24.3-4.3c-0.9,2.3-1.9,4.6-3.3,6.4
	c-0.7-2.2-0.9-4.9-1.4-7.4c-5.1-1.2-11-2.6-18-4.4c-5.8-1.5-11.2-3-16.3-4.4c-0.4,2,0,4.3-1.3,6.2c-1.4-2.1-2.8-4.2-3.9-6.4
	c-1.4,3.2-3.5,5.6-7.1,4.4c-3,0-2-5-2-8c0,3-1,8,2,8c3.6,1.2,5.7-1.2,7.1-4.4c-0.3-0.5-0.5-1-0.7-1.6c-3-0.9-5.8-1.7-8.5-2.5
	c-3.9,1.6-7.6,3.8-11.9,4.5c1.6-2.4,3.8-4.1,4.6-6.7c-6.1-1.9-11.5-3.8-16.5-5.5c-1,0.8-2.1,1.7-2.1,3.2c-0.5-1.6-1.3-3.2-2.1-4.8
	c-0.6-0.2-1.2-0.5-1.9-0.7c0,0.8,0,1.6,0,2.4c-4.5,3.7-9.5,0.8-10.9-3.8c-1.2,1.6-2.3,3.2-3.1,4.8c0-3.7-2.7-6.9-4.2-10.3
	c-4.8-1.8-9.1-3.4-13.3-4.8c-0.4,0.9-0.5,1.9-0.5,3.1c-2.1-1.4-3.2-2.8-4-4.5c-8.2-2.4-16.2-3.9-26.5-4.3c-2.1,3.8-3.6,8-5.5,11.8
	c0.8-3.2-2.3-5.8-3-8.7c0,0.6,0,1.2,0,1.7c0-0.5,0-1.1,0-1.7c-0.2-0.7-0.2-1.5,0-2.3c-0.2,0.8-0.2,1.5,0,2.3c0-1,0.1-2.2,0.3-3.2
	c-4.8,0-9.3,0-13.6,0.1c-0.9,2.5-1.9,5-3.8,6.9c0.8-2.5-1.1-3.6-1.8-5.7c-1.6,2.4-3.5,3.9-6.2,1.7c0,0-0.5-1.5-1.2-2.8
	c-2.9,0-5.6,0.1-8.2,0.1c-1.3,1.2-2.2,2.8-2.6,4.7c-1.1-1.4-2-3-2.9-4.6c-2.9,0.1-5.6,0.1-8.1,0.2c-0.1,0.7-0.1,1.5-0.1,2.4
	c-1.2-0.4-1.9-1.3-2.4-2.4c-6.1,0.1-10.8,0.3-14,0.4c-1.3,2.6-2.9,5.1-5.6,7c-1.3-2-1.8-4.4-2.2-6.7c-1.5,0.1-2.9,0.1-4.4,0.2
	c0.5,1.6,1.8,2.5,4.6,2.5c-2.8,0-4.1-1-4.6-2.5c-3.1,0.1-6.1,0.2-9.2,0.1c-3.5,4.4-5.6,10.5-11.2,12.4c1.8-4.5,2.2-8.8,1.5-12.9
	c-0.5,0-0.9-0.1-1.4-0.1c-9-0.9-15.8-2.4-22-4.1c-0.9,1.9-1.8,3.9-2.1,6.2c-1.2-2.7-2.6-5.4-4.1-8.1c-2.3-0.7-4.5-1.4-6.9-2.2
	c0,3.4,0,6.8,0,10.3c-4.5-2.7-5.7-7.8-7.4-12.4c-1.6-0.4-3.3-0.9-5.1-1.3c-12.8-2.9-14.8-1.4-49.8-2.4c-28.2-0.8-53.8-1.5-83.1-4.7
	c-32.2-3.6-53.3-8.5-55.8-2.4c-2.3,5.6,14.7,12.6,16.9,28.5c2.1,15.2-14.2,26.6-15.3,33.5c-10.1,65.2-19.8,134.3,5.6,195.2
	c14.3,34.3,38.7,63.3,55.2,96.6c40.5,81.7,37.2,193.1,113.7,242.8c31.2,20.3,69.8,25.1,106.9,29c504.4,52.3,1013.4,25.1,1519.3-9.9
	c129.9-9,266.8-20.9,373.6-95.2c74.9-52.1,130.4-132.3,213.9-169.1c14.6-6.5,31.5-13,37.4-27.8
	C2181.1,2108.3,2178.9,2097.1,2176.7,2086.6z"/>
<linearGradient id="SVGID_2_" gradientUnits="userSpaceOnUse" x1="1145.6323" y1="1675.3518" x2="1145.6323" y2="2105.8748">
	<stop  offset="0.6166" style="stop-color:#7F61A7;stop-opacity:0"/>
	<stop  offset="0.6902" style="stop-color:#7874B3;stop-opacity:0.1947"/>
	<stop  offset="0.8481" style="stop-color:#5E9CD0;stop-opacity:0.6129"/>
	<stop  offset="0.9943" style="stop-color:#2ABCE5"/>
</linearGradient>
<path class="st1" d="M469,2009.4c2.7,3.5,8.3,5,11.8,5.7c5.3,1.1,9.9,2.9,15.5,2.9c15.1-0.2,30.2,0,45.2,0c6.7,0,13.4-0.2,20-0.1
	c7.4,0.1,13.2,3,20.5,3c18.1-0.2,36.1,0,54.2,0c5.9,0,11.9,0,17.8,0c5.8,0,10,2.2,15.4,3c9.4,1.3,20.1-2.6,29.1,0.5
	c1.9,0.6,2.7,1.9,5.2,2.3c2.3,0.3,4.9-0.1,7.2-0.1c5.2,0,11.1-1,16.1,0.6c3.8,1.2,7.2,5.4,5.4,10.9c-2.4,7.6-10.6,3.5-14.4,10
	c-6.3,10.8,3.3,9.9,9.5,9.9c5.5,0,11.1,0,16.6,0c11.1,0,22.2,0,33.2,0c20.7,0,41.5,0,62.2,0c32.7,0,65.3,0,98,0
	c4.7,0,9.8-0.7,14.4,0.2c6,1.2,11.4,5,17.4,5.5c7.7,0.8,15.3,0.6,22.8,3.1c7.9,2.6,14.1,2.6,22.8,2.6c6.5,0,13.4-0.9,19.8,0.6
	c7.5,1.7,12.7,5.2,20.3,5.1c15.5-0.1,31,0,46.5,0c26.4,0,52.9,0,79.3,0c13.9,0,27.8-0.1,41.7,0c5.6,0,9.2-1.2,14.4-2.6
	c4.1-1.1,8.7-0.1,12.9-0.2c3.9-0.1,5.7-1.1,9.2-2.3c3.3-1.1,6.4-0.3,9.7-0.6c2.9-0.2,4.4-1.4,7-2.3c7.9-2.6,16.8-2.3,24.8-4.9
	c12-4,28-1.4,40.6-1.4c9.5,0,20.4,1.7,29.6-0.6c3.9-1,6.1-2.3,10.8-2.3c6.3,0.1,12.7-0.3,19-0.1c16.3,0.5,32.3,3,48.6,3
	c29.6,0,58.8,2.9,88.4,2.9c16.5,0,33,0,49.5,0c18.7,0,37.1-2.7,55.8-2.9c5.4-0.1,40,4.4,34.4-9.4c-2.3-5.6-8.5-7.6-12.6-10.4
	c-8.2-5.7-16.9-7.8-25.6-11.6c-8.7-3.8-17.5-0.9-26.2-3.5c-7.4-2.2-14.7-2.8-22.5-2.3c-9.2,0.6-26.2,10.1-32.6-2.6
	c-4.6-9.1,3.3-10,9.6-11.3c8.1-1.7,14.5,1.2,21.5-3.1c9.4-5.7,22.1-2.6,33.1-2.8c18.1-0.4,35.9-2.9,54-2.9c26.5,0,53-0.2,79.5,0
	c13.3,0.1,26.4-2.8,39.6-3c10.5-0.1,19.8-0.1,30.2-2.1c15.5-3,31.6,1.8,47-1.3c18.6-3.7,38-2.8,56.9-3.7c30.8-1.4,61.4-1.4,92.2-1.4
	c11.2,0,22.6-1,33.6,1.4c5.7,1.3,16.9-1.2,21.5,2.6c-6.3,18.1-15.5,36.2-28.7,48.1c-9.8,8.8-19.2,15.9-30.2,22.5
	c-17.2,10.3-35.1,19.6-54.4,19.8c-91.4,1-181.4,13.2-271.4,32.9c-34.4,7.6-71.7,9.9-106.6,11.5c-88.9,4-177.8,4.1-266.8,4.1
	c-35.6,0-71.3,1.1-106.9-1.5c-36.6-2.7-72.5-7.3-109.2-7.3c-26.9,0-53.2,3.3-80,5.5c-45.6,3.7-91.5-1.4-137.1,1.1
	c-47.9,2.6-95.7,8.1-143.7,7.9c-67.1-0.2-133.9,5.7-200.9,5.8c-49.3,0-98.3-3.4-147.6-2.8c-6,0.1-10.6-1.1-16.3-2.3
	c-8.8-1.8-17.6,0.3-26.4-2.6c-8-2.6-15.6-6.5-23.7-8.9c-8.7-2.5-17.6-3.7-26.2-6.4c-11.8-3.8-23.7-1.4-35-5.8
	c-1.4-0.5-2.7,0.7-4.2-0.1c-4-2-8.8-7.2-12.6-9.4c-4.9-2.8-8.1-5.5-12.6-8.9c-2.1-1.6-8.5-3.7-10.3-6.6c-1.7-2.7-0.6-3.9-1.3-6.4
	c-1.9-6.9-4.5-14.1-7.3-20.6c-3.2-7.3-2.7-16.6-2.3-25.2c0.2-4.4,0.6-9.1,4-11.2c4.2-2.6,8.7-2.5,13.1-5.8c10-7.5,22.3-15.2,34-18.2
	c3-0.8,6.2-0.9,9.1-1.9c3.4-1.2,6-3.9,9.3-5.2c9-3.7,19.5-3.6,28.9-3.4c12.5,0.2,22.2-8.7,34.5-8.6"/>
</svg>
