<?xml version="1.0" encoding="utf-8"?>
<!-- Generator: Adobe Illustrator 25.0.0, SVG Export Plug-In . SVG Version: 6.00 Build 0)  -->
<svg version="1.1" id="Слой_1" xmlns="http://www.w3.org/2000/svg" xmlns:xlink="http://www.w3.org/1999/xlink" x="0px" y="0px"
	 viewBox="0 0 1920 2160" style="enable-background:new 0 0 1920 2160;" xml:space="preserve">
<style type="text/css">
	.st0{fill:url(#SVGID_1_);}
	.st1{opacity:0.36;fill:url(#SVGID_2_);}
</style>
<linearGradient id="SVGID_1_" gradientUnits="userSpaceOnUse" x1="874.8588" y1="1532.9884" x2="874.8588" y2="2447.155">
	<stop  offset="0.5539" style="stop-color:#7F61A7"/>
	<stop  offset="0.6285" style="stop-color:#716DAE"/>
	<stop  offset="0.7812" style="stop-color:#3985BE"/>
	<stop  offset="0.7876" style="stop-color:#3585BF"/>
</linearGradient>
<path class="st0" d="M2208.2,2129.4c-8.8-27.6-11.2-56.6-21.5-83.9c-5.1-13.6-9.8-26.3-17.5-38.7c-3.6-5.8-6.3-12.5-13.1-15.1
	c-2-0.7-4-1.3-5.8-1.8c-5.6-0.7-9.7-1.2-9.7-1.3c0-0.1,4.2,0,9.7,1.3c12.5,1.5,32.6,3.4,32.7,2.4c0.3-1.5-39.1-9.5-54.1-12.3
	c-20.7-3.8-41.2-6.3-61.1-7.7c-0.5,3.6-0.7,7.1-1.9,10.7c-0.6-3.9-1.7-7.4-2.8-11c-8.1-0.5-16-0.8-23.9-1c-2.1,3.7-3.7,7.1-5.3,11.1
	c-1.1-3.9-1-7.5-0.8-11.2c-10.5-0.1-20.8,0-30.8,0.3c0.1,2.2-0.1,4.5-1.4,6.9c-0.5-1.4-1.7-2.5-2.9-3.7c-1.3,3.9-3.1,7.8-3.1,11.7
	c-1.7-5-4-9.7-6.6-14.3c-7.6,0.4-15.1,0.9-22.2,1.5c0.3,4.3,0.4,8.5-1.2,12.8c0-4.1-4.1-7.6-5.5-11.5c-3.3,1.8-2.8,6.8-5.5,9.5
	c-2.1-2.8-2.7-6-2.9-9.4c-13.1,1.4-25.2,3-36.1,4.7c0,3.2,0,6.7,0,9.7c-1.6-3.2-3.1-5.7-3.7-9.1c-4.3,0.7-8.4,1.4-12.3,2.1
	c0,1.3,0,2.6,0,4c-2.1,0-3.7-1.5-5.2-3.1c-2.1,0.4-4.1,0.8-6.1,1.2c-0.3,2.7-0.8,5.4-1.7,7.9c0-2-2-3-1-5c-4,2-5,6-6,10
	c-3.6-2.1-5.1-5.8-7.1-9.6c-0.2,0-0.3,0.1-0.5,0.1c-0.9,2.2-2.7,4.3-3.4,6.5c-1.4-1.4-1.8-3.4-2.3-5.1c-7.9,1.9-12.2,3.1-12.2,3.1
	c-7,2-13.8,4.1-20.4,6.3c0.5,5.6-2.2,11.2-3.1,16.8c-2.2-4.5-4.5-9-5.5-13.9c-0.2,0.1-0.3,0.1-0.5,0.2c0.7,2.7-3.1,2.8-3.1,4.7
	c-1.3-0.8-2.2-1.7-2.8-2.7c-6.1,2.2-12.1,4.4-18,6.6c0.3,2.5,1.2,4.8,1.8,7c-4,1-7-4-11-3c4-1,7,4,11,3c-0.6-2.3-1.5-4.6-1.8-7
	c-5.4,2.1-10.8,4.2-16,6.3c-0.3,3.6-0.4,7.3-1.2,10.8c-2-1-2-5-5-4v2c-3,1-4-2-5-4c0,2,0,4,0,6c-3.2,0-6.4-0.7-9.1-2.5
	c-9.7,4-19.4,7.8-29.2,11.6c-3,4.5-7.4,8-13.5,5c-0.3,0.1-0.6,0.2-0.9,0.3c-0.6,3.6-1.3,7.2-2.3,10.6c0-3,0-5,0-8c-4,2-3,8-6,11
	c-2.1-2.8-3.2-6.1-4-9.5c-1,0.3-1.9,0.6-2.9,0.9c-1.1,3.1-2.2,6-4,8.5c-0.8-2-1.3-4.4-2-6.6c-7,2.1-14.3,4.2-21.8,6
	c-7.2,1.8-13.7,3.2-19.6,4.3c-0.8,3.5-1.6,6.9-1.6,10.4c-3.4-2.2-4.5-5.7-5.8-9.1c-6.2,1-11.7,1.7-17,2.3c0.1,2,0.1,3.9-0.2,5.7
	c0-2.2-1.2-3.8-2.3-5.5c-0.9,0.1-1.7,0.2-2.6,0.3c-2.9,2.6-6.4,4.5-9.1,7.2c0-2.1,0-4.2,0-6.3c-0.4,0-0.7,0.1-1.1,0.1
	c-1.6,3.1-4.4,5.8-5.9,4.2c-1.1-0.7-1.6-2-1.9-3.4c-5.2,0.6-10.6,1.2-16.2,2.2c-1.2,2-2.3,4.1-2.8,6.2c0.5-1.9,0.3-3.8-0.1-5.7
	c-2.1,0.4-4.2,0.8-6.4,1.3c-2.7,0.6-9,2.2-17.2,1.8c-0.6,1.6-1.4,3.1-1.4,4.6c-0.9-1.8-2-3.4-2.9-4.9c-1.1-0.1-2.2-0.3-3.4-0.5
	c-6.1-1.2-11.8-4.1-17.5-6.6c-1.6,3.9-3.2,7.7-3.2,12.1c-1.9-4.4-1.4-9.1-1-13.8c-3.7-1.3-7.3-2-11.2-2.1c-1.9,1.6-2.1,4.8-2.8,6.9
	c-2.6-1.3-2.7-4.7-3.5-6.7c-1.5,0.1-2.9,0.4-4.5,0.6c-0.8,1.7-1.4,4.3-2,6.1c-1.6-1.6-1.9-3.1-2.5-5.2c-0.9,0.2-1.8,0.4-2.7,0.6
	c-1.3,2.2-2.1,4.8-4.9,5.5c-1.8,0-1.8-1.9-2.2-3.5c-5.6,1.7-11.8,3.8-18.6,6.1c0,3.2-0.2,6.3-1.2,9.5c-1.1-2.2-2.8-4.7-4.1-7.3
	c-1.6,2.4-3.3,4.9-4.9,7.3c0-2-1-4-2-5c0,4-2,10-5,7c-1.5-1.1-2.6-2.9-3.6-4.8c-3.3,1-6.8,2-10.4,2.9c0,3.6,0,7.2,0,10.9
	c-2-3-3.9-5.9-4-9.8c0,0-0.1,0-0.1,0c-1.1,2.8-4.9,3.9-5.9,7.8c0-1,0-2,0-3c-1,1-2,2-3,3c-0.5-2-1.5-3.7-2.2-5.5
	c-2.2,0.4-4.7,0.8-7.6,1.2c-0.4,2.4-1,4.7-4.2,5.2c-2,0,0-4-2-3c-1,1,0,5-3,4c-1-1-2-3-4-4c2,1,3,3,4,4c3,1,2-3,3-4c2-1,0,3,2,3
	c3.2-0.5,3.8-2.8,4.2-5.2c-4,0.6-8.5,1.3-13.8,2.1c-1,4.5-2.1,8.9-3.4,13.1c-0.8-4.5,0.8-8.5,0.3-12.7c-1.9,0.3-4,0.6-6.1,0.9
	c0.1,2,0.3,4-0.2,5.8c-3-1-2-4-5-5c3,1,2,4,5,5c0.4-1.8,0.3-3.8,0.2-5.8c-1.8,0.3-3.6,0.5-5.5,0.8c-1.1,7.7-4.7,15.3-4.7,23
	c-1-7.5-2-14.8-3.4-21.9c-1.9,0.3-3.8,0.5-5.7,0.8c-0.3,1.4-0.9,2.7-1.9,4.1c-1.1-1.1-2.2-2.2-3.3-3.3c-0.9,0.1-1.8,0.2-2.7,0.4
	c0,3,0,6,0,9c-2-3-6.8-4-7.9-7.8c-0.2,0-0.4,0.1-0.6,0.1c0.9,4.6,1.5,9.2,1.5,13.8c-0.8-4.7-3.4-8.9-4.5-13.3
	c-2.2,0.3-4.3,0.6-6.5,0.9c0,4.2,0,8.5,0,12.4c-2.2-3.7-3.4-8-5.9-11.6c-1.3,0.2-2.7,0.4-4,0.5c-0.9,2.3-2.2,4.5-2.2,7.1
	c-2.8-1.9-4.8-4.6-7.5-5.8c-0.2,0-0.4,0.1-0.7,0.1c0.7,7.8,1.4,15.6,0.2,23.7c-2-7.2-2.2-15.4-3.9-23.2c-6.6,0.9-12.7,1.7-18.1,2.3
	c0,1.6,0,3.2,0,4.9c-1.1-1.1-1.9-2.8-2.9-4.5c-1,0.1-1.9,0.2-2.8,0.4c-0.3,0-0.6-0.1-0.8-0.1c-3,6.5-7.1,12.5-10.4,19.3
	c1.5-6.1,3.1-12.3,4.1-18.6c-1.6,1.8-3.4,3.5-4.1,5.6c-3.4-2.2-6.1-5.1-8.4-8.3c-3.2-0.2-6.5-0.4-9.9-0.6c-2.1,4.2-3.7,8.8-6.8,11.8
	c0-4,0-7,0-11c-5,4-8,9-10,15c-5.3-4.4-7.5-9.6-9.3-15.6c-0.6,0-1.2,0.1-1.7,0.1c-1.1,4.4,1,9.3,1,13.5c-3-4.9-6.9-7.9-8.9-12.9
	c-0.5,0-1.1,0.1-1.6,0.1c-0.4,6-1,11.9-1.5,17.7c-1.7-6.1-2.7-11.4-2.9-17.2c-2.1,0.2-4.1,0.5-6.1,0.8c1.1,3.6,1.7,7.5,1,11.4
	c2-4,1-9,5-12c-4,3-3,8-5,12c0.7-3.9,0-7.8-1-11.4c-1.8,0.2-3.5,0.5-5.3,0.8c-0.7,2.9-0.7,5.9-0.7,8.7c-0.5-2.5-1.5-5.3-2.5-8.1
	c-1.6,0.3-3.1,0.5-4.6,0.8c-0.5,4.1-0.7,8.2-1.8,12.3c-0.6-3.9-0.9-7.7-1.8-11.6c-1.4,0.3-2.7,0.6-4,0.9c-0.7,2.6-1.4,5.2-2,7.6
	c0,0.4-0.1,0.7-0.2,1.1c0.1-0.4,0.2-0.7,0.2-1.1c0.3-2.3-0.9-4.6-1.2-6.9c-0.1,0-0.3,0.1-0.4,0.1c-0.9,2.6-1.9,5.3-3.6,7.9
	c0-2.5-0.7-4.4-1.5-6.7c-0.5,0.1-0.9,0.2-1.4,0.4c-1.1,2.4-1.1,4.9-1.1,7.3c-1.6-2.4-3.2-4.1-5.8-5.2c1.1,4.7,2.3,9.3,1.8,14.2
	c-4.1-3.4-4.5-8.6-6.2-13.2c-1.3,0.4-2.6,0.8-3.9,1.2c-0.1,2.9-0.5,5.7-2,8c0-2.6-0.4-4.8-0.7-7.1c-1.5,0.5-3,1-4.5,1.5
	c-0.8,3.2-1,6.6-1.8,9.6c-1.3-2.5-2.5-5-3.8-7.6c-2.4,0.9-4.7,1.8-7,2.7c-0.9,2.6-1.7,5.2-2.3,7.9c-1.5-2.9-2.4-5.8-3.2-8.7
	c-3.3-0.6-6.5-1.2-9.6-1.6c-1.4,3.8-1.8,7.6-3.3,11.3c-2-4-7-7-7-12c0,5,5,8,7,12c1.5-3.8,1.9-7.6,3.3-11.3
	c-3.5-0.5-6.8-0.9-10.1-1.1c-2.9,5.5-6.5,10.9-10.2,15.5c0-5.6,0-10.6-0.5-16c-0.4,0-0.9,0-1.3,0c-2.9,3.4-4.7,6.8-7.2,11
	c0-2.8-0.3-6-0.2-9.1c-0.9,3.6-1.9,6.3-3.8,9.1c0.6-3.5,0.1-7.1-0.3-10.6c-2.3,0.2-4.6,0.4-6.7,0.7c-0.9,2,0,5.9-2.9,6.8
	c-0.5-2.1-0.8-4.3-1.7-6.1c-0.6,0.1-1.2,0.2-1.8,0.3c0.4,5.3,0.4,10.5,0.4,15.8c-1.8-4.9-3.7-9.9-5.8-14.6c-1.5,0.4-3,0.8-4.4,1.2
	c-0.9,0.3-1.8,0.6-2.8,0.9c1,2.8,2.2,5.7,2.9,8.5c1-3,1-5,1-8c0,3,0,5-1,8c-0.7-2.8-1.9-5.7-2.9-8.5c-1.6,0.5-3.3,1-5.1,1.5
	c-0.3,3.5-2,6.3-2.9,9c-0.9-2.7-1.8-5.3-2.4-8c-2.2,0.3-4.7,0.5-7.3,0.6c-0.6,0-1.3,0-1.9,0c-1.1,2.5-2.6,4.9-3.4,7.4
	c-0.8-2.7-1.4-5.3-1.9-7.8c-3.7-0.5-7.1-1.3-10.2-2.5c-0.6,1.6-1.4,2.9-2.9,3.3c-2.2,0.7-2.8-2.4-3-5.7c-1.9-0.9-3.6-1.8-5.4-2.8
	c-0.8,3.2-1.7,6.4-1.7,9.5c-1.8-3.5-1.5-7.4-1.3-11.2c-1.8-1-3.6-2.1-5.3-3.1c-1.5,3-3.3,5.8-5.4,8.3c0-3.9-1.2-7.9-1.3-11.8
	c-0.4-0.2-0.8-0.4-1.2-0.6c-3-1.3-5.8-2.3-8.6-3c0,4.2,0,8.5,0,12.3c-2.5-4.1-4.3-9-6.5-13.3c-1.3-0.1-2.6-0.1-3.9-0.1
	c-2.4,3.6-6,6.3-7.6,10.4c0-3.3,0.8-6.5,1.2-9.8c-1.4,0.2-2.8,0.5-4.2,0.8c-0.1,4.8-1.1,10.3-3,15c-2.3-4.6-5.8-8.1-6.4-12.6
	c-3.3,0.9-6.8,1.9-10.6,2.8c0,2.6,0,5.4,0,7.7c-2.2-1.6-4.4-3.9-5.7-6.4c-4.1,0.9-8.6,1.6-13.4,2.2c-0.8,5-1.5,9.9-0.8,15.2
	c-2.4-4.9-4.2-9.8-6.4-14.6c-1.3,0.1-2.5,0.1-3.8,0.2c-0.7,2.5-2.1,5-2.7,7.5c-0.5-2.6-1.1-5-1.4-7.4c-7.3,0-13.3-0.5-18.7-1.4
	c-1.1,3.4-2.3,6.7-3.9,9.8c-1-2-1-4-1-6c-4,1-4,8-5,7c-4.9-3-6-9.8-7.9-15.7c-0.1,0-0.2-0.1-0.3-0.1c-1.5,3-3.8,5.7-3.8,8.8
	c-5.2-2.2-4.9-8.3-6.8-13c-1-0.4-2-0.8-3.1-1.2c-0.5,3.4-3.1,6-3.1,9.1c-3.7-3.7-5.8-8.5-8.2-12.8c-5.3-1.5-11.3-2.7-18.5-3.6
	c-1.2,2.1-2.4,4.3-3.3,6.4c-2.8-1.4-4.7-4.3-6.2-7.3c-8.5-0.5-16-0.3-22.9,0.6c-2,3.9-4.9,6.8-5.9,10.8c-1.6-2.7-1.2-6.5-1.6-9.6
	c-2.1,0.4-4.2,0.8-6.3,1.3c-1.7,4.3-4.2,8.3-6.2,12.3c-0.4-3.4-0.9-7-1.7-10.3c-2.5,0.7-5.1,1.4-7.6,2.2c0,1.5,0.1,3,0.5,4.5
	c0.4,0.8,0.7,1.7,0.9,2.6c-0.4-0.9-0.7-1.8-0.9-2.6c-0.6-1.4-1.4-2.7-2.3-4c-0.3,0.1-0.7,0.2-1,0.3c-2.8,4.5-6.3,7.6-12.8,4.3
	c6.5,3.2,10,0.2,12.8-4.3c-4.6,1.4-9.3,2.8-14.3,4.2c-0.4,3.4-0.9,6.7-1.5,10.1c-1.2-3-2.5-5.8-3.8-8.7c-0.8,0.2-1.6,0.4-2.5,0.6
	c-1.4,2.1-3.1,3.5-5.5,1.3c-0.1,0-0.1,0-0.2,0c0,2.9,0,5.6,0,8.8c-3.9-0.8-6-4-7.7-7.3c-0.5,0.1-0.9,0.1-1.4,0.2
	c-0.8,4.1-1.7,8.1-3,12.1c-0.7-3.9-1.5-7.6-2.3-11.3c-7.2,1-14.3,1.5-21.3,1.6c-0.8,4.6-1.4,8.8-1.4,13.7c-2.7-4.6-0.5-9.1-1.6-13.7
	c-6,0-11.8-0.2-17.7-0.8c-0.6,2.7-1,5.3-2.8,6.4c-1,2-1-3-2-4c-2-1-3,1-3,3c-1.9-1.9-2.6-4.2-2.9-6.7c-3.1-0.4-6.2-1-9.2-1.5
	c-0.9,3.1-1.9,6.4-1.9,9.2c-3-1,0-5-3-6c-1,3-3,5-3,8c-1.7-4.2-2-9.2-3.2-13.6c-3.3-0.8-6.6-1.7-9.9-2.6c-0.3,2.6-1.1,4.9-3.9,6.2
	c-1-3-2-5-3-8c-1,2-1,4-2,6c0-3.2-1.6-5.6-3.1-7.9c-6.3-2.1-12.6-4.4-18.9-6.9c-1.1,2.1-1.9,4.4-3.1,6.8c-2-2-2-5-2-8c-2,2-3,6-6,7
	c0-4-1.2-7.3-1.8-11c-4.1-1.7-8.2-3.5-12.3-5.4c-1.2,1.3-2.5,2.5-3.9,3.4c0-0.7-1-1.4-1.2-2.1c-0.7,1.2-2.6,1.5-1.8,3.1
	c-1.8-3.7-5.3-5.7-5.1-9.8c-0.3-0.1-0.5-0.2-0.8-0.4c-1,1.9-1.9,3.7-3.1,5.2c-2-4-5-7-8-10c3,3,6,6,8,10c1.1-1.5,2.1-3.3,3.1-5.2
	c-7.6-3.5-15.2-7-22.8-10.6c-1,1.7-1.8,3.6-2.2,5.7c-3.4-1.7-3.9-6.2-5.8-9.4c-0.8-0.4-1.7-0.8-2.5-1.2c-2.1,2.8-4.6,4.6-7.7,3.6
	c-3-1-5,1-8-3c-2-3-1-9-5-9c-1-1-2,3-4,4c-1.4-3.4-4.5-5.9-6.5-9c-7.7-3.1-15.6-6.1-23.6-8.8c-1.4,2.7-2.9,5.1-4.9,5.8c-3,1-2-4-2-7
	c-4,1-4,7-6,6c-4.3-1.4-6.5-6.4-8.6-11.4c-9-2.5-18.3-4.6-27.8-6.3c-2.3,3.1-4.6,6.3-6.7,9.7c-3-3-1-8-3-9c-4-2-4,6-8,7
	c0-3.3,0-7,0-10.6c-6.5-1.2-14.4-3.1-23.3-6.3c-0.8,1.3-1.7,2.6-2.7,3.9c-1.5-1.5-1.9-3.6-2.4-5.8c-0.6-0.2-1.1-0.4-1.7-0.7
	c-1.6,2.2-3.3,3.9-4.9,5.5c-0.5-2.7-0.9-5.4-1.1-8.1c-20.7-9.6-30.1-19.7-39.3-28.7c-1.1,1.8-2.3,3.4-4.6,3.8c0-3-2-7-3-10
	c-1,1-3,4-3,3c-1.6-2.4-3.8-5.4-3.1-8.6c-0.6-0.4-1.2-0.8-1.8-1.2c-1.4,1.6-2.8,3.1-4.1,4.7c-1.2-1.6-1.9-3.4-2.3-5.3
	c-0.8,1-2.4,1.9-1.7,3.3c-5.2,0-5.9-6-7.3-9.6c-0.7-0.1-1.4-0.3-2.1-0.4c-0.7,1.9-1.7,3.5-3.6,3.9c-2.5,0.6-4.6-1.5-6.1-4.3
	c-5.3,0.1-12.4,0.6-22.1,1.7c-1.4,2.6-2.9,5.1-4.8,7.7c-2.3-1.6-4.1-3.7-5.2-6.5c-6.1,0.8-13.2,1.7-21.1,2.9
	c-0.5,1.2-1.4,2.1-0.7,3.6c-1.5-1-3.4-1.7-5-2.8c-1.6,0.2-3.2,0.5-4.8,0.7c-2.3,3.3-2.4,9.1-4.2,9.1c-3.2-1.4-5.6-4-7.5-7.3
	c-4.3,0.7-8.7,1.4-13.4,2.1c-0.8,0.1-1.7,0.3-2.5,0.4c-1.2,5.4-1.8,10.7-5.6,10.7c-3.8,0-7.2-3.6-9.7-8.2c-15.4,2.6-25,4.3-32.1,5.6
	c-0.7,1.8-1.2,3.6-1.2,5.6c-2-1.2-3.7-2.8-5.2-4.5c-3.9,0.7-7.2,1.2-11,1.7c-2.5,5.4-5.3,10.6-8.7,15.7c-1.3-4.8-2.4-9.6-3.8-14.3
	c-11.9,1.2-21.4,1.7-29.6,2c-0.5,1.4-1.1,2.7-1.6,4.3c-1.8-1.3-3.1-2.7-4.2-4.2c-8.4,0.2-15.5,0-22.6,0.1c-0.1,2.1-0.4,4.1-1.2,6.1
	c-1-2-2.5-3.9-3.7-6c-3.8,0.1-7.6,0.2-11.8,0.5c-1.6,3.4-3.4,6.8-4.5,10.5c0-3.3-0.6-6.7-1.5-10c-3.2,0.3-6.6,0.7-10.3,1.2
	c-1.7,0.2-3.5,0.5-5.3,0.7c-3.3,4.8-8.1,8.5-10.9,14.1c-0.9-4.2-1.2-8.1-1.4-12c-6.4,1.2-13.3,2.8-20.7,4.8c-0.1,1,0,2.1,0.2,3.3
	c-0.9-0.9-1.8-1.8-2.7-2.6c-2,0.5-4,1.1-6.1,1.7c0.3,7.4,0.5,14.7-1.2,21.8c-4.8-5.6-9.6-11.2-12.9-17.3c-8.1,2.8-16.7,6.1-25.6,10
	c-1.3,3.4-2.5,6.8-2.5,10.4c0-3.4,0.1-6.8,0.1-10.4c-5.5-0.4-13.1-1.2-22.1-2.6c-7.6-1.2-13.9-2.5-19.3-3.8
	c-2.5,4.2-5.3,8.2-7.7,11.8c-1.7-5-3-10-3.4-15c-5.3-1.7-9.9-3.5-14.6-5.2c-2.2,4.9-4.5,9.7-5,15.1c-3.8-6.1-6.4-12.7-8.3-19.6
	c-2.9-0.8-5.9-1.6-9.3-2.4c-40.6-9.1-86.7-3.2-99.1-13.1c-1.3-1.1-6.6-5.9-14.3-10c-5.3-2.8-10.4-5.7-15.6-8.8
	c-14.3-8.5-31.6-14.2-47.5-18.3c-6.5-1.7-12.5-1.5-18.9-3.1c-14.2-3.5-35.4-6-46.6,4.4c-8.2,7.6-14.1,17.4-20.3,26.6
	c-8.8,13.2-18.5,26.5-25.4,40.8c-2.7,5.6-2.9,11.8-5.2,17.5c-2.2,5.6-5.8,9.9-9.2,14.8c-6.7,9.6-11.7,19.9-17.2,30
	c-4.7,8.7-11.8,15.6-17.7,23.4c-6.4,8.4-9.1,18.3-13.7,27.8c-11.8,24.5-10.1,57.2-10.1,83.6c0,16.5,2.4,26.5,7.9,42.2
	c2.5,7,3.2,15.7,7.2,22.1c6,9.6,22.1,21.9,29.6,27.3c30.9,22.1,65.4,38.7,95.9,61.6c10.7,8,22.6,14.7,34.1,21.5
	c15.5,9.1,33.7,13.1,50.6,19c19.8,6.9,39.4,14.7,59,22.1c33.5,12.7,66.4,24,101.7,30.6c42.2,7.9,83.9,15.2,126.6,19.9
	c55.2,6.1,110.6,13.5,165.2,23.9c38.8,7.4,78,11.7,117,17.5c36.7,5.5,73.2,10.2,110.1,13.6c75.3,6.9,150.8,11.8,226.4,15.1
	c123.6,5.4,247.7,4.4,371.2-0.7c84.7-3.5,168.6-15,253-22.9c101.6-9.4,202.3-25.1,303.7-36.5c40.5-4.5,80.9-8.9,121.4-13.4
	c23-2.7,46-5.3,69-8c55.5-10.5,108.3-33.2,161.2-52.4c37.7-13.7,89.8-26.3,120.7-52.5c16.3-13.8,28.7-23.6,45.7-40.6
	c21.6-20.1,40.5-42.3,56.7-66.7c3.8-5.4,7.7-10.9,11.5-16.3c4.3-9.8,7.1-19.2,12.5-28.7C2207.9,2186,2215.7,2153,2208.2,2129.4z"/>
<linearGradient id="SVGID_2_" gradientUnits="userSpaceOnUse" x1="1045.6224" y1="1768.8683" x2="1045.6224" y2="2184.1499">
	<stop  offset="0.5539" style="stop-color:#7F61A7;stop-opacity:0"/>
	<stop  offset="0.6448" style="stop-color:#7F63A8;stop-opacity:0.2303"/>
	<stop  offset="0.7057" style="stop-color:#7D69AC;stop-opacity:0.3848"/>
	<stop  offset="0.758" style="stop-color:#7973B3;stop-opacity:0.5172"/>
	<stop  offset="0.8052" style="stop-color:#7280BC;stop-opacity:0.637"/>
	<stop  offset="0.8492" style="stop-color:#6890C7;stop-opacity:0.7483"/>
	<stop  offset="0.8906" style="stop-color:#59A1D3;stop-opacity:0.8533"/>
	<stop  offset="0.9294" style="stop-color:#41B3DF;stop-opacity:0.9517"/>
	<stop  offset="0.9485" style="stop-color:#2ABCE5"/>
</linearGradient>
<path class="st1" d="M-56.3,2130.3c7.8,0,15.7,0,23.5,0c9,0,18.5,0.8,27.5,0.1c4.6-0.4,7.7-2.6,12.1-3.4c9-1.7,16.2-0.1,25.2-3.4
	c9.1-3.3,17.6-1.3,27.3-2.7c7.2-1,12.8-3.3,20.4-3.3c8.1,0,17.3,1.1,25.3,0.2c8.7-1.1,15.5-3.4,24.5-3.3c18.4,0,36.9,0,55.3,0
	c70.3,0,141.6-2.6,211.9-0.1c10.4,0.4,19.4,3.4,30.2,3.3c19.6-0.2,38.9,2.9,58.4,3.1c5.1,0.1,10.2-0.4,15.2-0.1
	c4.9,0.3,7.9,2.5,12.5,3.4c8.5,1.7,20-0.1,28.7-0.2c8.5-0.1,15.7,2.7,24,3.3c13.3,1,27.4-0.1,40.8-0.1c19,0,38,0,56.9,0
	c17.3,0,31.8,6.3,49.8,6.3c7.7,0,15.4,0,23,0c8.7,0,15.5,2.8,23.7,3.2c20.4,1.1,41.3-0.1,61.7-0.1c14.5,0,33.5,3.2,47.6,0.1
	c5.1-1.1,10.2-3.9,14.8-5.7c3.9-1.5,6-1.9,9.5-4.6c7.9-6.1,7.4-3.8,15.3-5.5c3-0.6,4.5-2.8,7.6-3.5c2.8-0.6,6.7,0.1,9.6,0.1
	c7.9,0,15.7,0,23.6,0c20.1,0,42-2.4,61.4,1.6c10.2,2.1,20.3-0.1,30.4,1.4c5.9,0.9,10.9,3.3,17,3.5c4.1,0.1,7.5-0.4,11.5,0.6
	c24.7,5.9,53.6,2.1,79.4,2.5c7.9,0.1,14,3.3,22,3.2c9-0.1,18,0.2,26.9,0c7.8-0.2,14.2-2.9,22.2-3.2c13.2-0.4,26.7-2.6,40-3.5
	c14.6-0.9,28.6-2.8,43.1-2.9c8.4,0,14.9,2.8,22.9,3.2c7.3,0.4,14.8-1,22,0.6c10.1,2.2,18.8,2.5,29.4,2.5c15.5,0,33.3-2.4,48.5,0.3
	c5,0.9,9.2,2.8,14.3,3c7.1,0.3,14.4,0,21.5-0.1c8.7-0.1,15.3,3.3,24.1,3.2c28.2-0.6,54.7,12,77-9.6c3.6-3.4,3.7-5.3,8.3-6.4
	c2.7-0.6,6.7,0.1,9.5,0.1c15.8,0.1,33.5-2.7,48.8,0.7c34.2,7.6,71.5,5.6,107,5.6c23.5,0,47,0.4,70.4,0.1c14.2-0.2,27.8-3.3,42.2-3.2
	c10.5,0.1,19.8-2.8,30-3.2c10.4-0.4,20.9,0.9,31.3,0.2c5.8-0.4,11.2-2.3,16.9-3c28.2-3.7,61.6-0.3,89.2-0.3c31.9,0,63.9,0,95.8,0
	c18.1,0,36.2-0.7,54.1,1.6c49.8,6.1,100,4.8,150.2,4.8c10.8,0,27.4,3.2,37.6,0.2c5.5-1.6,20.2-8.9,15.6,4.2
	c-3.4,9.7-16.6,15-25,18.7c-15.4,6.7-31.2,12.5-46.6,19.2c-32,13.9-67.4,31.6-102.2,36.7c-52.1,7.6-104.5,11.3-156.7,19.1
	c-58.8,8.9-117.7,20.2-176.8,28c-12.7,1.7-25.3,3-37.9,5.6c-98.3,19.7-199.7,27.3-299.5,36c-36.9,3.2-71.8,3.2-108.6,3.2
	c-69.1,0-138.2,0-207.2,0c-48.7,0-97.4,0-146.2,0.1c-30.5,0.1-60.8-3-91.3-3.5c-42.6-0.7-85.1,1.6-127.6-1.4
	c-27.1-1.9-54.2-1.7-81.3-1.6c-70.1,0.2-139.3-1.8-209.2-7c-54.2-4.1-108.4-10.4-162.4-16.7c-73.8-8.6-147.9-13.2-221.3-25.3
	c-54.7-9-109.1-17-164.1-23.8c-25.3-3.1-51.3-7-76.9-6.3c-18.2,0.5-34.7-5.2-52.7-6.2c-9.1-0.5-18,0-26.8-1.4
	c-34.9-5.5-71.8-5.5-106.2-14.3c-2.8-0.7-5.4-2.1-8.2-2.7c-5.3-1.2-10.7,0.1-15.8-1.1c7.9-11,15.4-17,27.8-22.4
	c19.6-8.7,41.4-16.4,62.4-20.8c25.1-5.2,49.8-16.4,75-19.8c7.1-1,12.7,2.2,19.5,3.3c11.2,1.8,22,6.4,32.5,9.4c8.6,2.4,17,6.6,25.5,9
	C-31.4,2140.8-24.4,2139.8-56.3,2130.3z"/>
</svg>
