<?xml version="1.0" encoding="utf-8"?>
<!-- Generator: Adobe Illustrator 25.0.0, SVG Export Plug-In . SVG Version: 6.00 Build 0)  -->
<svg version="1.1" id="Слой_1" xmlns="http://www.w3.org/2000/svg" xmlns:xlink="http://www.w3.org/1999/xlink" x="0px" y="0px"
	 viewBox="0 0 1920 2160" style="enable-background:new 0 0 1920 2160;" xml:space="preserve">
<style type="text/css">
	.st0{fill:url(#SVGID_1_);}
</style>
<linearGradient id="SVGID_1_" gradientUnits="userSpaceOnUse" x1="897.0302" y1="1632.8376" x2="897.0302" y2="2363.6643">
	<stop  offset="0.2996" style="stop-color:#CA7EAC"/>
	<stop  offset="0.4029" style="stop-color:#C28DB6"/>
	<stop  offset="0.5887" style="stop-color:#B2A1C5"/>
</linearGradient>
<path class="st0" d="M-125.9,1795.8c0.7-5.6,5.3-9.5,17.9-15.7c24.1-11.9,58.8-4.5,82.7,3.6c32.5,10.9,62.8,28.4,96.3,35.7
	c49.5,10.8,102.8-1.2,150.6,15.6c31.1,10.9,57.2,33.2,88.3,43.9c57.2,19.6,92.2-13.6,204.9-39.7c43.4-10.1,79.1-15.3,100.9-18.1
	c4.9,6.2,9.8,12.3,14.8,18.5c7.2,3.8,14.4,7.5,21.6,11.3c4.9,8,9.9,16,14.8,24c16.5,5.1,33.1,10.2,49.6,15.3
	c12.8,33.3,26.6,42.8,37.5,44.8c12.1,2.3,20.8-4.8,41.9-1.2c9.5,1.6,13.1,4,24.6,8c11.5,4,28.2,8.8,49.8,11.3
	c14.8-3.7,29.5-7.4,44.3-11.1c13.7-1.3,27.4-2.6,41.1-4c7.6,1.7,18.9,4.3,32.7,7.5c60.5,14,67.5,16.5,79.9,17.7
	c19,1.8,47.1,0.1,83.1-17.8c10.4-3.7,22.6-9,35.6-16.6c13.6-7.9,24.6-16.3,33.2-23.7c9-3.6,22.9-8.6,40.4-11.9
	c30.4-5.7,52.9-2.8,62.9-2.4c24.6,1.1,61.7-9,113.9-61.7c18.8,4,46.7,9.9,80.7,16.6c72.5,14.4,108.8,21.6,116.4,21.7
	c75.2,1.4,189.1-32.6,214.5-40.2c3.8-1.1,12.9-4.1,20.6,0.3c10,5.7,15.3,39.7,16.6,47.4c3.3,18.8,7.5,37.2,10.7,56
	c5.5,32.2,23.4,63.6,22.9,96.9c-15.9,9-31.9,17.9-48,26.6c-21.2,11.7-42.4,23.3-63.6,34.9c-16.2,7.2-32.9,13.2-49.5,19.6
	c-18,5.7-36.1,11.5-54.1,17.2c-49.6,15.2-99.2,30.4-148.8,45.5c-29.6,9-57.6,19.5-86.4,30.5c-71.8,10.3-143.9,18.3-216.2,24
	c-79.1,8.1-158.2,14.7-237.5,19.8c-42.7,0.6-85.4-2.4-128.2-1.4c-71.1,1.5-141.5,13-212.6,13.5c-34.1,0.2-67.5-3.7-101.3-7.6
	c-35.8-4.1-70.9-6.1-106.8-8c-49.3-2.6-96.9-3.3-146.2-0.2c-30,1.9-61.9-9.6-90.8-16.5c-22.6-5.4-46.1-13-69.6-14.6
	c-25.1-1.7-48.8-8.6-73-15.5c-21.1-5.1-41.5-12.1-61.2-21.1c-5.5-4.2-11-8.2-16.7-12.1c-21.4-15-43.8-29-65.5-43.5
	c-16.1-10.7-20.7-36-28.6-52.5c-8.4-17.4-21-36.6-22.5-56.4c-2.2-28.6,0.3-58.6,0.3-87.3c0-15.2-0.6-29.3-2.5-44.4
	c-1.4-11.5,0.7-21.5-3.8-32.3c-1.3-3.2-5-7.4-5.9-9.9c-1.8-4.8,0.1-10.3-1.2-15.4C-123.3,1808.4-126.5,1801.3-125.9,1795.8z"/>
</svg>
