<?xml version="1.0" encoding="utf-8"?>
<!-- Generator: Adobe Illustrator 25.0.0, SVG Export Plug-In . SVG Version: 6.00 Build 0)  -->
<svg version="1.1" id="Слой_1" xmlns="http://www.w3.org/2000/svg" xmlns:xlink="http://www.w3.org/1999/xlink" x="0px" y="0px"
	 viewBox="0 0 1920 2160" style="enable-background:new 0 0 1920 2160;" xml:space="preserve">
<style type="text/css">
	.st0{opacity:0.6;}
	.st1{fill:#365A7B;}
	.st2{fill:#4C6F93;}
	.st3{opacity:0.42;fill:#365A7B;}
	.st4{fill:#5D89AF;}
	.st5{fill:#78A4C4;}
	.st6{opacity:0.43;fill:#4C6F93;}
	.st7{fill:#87B5D7;}
</style>
<g class="st0">
	<path class="st1" d="M343.4,431.9l1.5,7c2.1,9.5-31,24.7-73.8,34.1c-42.1,9.2-78,9.3-81.2,0.3l-0.1,0l-1.5-7l2.8-0.6l0.4,2
		c7.4-9.2,36.3-21.1,72-28.9c35.7-7.8,66.9-9,77.5-3.8l-0.5-2.5L343.4,431.9z"/>
	<path class="st2" d="M343.3,431.9l-2.8,0.6l0.5,2.5c-10.6-5.3-41.8-4.1-77.5,3.8c-35.7,7.8-64.6,19.7-72,28.9l-0.4-2l-2.8,0.6
		c-2.1-9.5,31-24.7,73.8-34.1C304.3,423,340.2,422.9,343.3,431.9z"/>
	<path class="st2" d="M343.5,432.4c2.1,9.5-31,24.7-73.8,34.1c-42.8,9.4-79.2,9.3-81.3-0.2l2.8-0.6l0.4,2c7.4-9.2,36.3-21.1,72-28.9
		c35.7-7.8,66.9-9,77.5-3.8l-0.5-2.5l2.8-0.6C343.4,432.1,343.4,432.2,343.5,432.4z"/>
	<path class="st3" d="M343.3,431.9c0,1-0.1,2-0.1,3c-0.7,0-1.4,0-2.1,0c-10.6-5.3-41.8-4.1-77.5,3.8c-35.7,7.8-64.6,19.7-72,28.9
		c-0.3,0.5-0.7,1.1-1,1.6c-0.7-1-1.5-2-2.2-3c-2.1-9.5,31-24.7,73.8-34.1C304.3,423,340.2,422.9,343.3,431.9z"/>
	<path class="st1" d="M267.4,458.4c7.3-1.6,18.7-3.9,25-5.8c2.3-0.7,1.6-0.6,5.7-1.9c3.1-1,3.9-1.2,5-2.1c1.8-1.6,2.5-3.6,2.7-4.4
		c0.3-0.9,0.5-1.7,0.3-2.7c-0.2-1-0.8-1.7-1.6-2.7c-0.1-0.1-1.3-1.5-2.6-2.4c-3.5-2.4-9.5-2.7-10.9-2.8c-4.3-0.2-7.6,0.1-10.2,0.4
		c-8.7,0.9-17.4,2.4-26.1,4.3c-2.3,0.5-4.5,1-6.7,1.7c-2.8,0.9-5.4,2.2-8,3.4c-2.8,1.3-5.7,2.7-7.7,4.4c-1.4,1.2-2.4,2.5-3.1,3.8
		c-1.2,2.1-1.9,4.3-1.5,6.3c0.7,3.3,4,4.7,4.8,5.1c1.4,0.6,2.7,0.7,5.9,0.4c6.3-0.4,9-1,9-1C254,461.1,260.7,459.9,267.4,458.4z"/>
	<path class="st4" d="M292.5,443.5c0.3,1.3,0.5,2.6,0.6,3.8c0.1,1.1-0.6,2-1.6,2.3c-7.5,2.2-15.6,4.3-24.1,6.2
		c-8.5,1.9-16.7,3.3-24.4,4.4c-1,0.2-2.1-0.5-2.4-1.4c-0.4-1.2-0.8-2.4-1.1-3.7c-2-8.9,0.7-17.8,6.4-24.1c3.2-3.5,7.4-6.3,12.2-7.7
		c1.8-0.5,3.6-0.9,5.6-1.1c0.7-0.1,1.4-0.1,2.1-0.1c0.4,0,0.8,0,1.2,0C279.3,422.5,289.8,431.3,292.5,443.5z"/>
	<path class="st5" d="M249,452c4.6-3.3,9.2-6.9,12.1-11.7c2.4-4,3.4-8.6,4.8-13.1c0.5-1.5,1.4-3.3,3-3.1c0.8,0.1,1.5,0.8,1.8,1.6
		s0.3,1.6,0.2,2.5c-0.6,6.9-3.6,13.5-8.4,18.5c-3.6,3.7-8.3,6.5-13.3,7.9c-0.7,0.2-6.6,1.8-6.5,0.4c0.1-0.8,2.2-0.8,2.8-1
		C246.8,453.5,247.9,452.8,249,452z"/>
	<path class="st6" d="M292.5,443.5c0.3,1.3,0.5,2.6,0.6,3.8c0.1,1.1-0.6,2-1.6,2.3c-7.5,2.2-15.6,4.3-24.1,6.2
		c-8.5,1.9-16.7,3.3-24.4,4.4c-1,0.2-2.1-0.5-2.4-1.4c-0.4-1.2-0.8-2.4-1.1-3.7c-2-8.9,0.7-17.8,6.4-24.1c-0.1,0.2-0.1,0.3-0.2,0.5
		c-1.5,2.8-3.7,5.6-3.4,8.7c0.1,1.6,0.9,3.2,1.7,4.6c2.5,4.3,5.7,8.6,10.5,10c5.3,1.5,10.8-1.1,15.3-4.3c2.2-1.6,4.4-3.4,6-5.6
		c1.6-2.2,2.7-4.9,2.6-7.7c-0.1-1.5-0.5-3-1-4.4c-1-3-2.6-6-5-8.1c-1.5-1.3-3.4-2.3-5.4-2.6C279.3,422.5,289.8,431.3,292.5,443.5z"
		/>
	<circle class="st7" cx="205.5" cy="476.2" r="1.9"/>
	<circle class="st7" cx="332.5" cy="448.5" r="1.9"/>
	<circle class="st7" cx="309.8" cy="458.7" r="1.9"/>
	<circle class="st7" cx="246.9" cy="474.4" r="1.9"/>
	<circle class="st7" cx="276" cy="468.7" r="1.9"/>
</g>
</svg>
