<?xml version="1.0" encoding="utf-8"?>
<!-- Generator: Adobe Illustrator 25.0.0, SVG Export Plug-In . SVG Version: 6.00 Build 0)  -->
<svg version="1.1" id="Слой_1" xmlns="http://www.w3.org/2000/svg" xmlns:xlink="http://www.w3.org/1999/xlink" x="0px" y="0px"
	 viewBox="0 0 1920 2160" style="enable-background:new 0 0 1920 2160;" xml:space="preserve">
<style type="text/css">
	.st0{opacity:0.16;fill:#E19CB1;}
	.st1{opacity:0.26;fill:#F4AAB2;}
	.st2{opacity:0.16;fill:#9576AF;}
	.st3{opacity:0.23;fill:#9F75AD;}
</style>
<path class="st0" d="M1066.4,1711.5c-6.5-1.1-9.4-1.7-14.2-2.1c-7.3-0.7-12.8-0.6-14.2-0.5c-69.9,1.2-139.7-3.8-209.6-5
	c0,0-131-1.9-179.1-1.3c-7.5,0.1-10.3,0.2-18.6,0.1c-51.4-0.3-102.8-0.6-154.2-0.9c-12.8-0.1-26.4,0.1-37.1,7.1
	c46.7,11.1,84.9,14.6,110.6,15.8c52.2,2.5,81.6-3.1,148.8,2.5c5.6,0.5,76.7,6.6,76.7,15.4c0,3.9-13.9,6.1-63.3,22.2
	c-22.2,7.2-22.6,7.8-22.5,8.3c0.9,12.8,340.6-9.7,381.6-6.2c13.7,1.2,20.2,0.1,33.2-2.1c7.4-1.2,15.2-2.5,15.3-4.7
	c0.1-0.9-1.2-4.6-43.3-11.6c-41.4-6.8-73.4-8.7-85.5-9.5c-23.3-1.5-56.4-4-97.1-8.7c24-3.2,57.6-6.7,97.9-8.1
	c62.4-2.2,117.4,1.7,117.6-1.4c0.1-1.6-13.4-4.2-21.6-5.8C1081.2,1713.6,1081.8,1714.1,1066.4,1711.5z"/>
<path class="st1" d="M159.9,1727.4c24.1-1.7,48-5.3,72.2-5.4c47.2-0.2,112.4-3.1,156.4,15.5c-22.7,20.9-69.7,17.9-98.6,18.6
	c-37.1,0.9-74.1-2.8-110.9-6.6c-19.6-2-39.2-4.1-58.8-6.1c-16.1-1.7-34,1.5-49-5.5c23-10.4,50.5-8.9,75.1-9.7
	C150.8,1728,155.4,1727.7,159.9,1727.4z"/>
<path class="st2" d="M-34.2,1446.7c4.8-5.4,12.2-2.2,18.3-3.9c6.8-1.8,11.7-5.6,19.7-5.6c16.2,0,28.6-9.5,44.4,0
	c8.1,4.9,14.7,12.1,22.6,17.3c18.1,11.9,41.1,12.4,62.8,12.6c127.5,1.2,254.8,7.1,382.2,13.9c6.6,0.4,14.6,1.6,17.2,7.7
	c-11.8,4.3-23.5,8.6-35.3,12.9c-4,1.5-8.1,3.1-10.8,6.3c-11.7,14.3,38.8,14.2,44.4,14.2c32.5,0.2,64.7,1.2,97.2,3.4
	c30.6,2,61.3,2.2,91.7,5.7c12.1,1.4,32.4,1.3,43,7.8c14.8,9.1,1.9,14.8-12.2,17.9c-77,17-149.6,11.3-227.1,4.4
	c-81.4-7.3-162.8-9.5-244.5-9.9c16.1,3.8,32.2,7.7,48.4,11.5c-6.6-1.6-21.4,4.7-28.6,5.7c-12,1.6-24.1,2.3-36.2,2.5
	c-50.7,0.8-101.4-1.4-152.1-3c-26-0.8-52.1-1.5-78.1-1.4c-17.8,0-48.6,6.6-65.3-1.2c-4-1.9-6.6-5.6-10.2-8.1
	c-7.5-5.4-4.3-3.9-8.9-11c-5.1-8-17.2-13.9-26-16.6c-5.4-1.7-9.7-4.5-14.9-6.4c-7.8-2.9-17.2-3.1-25.4-4.6
	c-13.4-2.4-26.1-5.8-39.3-8.9c-9.1-2.1-17-7.9-26.3-9.7c-4.2-0.8-9.5,0.1-11.9-4.6c-5.9-11.4,8.7-15.5,15.7-17.1
	c3.7-0.9,7.5-2.3,11.1-3.2c5.8-1.6,9.6-5.7,15.6-6.6c5.9-0.8,11.7,0.9,17.5-0.5c6-1.4,11.4-1.7,17.5-2.7c6.7-1.1,11.1-3,18.1-2.9
	c6.1,0.1,12.3,0,18.4,0C-60.3,1462.3-41.8,1452.5-34.2,1446.7z"/>
<path class="st3" d="M1992.7,1606.7c-3.4-1.4-7.1-2.2-10.8-2.3c3.4,0.9,6.8,1.8,10.3,2.8c-53.2,6.3-104.4,11.4-157.9,11.3
	c-57.6,0-115.3-0.1-172.9-0.2c-71.6-0.1-142.8-6.7-214.4-7.5c-11.3-0.1-23.1-0.2-34.1,2.7c-29.4,7.5,19.6,22.5,28.2,24.5
	c31.6,7.1,63.2,14.3,94.8,21.4c1.2,0.3,2.4,0.6,3.3,1.4c3.7,3.5-2.9,8.5-8,9.2c-97.6,13.6-196.2,14.6-294.6,14.6
	c-6.6,0-13.3,0-19.8,1.3c-1.8,0.3-3.8,1-4.4,2.6c-0.5,1.2-0.1,2.5,0.4,3.7c2.9,5.9,10.6,7.4,17.2,8c52,4.4,105.1,1.8,157.3,4.9
	c54,3.2,108,7.2,162.1,8.9c29.3,0.9,58.6,1.8,87.9,2.7c35.6,1.1,68.7,5.3,104-3.7c-5.6,0.2-11.2-1.5-15.7-4.8
	c-1.6-1.2-3.2-2.7-3.7-4.7c-1.6-5.9,6.2-9.5,12.3-10.5c63.9-9.8,128.9-5,193.1-0.9c61.2,3.9,119.4,0.7,178.1-18.3
	c5.4-1.7,22-6.6,23.7-13c1.4-5.5-8.2-14.7-12.4-17.2c-17.7-10.8-37.1-6.5-55.4-1.7c-26.5,7-53.7,11.4-81,12.9
	c-6.8,0.4-16-1.7-15.8-8.5c0.1-3.3,2.8-5.9,5.4-7.9c7.3-5.6,15.8-9.5,24.8-11.5c4.7-1,10.8-2.8,11-7.6c0.1-2.5-1.6-4.7-3.4-6.4
	C1999.5,1610.2,1996.2,1608.1,1992.7,1606.7z"/>
</svg>
