<?xml version="1.0" encoding="utf-8"?>
<!-- Generator: Adobe Illustrator 25.0.0, SVG Export Plug-In . SVG Version: 6.00 Build 0)  -->
<svg version="1.1" id="Слой_1" xmlns="http://www.w3.org/2000/svg" xmlns:xlink="http://www.w3.org/1999/xlink" x="0px" y="0px"
	 viewBox="0 0 1920 2160" style="enable-background:new 0 0 1920 2160;" xml:space="preserve">
<style type="text/css">
	.st0{fill:url(#SVGID_1_);}
	.st1{opacity:0.16;fill:#E19CB1;}
	.st2{fill:url(#SVGID_2_);}
	.st3{fill:url(#SVGID_3_);}
	.st4{opacity:0.26;fill:#F4AAB2;}
	.st5{fill:url(#SVGID_4_);}
	.st6{fill:url(#SVGID_5_);}
	.st7{fill:url(#SVGID_6_);}
	.st8{opacity:0.21;fill:url(#SVGID_7_);}
	.st9{fill:url(#SVGID_8_);}
	.st10{opacity:0.36;fill:url(#SVGID_9_);}
	.st11{opacity:0.16;fill:#9576AF;}
	.st12{opacity:0.23;fill:#9F75AD;}
	.st13{opacity:4.000000e-02;fill:#9F75AD;}
	.st14{opacity:0.15;}
	.st15{clip-path:url(#SVGID_11_);}
	.st16{opacity:0.64;fill:#F9F2E4;}
	.st17{opacity:0.64;fill:#FFFFFF;}
	.st18{opacity:0.25;fill:#FFFFFF;}
	.st19{opacity:0.25;fill:#F9F2E4;}
	.st20{opacity:0.6;}
	.st21{fill:#365A7B;}
	.st22{fill:#4C6F93;}
	.st23{opacity:0.42;fill:#365A7B;}
	.st24{fill:#5D89AF;}
	.st25{fill:#78A4C4;}
	.st26{opacity:0.43;fill:#4C6F93;}
	.st27{fill:#87B5D7;}
	.st28{opacity:0.53;fill:#E9E2CE;}
	.st29{opacity:0.83;fill:#E9E2CE;}
	.st30{fill:#E9E2CE;}
</style>
<linearGradient id="SVGID_1_" gradientUnits="userSpaceOnUse" x1="960" y1="-313.7382" x2="960" y2="2244.0776">
	<stop  offset="6.220051e-02" style="stop-color:#1C1C35"/>
	<stop  offset="0.2933" style="stop-color:#25243F"/>
	<stop  offset="0.3631" style="stop-color:#282644"/>
	<stop  offset="0.442" style="stop-color:#2D2B4C"/>
	<stop  offset="0.4874" style="stop-color:#2E2E51"/>
	<stop  offset="0.5573" style="stop-color:#33375D"/>
	<stop  offset="0.635" style="stop-color:#384470"/>
	<stop  offset="0.6647" style="stop-color:#48497A"/>
	<stop  offset="0.7675" style="stop-color:#7E5E9E"/>
	<stop  offset="0.8256" style="stop-color:#A66FA1"/>
	<stop  offset="0.8731" style="stop-color:#C47DA4"/>
	<stop  offset="0.8979" style="stop-color:#D485A5"/>
	<stop  offset="0.9135" style="stop-color:#D792AC"/>
	<stop  offset="0.9437" style="stop-color:#E0B4BC"/>
	<stop  offset="0.9853" style="stop-color:#F0E5D0"/>
	<stop  offset="1" style="stop-color:#F6F6D5"/>
</linearGradient>
<rect class="st0" width="1920" height="2160"/>
<path class="st1" d="M1066.4,1711.5c-6.5-1.1-9.4-1.7-14.2-2.1c-7.3-0.7-12.8-0.6-14.2-0.5c-69.9,1.2-139.7-3.8-209.6-5
	c0,0-131-1.9-179.1-1.3c-7.5,0.1-10.3,0.2-18.6,0.1c-51.4-0.3-102.8-0.6-154.2-0.9c-12.8-0.1-26.4,0.1-37.1,7.1
	c46.7,11.1,84.9,14.6,110.6,15.8c52.2,2.5,81.6-3.1,148.8,2.5c5.6,0.5,76.7,6.6,76.7,15.4c0,3.9-13.9,6.1-63.3,22.2
	c-22.2,7.2-22.6,7.8-22.5,8.3c0.9,12.8,340.6-9.7,381.6-6.2c13.7,1.2,20.2,0.1,33.2-2.1c7.4-1.2,15.2-2.5,15.3-4.7
	c0.1-0.9-1.2-4.6-43.3-11.6c-41.4-6.8-73.4-8.7-85.5-9.5c-23.3-1.5-56.4-4-97.1-8.7c24-3.2,57.6-6.7,97.9-8.1
	c62.4-2.2,117.4,1.7,117.6-1.4c0.1-1.6-13.4-4.2-21.6-5.8C1081.2,1713.6,1081.8,1714.1,1066.4,1711.5z"/>
<linearGradient id="SVGID_2_" gradientUnits="userSpaceOnUse" x1="1062.8462" y1="1588.8188" x2="1062.8462" y2="2218.6582">
	<stop  offset="0.2744" style="stop-color:#D6AB9A"/>
	<stop  offset="0.3298" style="stop-color:#DFB6A5"/>
	<stop  offset="0.4063" style="stop-color:#E8C1B0"/>
	<stop  offset="0.4417" style="stop-color:#EAC1B3"/>
	<stop  offset="0.477" style="stop-color:#F1C3BA"/>
	<stop  offset="0.4929" style="stop-color:#F6C4BF"/>
</linearGradient>
<path class="st2" d="M-233.9,1770.8c0.5-0.1,1-0.1,1.5-0.1c11.9-1,30.8,2.1,44.2,2c29.6-0.2,101.2-13.8,190-15.5
	c24.9-0.5,16.4,1,97.6,2.4c34.3,0.6,62.4,0.7,81,0.8c9.4,5,17.9,8.6,24.8,11.3c8.6,3.3,21.3,7.7,37.2,11.3c4.2,1,13.5,2.9,25.6,4.5
	c7.5,1,14,1.5,19.3,1.8c13.9,3.7,27.9,7.4,41.8,11.1c14.7,5,33.9,10.3,57.2,13.6c27.4,3.8,51.1,3.5,68.6,2.3
	c18.7-4.5,37.5-9.1,56.2-13.6c7.5,2.4,50.4,16,82,25.7c30.2,9.2,19,5.3,25.7,7.5c15.3,5,20.3,7.7,28.6,7.5c9.4-0.2,16.3-4,22.6-7.5
	c12.2-6.9,30-17.6,51.8-32.4c6.2,1.8,39.7,10.6,71.6-3.5c13.3-5.9,21.7-13.7,26.6-19.1c7.3-3.1,14.6-6.3,21.9-9.4
	c9-3.9,17.9-7.8,26.7-11.7c8.2-6.3,16.5-12.6,24.7-18.9c6.1-0.1,14.9-0.8,24.8-3.7c7.7-2.2,13.8-5.1,18.1-7.5
	c6.8,5.6,16.8,13.9,30.4,22.7c8.3,5.3,16.6,10.6,24.8,15.8c21.9,14.8,41.5,26.6,57.2,35.5c10.2,5.8,15.2,8.9,21,11.3
	c25.8,10.9,33.3,9.6,66.7,21.2c8.1,2.8,20.1,7.2,34.6,12.5c6.7,2.5,12.2,4.5,15.9,5.8c19.2,3.3,38.5,6.7,57.7,10
	c46.2,2.2,92.3,4.4,138.5,6.7c42.9,11.4,85.8,22.8,128.7,34.2c36.7-5.7,62.4-13.8,79-20c35.5-13.3,57.8-14.6,57.7-20.8
	c-0.1-3.8-5.2-6.9-7.6-8.3c-35.2-19.6-120.3,4.3-119.5,7c0.7,2.3,61.8-7,101.2-15.4c51.4-11,91.5-26,118-37.4
	c34.3-5,68.6-10.1,102.9-15.1c28-8.6,55.9-17.1,83.9-25.7c41.8,16.9,76.8,26.3,101,31.7c54,12.1,60,5.8,89.6,18.1
	c12.2,5.1,27.5,13,44,9.1c12.3-2.9,12.5-10,27.4-11.8c9.6-1.2,14.1,0.2,34.8,0.1c4,0,11.6-0.9,15.3-0.3c9.8,1.6,15.3,14.2,19.2,19
	c10.7,13.2,19.3,26.8,30.5,40c12.9,15.1,26.1,30.2,39.2,45.3c17.3,19.9,36.7,39.4,54.9,59c9.9,10.7,21,21.4,30,32.4
	c9,11,13.9,22.9,24.3,33.5c9.1,9.3,24.2,16.7,31.2,26.3c8.2,11.3,13,24.1,13.4,36.2c0.2,4.9,1,11-0.8,15.6
	c-2.6,6.2-12.9,10.1-21.5,13.5c-37.3,14.5-79,20.5-120.5,29.1c-45.8,9.5-89.2,25-132.8,37.4c-64.5,18.4-132.9,32.5-200.5,46.4
	c-48.4,10-96.1,21.6-145.4,30.1c-35.6,6.2-71.8,11-107.5,17.1c-95.7,16.4-194.2,24.1-293.5,29c-149.3,7.3-299,9.1-448.6,13.5
	c-119.4,3.5-238.7,2.9-358.1,7.9c-67.8,2.9-136.1,5.3-203.9,1.9c-147.9-7.3-291.5-31.5-437.3-46.5c-24-2.5-48.2-5.4-72.3-7.4
	c-55-4.6-112.4-4.8-167.3-8.5c-27.7-1.9-61.3-1.5-85-11.8c-14.7-6.3-13.3-11.9-16-20.9c-4.3-14.1-17.7-27.5-25.1-41.2
	c-7.7-14.2,0.5-23.3,7.6-37.7c5.8-11.9,11-23.8,17.1-35.6c5.1-9.8,6.2-21.2,8.9-31.4c3.1-11.6,7.7-23.5,9-35.3
	c2.6-23.1,5.3-46.3,8-69.4c3.9-33.4,7.6-67.1,7.5-100.6c-0.1-11.7,0-23.4,0-35.2c0-12.5,3.5-24.6,4-37.1c0.4-11.4-1.3-23-0.2-34.4
	c0.3-2.9,0.9-7,4.7-9.2c5.2-3.1,15.6-4.5,22-6.5C-255.4,1777.9-244.2,1772-233.9,1770.8z"/>
<linearGradient id="SVGID_3_" gradientUnits="userSpaceOnUse" x1="774.7162" y1="1608.8606" x2="774.7162" y2="2086.7441">
	<stop  offset="0.4322" style="stop-color:#F29BAD"/>
	<stop  offset="0.4803" style="stop-color:#F3A2B0"/>
	<stop  offset="0.6663" style="stop-color:#F7BBBA"/>
	<stop  offset="0.7716" style="stop-color:#F8C3BD"/>
</linearGradient>
<path class="st3" d="M-203.5,1758.6c-4.7-3.6-11.5,0.1-14.3-1.9c-3.8-2.7,5-9.9,5.9-10.6c16.9-13.7,95.4-16.2,121.5-16.8
	c15.9,6.3,37.1,13.4,63.4,19.5c30.3,7,57.8,10.3,78.9,11.9c3.1,4.2,7.4,10.3,11.8,17.8c21.1,35.9,14.8,51.9,28.7,56.4
	c12.4,4,40.1-1.2,106.8-39.7c15.7,3.2,31.4,6.5,47.1,9.7c19.4,9.1,38.7,18.2,58.1,27.3c9.8-3.8,19.5-7.5,29.3-11.3
	c23.8-11,47.6-22,71.5-33c7.9,2.5,20,5.4,34.8,4.7c6.3-0.3,12.9-1.1,30.6-5.8c11.3-3,26.7-7.4,44.8-13.7
	c5.5,8.3,10.9,16.5,16.4,24.8c0.4,5.7,1.7,12.9,4.9,20.7c8,19.6,23,30,29.7,34.1c8.7,6.5,17.4,13.1,26.1,19.6
	c4.6,11.7,9.2,23.3,13.7,35c12.3-2.1,27.8-3.8,45.6-3.6c17.3,0.1,32.3,2,44.3,4.1c11.4-2.8,27.2-5.9,46.2-7.6
	c21-1.9,35.3-3.2,53.8,0c14.1,2.4,35.5,8.2,53.6,14.3c9,3,18.4,6.5,29.4,3.3c8.7-2.5,14.7-8.1,18.3-12.3c5.7,1.4,12.8,2.7,21.1,3.2
	c4.9,0.3,12.6,0.8,21.1-0.5c18.7-2.9,24.9-12,59.6-25.6c0,0,0,0,0,0c14.3-5.7,35.3-13.7,61.7-22.1c17.2-2.9,34.3-5.9,51.5-8.8
	c15.3-16.1,30.6-32.2,45.9-48.3c9.5-6.3,19-12.7,28.5-19c9.8,0.5,19.5,1.1,29.3,1.6c8.7-4.7,17.4-9.5,26.1-14.2
	c11.6,5.3,23.2,10.5,34.8,15.8c68.3,41,106.3,43.1,121.8,42.4c5.1-0.3,25.7-1.7,49.8-4.1c17.6-1.8,32.1-3.5,41.9-4.8
	c9.2,3.4,18.5,6.9,27.7,10.3c21.1-0.5,42.2-0.9,63.3-1.4c8.1-3.5,21.5-8.7,38.5-13.1c31.6-8.1,48.1-6,78.6-11.6
	c13.4-2.5,33.4-7.2,57.5-16.9c26.5,5.3,53.1,10.5,79.6,15.8c6.1,1,16.4,2.3,29,1.6c26.9-1.6,37.6-10.8,55.3-5.3
	c10.4,3.3,21.5,11.1,20.7,17.4c-0.6,4.7-7.9,7.7-29,13.2c-40.6,10.5-55,10.3-55.8,15c-1.5,9.4,53.9,29.3,77.3,52.1
	c6.8,6.6,13.1,12.9,13.1,20.6c0,9.2-3.9,15.6-13.2,23.4c-15.7,13.2-36.4,25.3-55.3,37c-55.3,34.4-117.6,63.7-186.9,88.7
	c-68.2,24.6-148.3,40.9-227.1,50.2c-51.4,6.1-100.7,7.2-152.8,9c-50.3,1.7-100.4,4.3-150.4,7.3c-165.3,9.8-331.5,20.8-497.9,23.2
	c-103.4,1.5-207.1,1.4-310.5,1.4c-93.1,0-187.3,1.9-280.3-0.7c-104.5-3-212.9-8-313.2-25.5c-17.9-3.6-35.7-7.2-53.6-10.8
	c-12.8-4.5-26.4-7.8-41-9.8c-20.7-3.2-37.1-7.1-51.2-17.3c-13-9.4-10.6-17.2-4.8-28.3c10.9-15.3,24-30.1,39.3-44.2
	c23.6-23.6,43.3-48.1,59.1-73.5c1.4-7.2,1.3-14.2,3.4-21.4c10.1-21.5,22.4-42.7,36.7-63.5c5-8,10.7-15.9,17.3-23.5
	c14.9-17.3,33.8-33.7,39.6-53.1c1.2-3.9-0.6-5.5-1.7-10.1c-0.5-2.1-0.4-2.7-0.8-5.6C-200.1,1764.8-200.7,1760.7-203.5,1758.6z"/>
<path class="st4" d="M159.9,1727.4c24.1-1.7,48-5.3,72.2-5.4c47.2-0.2,112.4-3.1,156.4,15.5c-22.7,20.9-69.7,17.9-98.6,18.6
	c-37.1,0.9-74.1-2.8-110.9-6.6c-19.6-2-39.2-4.1-58.8-6.1c-16.1-1.7-34,1.5-49-5.5c23-10.4,50.5-8.9,75.1-9.7
	C150.8,1728,155.4,1727.7,159.9,1727.4z"/>
<linearGradient id="SVGID_4_" gradientUnits="userSpaceOnUse" x1="897.0302" y1="1632.8376" x2="897.0302" y2="2363.6643">
	<stop  offset="0.2996" style="stop-color:#CA7EAC"/>
	<stop  offset="0.4029" style="stop-color:#C28DB6"/>
	<stop  offset="0.5887" style="stop-color:#B2A1C5"/>
</linearGradient>
<path class="st5" d="M-125.9,1795.8c0.7-5.6,5.3-9.5,17.9-15.7c24.1-11.9,58.8-4.5,82.7,3.6c32.5,10.9,62.8,28.4,96.3,35.7
	c49.5,10.8,102.8-1.2,150.6,15.6c31.1,10.9,57.2,33.2,88.3,43.9c57.2,19.6,92.2-13.6,204.9-39.7c43.4-10.1,79.1-15.3,100.9-18.1
	c4.9,6.2,9.8,12.3,14.8,18.5c7.2,3.8,14.4,7.5,21.6,11.3c4.9,8,9.9,16,14.8,24c16.5,5.1,33.1,10.2,49.6,15.3
	c12.8,33.3,26.6,42.8,37.5,44.8c12.1,2.3,20.8-4.8,41.9-1.2c9.5,1.6,13.1,4,24.6,8c11.5,4,28.2,8.8,49.8,11.3
	c14.8-3.7,29.5-7.4,44.3-11.1c13.7-1.3,27.4-2.6,41.1-4c7.6,1.7,18.9,4.3,32.7,7.5c60.5,14,67.5,16.5,79.9,17.7
	c19,1.8,47.1,0.1,83.1-17.8c10.4-3.7,22.6-9,35.6-16.6c13.6-7.9,24.6-16.3,33.2-23.7c9-3.6,22.9-8.6,40.4-11.9
	c30.4-5.7,52.9-2.8,62.9-2.4c24.6,1.1,61.7-9,113.9-61.7c18.8,4,46.7,9.9,80.7,16.6c72.5,14.4,108.8,21.6,116.4,21.7
	c75.2,1.4,189.1-32.6,214.5-40.2c3.8-1.1,12.9-4.1,20.6,0.3c10,5.7,15.3,39.7,16.6,47.4c3.3,18.8,7.5,37.2,10.7,56
	c5.5,32.2,23.4,63.6,22.9,96.9c-15.9,9-31.9,17.9-48,26.6c-21.2,11.7-42.4,23.3-63.6,34.9c-16.2,7.2-32.9,13.2-49.5,19.6
	c-18,5.7-36.1,11.5-54.1,17.2c-49.6,15.2-99.2,30.4-148.8,45.5c-29.6,9-57.6,19.5-86.4,30.5c-71.8,10.3-143.9,18.3-216.2,24
	c-79.1,8.1-158.2,14.7-237.5,19.8c-42.7,0.6-85.4-2.4-128.2-1.4c-71.1,1.5-141.5,13-212.6,13.5c-34.1,0.2-67.5-3.7-101.3-7.6
	c-35.8-4.1-70.9-6.1-106.8-8c-49.3-2.6-96.9-3.3-146.2-0.2c-30,1.9-61.9-9.6-90.8-16.5c-22.6-5.4-46.1-13-69.6-14.6
	c-25.1-1.7-48.8-8.6-73-15.5c-21.1-5.1-41.5-12.1-61.2-21.1c-5.5-4.2-11-8.2-16.7-12.1c-21.4-15-43.8-29-65.5-43.5
	c-16.1-10.7-20.7-36-28.6-52.5c-8.4-17.4-21-36.6-22.5-56.4c-2.2-28.6,0.3-58.6,0.3-87.3c0-15.2-0.6-29.3-2.5-44.4
	c-1.4-11.5,0.7-21.5-3.8-32.3c-1.3-3.2-5-7.4-5.9-9.9c-1.8-4.8,0.1-10.3-1.2-15.4C-123.3,1808.4-126.5,1801.3-125.9,1795.8z"/>
<linearGradient id="SVGID_5_" gradientUnits="userSpaceOnUse" x1="951.3851" y1="1205.0786" x2="951.3851" y2="2231.3879">
	<stop  offset="0.55" style="stop-color:#80539C"/>
	<stop  offset="0.596" style="stop-color:#925CA0"/>
	<stop  offset="0.7304" style="stop-color:#C278AB"/>
	<stop  offset="0.8969" style="stop-color:#A6A0C5"/>
</linearGradient>
<path class="st6" d="M2171.7,1925.5c-12.1-14.9-19.2-28.5-23.3-41.1c-19.1-58-6.4-85.5-24.2-97.4c-11.3-7.6-24.8,0.6-99.4,36.5
	c-0.3,3-0.8,5.6-3.8,5.6c-0.7,0-0.9-1.8-1.6-3c-2,1-4.1,1.9-6.2,2.9c-0.9,0.9-1.9,1.7-3.2,2.1c0-0.1-0.1-0.3-0.2-0.4
	c-7.7,3.7-16,7.6-24.8,11.8c-1.7,0.8-3.2,1.5-4.8,2.3c-0.3,4.5-1.6,8.8-3,13.6c0,0.3-0.1,0.6-0.3,0.9c0.1-0.3,0.2-0.6,0.3-0.9
	c0.2-1.9-1.3-4.4-1.3-6.1c-1,3-3,5-3,8c-1-4-2-7-2-11c-1,4-2,7-4,10c-1.8-1.8-2-4.4-2.7-7c-6.5,3-11.9,5.4-16.6,7.4
	c-0.3,2.3-1.1,4.5-2.7,6.7c0-2,0-3.6-0.3-5.4c-11.2,4.6-18.2,6.7-26.9,8.6c-2,0.4-3.9,0.8-5.7,1.1c-0.2,3-0.7,5.9-2,8.6
	c-0.8-2.5-1-5.7-2.7-7.8c-0.6,0.1-1.2,0.2-1.8,0.3c-1,2.5-2.4,5.2-2.4,8.5c-3.4-1.3-4-4.5-4.7-7.6c-14.2,1.5-24.3,0.9-36.2,2.8
	c-0.8,3.2-1.1,6.5-1.1,9.9c-3.7-1.9-4.4-5.2-4.8-8.7c-5.2,1.2-11,2.9-17.6,5.6c-9.9,3.9-16.6,7.8-24.6,11.2c0,3.6,0,7.3,0,10.9
	c-3.8-1.5-4.1-5.4-5-9c-2,0.7-4.1,1.4-6.3,2c-0.3,2.7-0.5,5.5-1.7,7.9c0-2.7-0.9-4.9-1.8-7c-1.8,0.5-3.7,0.9-5.7,1.3
	c-3.4,0.7-6.2,1.1-8.7,1.4c-0.8,2.9-1.8,5.7-3.8,8.3c0.6-3-0.6-5.3-1.5-7.8c-6.1,0.4-11.4,0.5-22.4,2.8
	c-22.6,4.8-31.3,15.3-41.1,10.3c-3.5-1.8-1.9-2.8-13.2-14.5c-4.1-4.2-5.7-5.6-8.4-8.1c-1.4,0.8-2.8,1.3-4.4,1.3
	c0.5-1.5,1-2.8,1.4-4.1c-1-0.9-2.1-2-3.4-3.3c-10-10.1-10-11.4-14.2-13.7c-6.4-3.5-9.2-2.2-16.9-5.3c-7.3-2.9-12.5-7.3-15.9-10.8
	c-13.5-12.6-26.9-25.1-40.4-37.7c-2.6,1.5-6.4,4-9.7,8.2c-4,5-4.3,8.5-7.1,12.9c-2.3,3.6-6.7,8.3-15.6,11.9
	c-2.1,1.9-4.1,3.7-6.2,5.6c0.2,3.5,0.4,6.6-1.1,10.4c0-2-3-4-3-6c-3,3,0,12-6,9c-0.7-0.4-1.5-1.2-2.2-2.2c-3.2,2.9-6.3,5.7-9.5,8.6
	c-2.2,5.1-6.3,12.7-13.7,19.8c-3.2,3-6.5,5.5-9.7,7.6c-0.3,2.2-0.5,4.3-0.9,6.3c-0.7-1.5-1.5-3-2.2-4.5c-2,1.1-3.9,2-5.8,2.8
	c0,1.6,0,3.3,0,4.7c-0.5-1.5-1.2-2.7-2-3.9c-5.9,2.2-10.9,3.2-13.9,3.6c-7.3,8.8-14.4,17-21.3,24.4c-1,5-2.8,9.8-6.8,9.8
	c-0.6,0-1.1-0.3-1.7-0.8c-7.6,8-14.8,15-21.3,21.2c0,4.5,0,9.1,0,13.6c-1.8-3-4.3-5.3-6.1-8c-0.7,0.6-1.4,1.3-2.1,1.9
	c-12.3,11.1-22,19.1-30,24.8c-0.1,2.1-0.4,4.1-0.9,6.3c-1-1.3-1.9-2.5-2.8-3.7c-14,9.5-21.7,11.5-27.4,12.5
	c-12.8,2.2-13.9-1.2-45.7-2.2c-0.9,4.2-1.8,8.3-3.1,12.4c-2,9-2-4-9-1c-3,1-1-7-5-7c-2,0-3,6-4,4c-4-4-6-8-12-5
	c-0.4-1.2-0.8-2.4-1.2-3.7c-7.3,0.2-15.1,0.7-23.7,1.7c-5.4,0.6-10.4,1.3-15.2,2.1c-3.1,5.9-6.5,11.6-10.9,16.9c-3-3-4-9-6-10
	c-5-1-7,8-12,9c-6,1-2-5-3-8c-4,3-6,8-9,11c-1-3-1-5-2-8c-5,3-3,13-6,11c-3-1.6-4.6-4.9-5.8-8.6c-9.5,2.9-17.6,5.9-24.2,8.4
	c-3.3-1.2-7.3-2.4-11.7-3.6c-2.6,4.2-5.2,8.3-8.3,11.9c-3-8-5-7-13-7c1-3-2-6-3-5c-5,0-4,8-9,10c0-5.1,0.5-10.2,0-14.9
	c-10.1-0.4-17.8,0.4-27.8,1.5c-1.2,0.1-2.4,0.3-3.5,0.4c-1.5,4.4-2.1,9.2-2.7,14c-4-3-4-7-5-12c-3,1-3,7-7,6c-1.7,0-1.2-3.7-2.3-6
	c-0.5,0.1-0.9,0.1-1.4,0.2c-1.5,2.6-2.3,5.3-2.3,8.8c-3-2.3-3.8-5.1-3.5-8.1c-11.4,1.5-18.1,2.5-23.4,3.2c-0.4,3.6-1.5,7-2.1,10.9
	c-0.9-3.4-1-6.9-2.3-10.3c-2.8,0.4-5.4,0.6-8.6,0.8c-13.3,0.9-17.8-0.5-32.9-3.7c-0.2,2.9-0.7,5.6-2.3,7.1c-4,3-1-6-5-7c0,2-3,4-3,6
	c-2.5-2.5-2.7-6.1-3.8-8.9c-8.3-1.6-19-3.4-32.9-5.4c-5.4-0.8-10.2-1.4-14.4-2c-1.6,3.6-2.8,7.3-5.8,10.3c0-2,1-4,0-5c-3-1-3,5-6,4
	c-3-2-3-6-6-9c1,2-1,5-1,7c-6.4-3.2-11.5-8.3-18-11.8c-4-0.7-7.9-1.6-12.9-3c-1.4-0.4-2.7-0.8-4-1.2c-1.4,4-2.6,8-4.1,12
	c-3-4-6-8-7-13c0,2-2,2-2,4c-2-3-3-8-7-6c-1,1,0,5,0,7c-2.7-5.3-5.6-11.2-9.4-16.3c-10.2-5.3-18.8-10.9-25.6-15.9
	c-1.2,2.7-2.7,5.2-5,7.1c-1-3-2-5-2-8c-2,2-2,4-3,6c-1,0-3,0-3,0c-0.7-2.6-0.5-5.2-0.2-7.8c-4.6-0.1-9.9-0.9-15.5-2.8
	c-1.8-0.6-3.4-1.3-4.9-2c-0.6,1.7-1.6,3.1-3.4,3.7c-2,1,0-3-1-5c1,3-2,4-2,7c-5,0-2-4-3-6c-2,2-2,4-2,6c-3.3-5.3-5.7-11-8.7-16.2
	c-5.6-1.9-13.7-3.5-24.5-2.6c-41.1,25.6-68.1,25-84.9,19.9c-33.5-10-41.2-41.8-87.8-53.5c-3.8-0.9-7-1.6-9.9-2
	c-1.2,1.8-2.8,3.3-5.1,4.4c0.9-1.9-2.4-2.9-2.1-5.4c-0.3,0-0.6-0.1-0.9-0.1c-2.3,1.6-3.4,5.2-6,3.5c-1.1-1.1-1.9-2.9-2.6-4.8
	c-3.6-0.8-7.6-2-12.4-4.1c-24.9-10.9-40.1-31.3-49.1-46.9c-9.5-4.4-21.8-11.3-34.3-22.2c-8-7-12.1-12.1-16.2-16.5
	c-1.3,2.2-2.8,3.9-5.5,3.4c-2-1-2-8-5-11c0-1-2,5-3,4c-2.6-2.6-2.9-5.9-3.6-9.4c-9.9-4.8-16.7-4.1-35.9-9.6c-3.4-1-7.1-2.2-11.3-3.6
	c-1.8,2-3.8,4-6.2,5.6c-2.7-5.5-8.8-8.4-13.6-13.4c-2.7-1.2-5.6-2.6-8.5-4c-8.8-3.8-16.5-7.7-23.1-11.2c-1.8,2.6-3.6,4.7-5.8,4.7
	c-3.4,0-2.5-6.4-3.9-10.2c-0.9-0.6-1.9-1.1-2.7-1.6c-1.8,1-2.8,4.4-4.4,2.8c-2.2-1.5-3.3-4.5-3.7-7.9c-3.1-2-5.9-3.7-9.3-5.3
	c-1.6,2.9-3,5.8-4,9.2c-4.7-2.8-5-9.2-8.3-13.2c-9-1.8-15-0.5-23-2.4c-8.2-2-19.1-7.6-30.1-23.7c-3.7-5-7.5-10-11.4-15.1
	c-0.5,0.8-0.9,1.6-1.3,2.5c-3.9-2.4-3.5-6-4.2-9.4c-0.5-0.6-1-1.3-1.5-1.9c-3-3.7-6-7.4-9-11c-0.8-5.5-1.6-11.1-2.5-16.6
	c-2.4-3.7-4.9-7.4-7.4-11.1c-5.1-7.5-10.3-14.7-15.4-21.7c-1.6-5.8-3.2-11.6-4.7-17.4c-5-1.4-9.5-2.2-13.4-2.7
	c-4.8,5.7-10.2,3.1-16.7-1.1c-1,0-1.9-0.1-2.8-0.2c-0.7,3-1.8,5.8-4.4,8.1c0-3-3-4-2-7c-3-1-2,2-3,3c-1.1-2.9-2.3-6-3.8-9
	c-2.7-1.9-4.7-4-6.1-5.7c-0.9,0.2-2,0.5-3,0.7c-2.2,2-4.5,3.5-7.1,4c-1.1,0-1.8-0.9-2.3-2.1c-4.4,0.7-9.4,1.4-14.9,1.8
	c-0.9,0.1-1.9,0.1-2.8,0.2c-1.6,1.9-3.2,3.6-5,4.2c-3,1.3-5.7-1-8.4-4c-6.1-0.2-11.2-0.7-15.1-1.1c-1.8-0.2-3.3-0.4-4.7-0.5
	c-0.7,1.3-1.3,2.5-1.8,3.7c-1.7-1-2.8-2.7-3.7-4.5c-3.2-0.6-6.2-1.2-10.9-2c-0.5,1.8-1.2,3.5-2.5,4.5c-0.7-2-1.3-3.5-2-5.2
	c-1.4-0.2-3-0.5-4.8-0.7c-0.9-0.1-1.9-0.2-2.9-0.3c-3.8,3.1-7.9,5.8-11.3,9.3c0-3.1,0-6.9,0-10.3c-0.8-0.1-1.6-0.2-2.4-0.2
	c-2.3,3.1-3.8,7-7.6,8.5c-0.6-3.4-1.3-6.6-2.1-9.9c-0.3-0.1-0.7-0.1-1-0.2c-12.4-2.3-23.4,0.7-35,2.7c-1.3,4.2-2.9,8.3-4.9,12.4
	c-3.7-3.1-7-6.9-9.7-11c-9.3,0.2-17.2-0.6-24-1.6c-0.5,1.7-0.8,3.5-0.3,5.6c-3.8-0.6-5.2-3.6-6.4-6.7c-12.2-2.2-19.9-4.4-24.9-0.5
	c-5.9,4.6-4.7,15.4-1.4,24.7c4.3-6.9,8.2-11.6,10.8-11c5.5,1.3,4.3,27.2,0,27.7c-2.5,0.3-7.6-7.5-10.8-16.7
	c-4.7,7.7-9.9,18-14.1,26.8c3.4-4.8,7.6-8.8,12.2-8.8c2.7,0,3.5,1.3,12.7,6.6c12.7,7.3,17.8,8.6,17.4,10.6c-0.8,4-21.7,1-25.3,7.9
	c-2.6,5,6.6,9.6,7.9,17.2c2.4,13.8-23.6,25.7-43.5,38.9c-18.8,12.5-33.1,30.4-61.7,66.3c-30.8,38.6-46.2,57.9-41.5,72.2
	c10,30.7,71.4,26.6,78.3,55.4c4.8,20.1-23.3,29.3-41.5,76.2c-9,23.1-4.9,28-10.7,46.5c-21.5,68.8-104.8,88.1-97.3,111.8
	c9.5,30.2,148,12.6,161.4,49.5c7.7,21.2-31.4,45.1-22.5,54.4c13.6,14.3,119.6-27.2,123.5-20.1c0.5,0.8-0.2,2.9,1.6,5.4
	c1.1,1.4,2.8,2.5,6,4.1c5.6,2.8,12.6,3.8,18.9,5c13.6,2.7,27,5.7,40.2,9.4c13.6,3.8,26.6,8.9,40.6,11.5c17,3.2,34.6,5,51.7,7.8
	c39.1,6.5,77.7,13.8,117.4,17.3c40.5,3.6,81,7.1,121.5,10.4c21.3,1.7,42.3,5.4,63.7,6.3c33.3,1.4,67.9,0.3,101,0.2
	c68.4-0.1,136.9-0.5,205.4,0.1c103.3,0.9,206.7,4.5,310,6.3c83.8,1.5,167.6,2.5,251.4,3.2c33.6,0.3,67.3,1,100.9,0.1
	c78.3-2.1,156.8-6.9,234.9-11.7c75.9-4.7,148.2-18,219.6-39.7c39-11.9,80.5-24.3,118-39.5c17.8-7.2,34.6-15.7,51.7-24
	c26.2-12.6,53.5-24.3,77.8-39.3c21.8-13.4,44-28.2,58.5-47.5c4.7-6.4,10.4-14.5,13.2-22c2.7-7.2,1.2-15,1.2-22.4
	c0-15.4-4.9-31.6-14.6-44.9c-21.2-29.1-33.3-33.8-30.5-43.3c5.9-20.4,81.1-10.4,91.5-33.7C2214.4,1964.2,2191.7,1950,2171.7,1925.5z
	"/>
<linearGradient id="SVGID_6_" gradientUnits="userSpaceOnUse" x1="986.3151" y1="1106.38" x2="952.6225" y2="2297.2397">
	<stop  offset="0.7169" style="stop-color:#624998"/>
	<stop  offset="0.7721" style="stop-color:#7A5AA2"/>
	<stop  offset="0.8193" style="stop-color:#8B67AA"/>
	<stop  offset="0.827" style="stop-color:#886BAD"/>
	<stop  offset="0.8675" style="stop-color:#767AB9"/>
	<stop  offset="0.9035" style="stop-color:#6982C0"/>
	<stop  offset="0.931" style="stop-color:#6485C2"/>
</linearGradient>
<path class="st7" d="M2176.7,2086.6c-8-38.1-16-76.2-24.1-114.3c-2.1-9.9-4.5-20.3-11.7-27.4c-7.8-7.5-17-9.3-23.7-10.8
	c-33.4-7.5-31.3-16.3-57.9-21.9c-21.5-4.5-24.1,1-64.3,1.8c-3.3,5.1-6,6.4-13.1,0.9c7,5.5,9.8,4.2,13.1-0.9
	c-4.5,0.1-9.4,0.1-14.9,0.1c-2.3,0-4.3-0.1-6.2-0.1c-1.2,2.5-2.7,4.9-6,6c0-1.8-0.7-4-1.1-6.2c-4.9-0.2-8.2-0.4-11.1-0.6
	c-1.4,2.6-2.7,5.2-3.8,7.7c0-2.3,0-5.3,0-7.9c-0.5,0-1,0-1.6,0c-1.1,1.8-2,3.6-3.4,2.9c-1.2-0.4-1.8-1.5-2.2-2.7
	c-0.9,0.1-1.9,0.1-2.9,0.2c-2,0.2-4.4,0.4-7.2,0.7c-0.2,3.3,2.7,8.3-2.7,6.8c-1.4-0.7-3.4-3-4.8-5.8c-5.5,0.8-11.7,2.1-18.5,3.9
	c-1.3,2.4-2,5.1-2.7,7.8c-2-1-1-4-3-5c2,1,1,4,3,5c0.7-2.7,1.4-5.4,2.7-7.8c-5.1,1.4-10.5,3.1-16.1,5.4c-0.6,2.2-1.9,4.3-2.6,6.5
	c-1,1-4,0-4-3c0,3,3,4,4,3c0.7-2.2,1.9-4.3,2.6-6.5c-3.3,1.3-6.7,2.8-10.2,4.5c-1.4,2.8-1.6,6.2-3.4,8c-1,2-2.9-2.8-5.8-3
	c-0.1,0-0.1,0.1-0.2,0.1c-0.1,3.8-3,3.9-5.9,3.9c-6.4,4.5-10.5,8.7-14.2,12.6c3.3,1.8,6.4,4.1,9.1,1.4c2-2,3-6,3-10c0,4-1,8-3,10
	c-2.7,2.7-5.8,0.4-9.1-1.4c-2,2.1-3.9,4.2-6,6.1c-0.5,1.9-0.9,3.9-0.9,6.3c-1.2-1.2-1.7-2.4-2.1-3.7c-3.9,3.2-8.8,6.2-16,8.8
	c-3,1.1-5.6,1.9-8,2.4c-0.2,1.7,0,3.6,0,5.5c-2.6-1.8-6.8-1.2-7.8-4.4c-1.8,0.1-3.6,0.1-5.4,0c-1.6,2.5-4.1,4.3-4.8,7.4
	c-2.9-1.9-6.8-3-7.9-7.6c-1.8,0-3.8,0.1-5.9,0.2c0.5,1.2,1.3,2.3,1.9,3.4c2,1,3-1,3-3c0,2-1,4-3,3c-0.5-1.1-1.4-2.2-1.9-3.4
	c-2.2,0.1-4.6,0.4-7.2,0.7c-1.6,2.5-2.2,5.3-2.9,8.7c-1.7-3.4-7.1-3.2-8.6-6.9c-8.1,1.5-14.2,3.2-19.1,4.9c-0.5,2.3-1.2,4.4-3.3,6
	c-2,1-3-2-4-2c-2,2-3,5-3,8c-2,0-1-4-4-3s-1,7-4,5c-1.6-0.8-3.7-2.8-5.1-5.1c-3.8,1-8.3,1.8-14.2,2.2c-5.1,0.3-9.4,0.2-13.3-0.1
	c-0.8,1.2-1.4,2.4-1.4,4c-2.4-2.4-5.9-3.5-8.8-5.3c-3.2-0.6-6.3-1.1-9.7-1.6c-1.2,2.2-2.4,4.3-4.5,5.9c-1-1-1-4-3-3c-1,1-1,4-2,4
	c-2.7-1.8-6.1-3.6-6.9-7.5c-0.4,0-0.7,0-1.1,0.1c-1.2,3.5-2.7,7.1-5,10.4c-1,1-3-2-4-2c-7,1-11,9-17,1c-1-1-4,2-3,5
	c-2.1-1.6-4-3.2-5.7-5c-2.7,1-5.7,2-9.4,3c-1.2,0.3-2.4,0.6-3.6,0.9c0.1,2.4,0.4,4.8,0.7,7.1c-4-1-6-3-9,0c0-1.9-0.4-3.9-1.5-5.3
	c-1,0.1-2.1,0.3-3.1,0.4c-0.9,1.6-2.7,2.7-3.4,4.9c-0.6-1.4-1.2-3-1.9-4.6c-4.3,0.1-8.2-0.1-12.2-0.5c-0.7,2.4-1.5,4.7-2.8,6.1
	c-2,1-2-3-3-4s-2,0-2,2c-3,0-3-2-3-4c-1,1-1,3-2,3c-1.1-1.5-1.7-3.3-2.2-5.2c-6.4-0.9-13.5-1.8-22.3-2.2c-0.6,1.3-1.2,2.7-1.5,4.3
	c-0.7-1.5-1.5-3-2.2-4.4c-0.8,0-1.5,0-2.3,0c-2.5,3-2.6,7.3-3.4,11.5c-3-2-3-8-6-7c-2,1,0,7-2,10c-0.9-4.7-4.6-8.6-5.8-14
	c-8.5,0.4-17.3,1-26.2,2.2c-0.3,2.5-0.5,4.9-1,6.8c-3-1-3.7-3.7-4.2-6c-2,0.3-4,0.7-6.1,1.2c-0.5,2.5-0.7,5.4-1.7,7.8
	c-0.4-2.1-0.8-4.7-1.5-7.1c-9.7,2.4-19.6,5.9-29.6,11.5c-0.4,0.2-0.8,0.5-1.3,0.7c-1.4,3.4-2.6,6.8-3.7,9.9
	c-1.6-1.6-2.6-3.5-3.4-5.4c-1.9,1.3-3.6,2.7-5.2,4c-1.3,3.4-2.4,6.8-2.4,10.5c-2.8,0-3.8-1.7-4-4.3c-0.3,0.3-0.6,0.7-0.9,1
	c-0.3,1.7,0.6,3.3-0.1,3.3c-1,0.1-1.8,0.1-2.5-0.2c-3.2,4-5.9,7.8-9.8,11.5c0.1,5.3,0.2,10.6,0.2,15.7c-3.7-2.2-6.4-5.6-7.9-9.7
	c-0.1,0.1-0.3,0.2-0.4,0.3c0.9,3.1,2.3,6,2.3,9.4c-4,0-8-2-8-6c0,4,4,6,8,6c0-3.4-1.4-6.3-2.3-9.4c-1.3,0.8-2.7,1.6-4.2,2.4
	c-5.3,2.8-10.3,4.5-15.2,5.5c-0.1,2-1,3.9-3.3,5.6c-2,3-6-4-10-3c-2,1,0,4-2,6c-1.6-4.7-7.5-5.7-9.4-8.9c-0.9-0.2-1.9-0.3-2.8-0.5
	c0,2.5,0.2,4.9,0.2,7.4c-3.1-2.3-5-5.2-6.6-8.7c-3.9-0.8-8-1.8-12.2-2.7c-2.7,1.5-5.2,3.3-7.2,3.3c-3.3,0.7-2.2-2.2-1.7-5
	c-1.5-0.2-3-0.5-4.6-0.7c-1.3,1-2.8,1.7-4.7,0.7c-0.4-0.4-0.8-0.9-1.2-1.4c-5.8-0.6-12.1-0.9-18.9-0.7c-0.8,2.1-1.6,4.1-2,6.2
	c-1.8-1.8-3.5-3.5-3.9-5.9c-0.6,0-1.3,0.1-1.9,0.1c-1.5,2.1-0.6,5.8-2.2,5.8c-2.3,0.8-3.4-2.6-5.2-5.1c-1.2,0.1-2.4,0.3-3.7,0.5
	c-0.5,0.1-0.9,0.1-1.4,0.2c-1.1,2.7-2.8,4.6-3.8,7.4c-0.9-2.2-2-4.3-2.9-6.3c-23.5,4.6-28.2,12.4-47.3,18.5
	c-0.3,1.9-0.9,3.7-2.8,4.8c-1.9,0.6-3.3-1.1-4.9-2.7c-1,0.2-2,0.5-3.1,0.7c0,2.4,0,4.9,0,7c-2.7-0.9-7-1.8-7.1-5.6
	c-0.7,0.1-1.4,0.2-2.2,0.4c-0.3,4.8,0.4,9.9-0.7,14.3c-4.2-3.3-4.2-8.7-6.4-13.3c-0.4,0.1-0.9,0.1-1.3,0.1c-2.3,2.7-6.6,5-9.4,3.2
	c-0.8-0.5-1.5-1.3-2.2-2.2c-1.2,0.1-2.3,0.1-3.4,0.2c-2.4,2.1-5.9,2.6-7.5,5c0-1.6,0.3-3.3,0.2-4.9c-3.7,0-7.1-0.2-10.4-0.4
	c-1,1.4-1.9,2.9-2.9,4.3c0-1.3,0-3,0-4.5c-13.6-1.1-24.1-3.2-39.6-1c-0.4,1.6-1,3.1-2.4,4.6c-1-1-1.5-2.4-2.1-3.8
	c-2.2,0.4-4.5,0.9-6.9,1.5c0,3.2-0.1,5.9-1,9.4c-1.7-3.3-4.7-5.3-8-7c-3.5,1-7.3,1.9-11.2,2.7c0.2,2.4,1.6,4.6-0.8,6.2
	c-1.3-2-2.6-3.5-3.4-5.5c-6.9,1.1-14.3,1.4-22.1-0.1c-0.6,1.6-1,3.2-1.5,4.6c-1.7-1.7-2.7-3.5-3.6-5.9c-0.2-0.1-0.5-0.1-0.7-0.2
	c-3.7-1.2-6.8-2.6-10.5-3.6c-2.4,1.6-4.6,2.7-6.2-1.3c1.6,4,3.8,2.9,6.2,1.3c-2.4-0.7-5.1-1.3-8.5-1.6c-1.3-0.1-2.6-0.2-3.8-0.2
	c-1.6,1.6-2.7,3.5-4.9,0.6c2.2,2.9,3.3,1,4.9-0.6c-2.5,0-4.7,0.2-6.8,0.6c-0.4,1.3,0.6,3.2-0.2,4c-1.9,0-5.7,1.8-7.8-1.6
	c-0.1,0.8-0.2,1.6-0.2,2.6c-1,1-2-2-4-1c2-1,3,2,4,1c0-0.9,0.1-1.8,0.2-2.6c0,0-0.1-0.1-0.1-0.1c-4,1.4-8.3,3-14.2,3.9
	c-1.3,0.2-2.4,0.3-3.7,0.3c-2.3,1.3-4.4,2.7-6.2,4.5c-0.5-1.6,0-3.4,0.3-5.2c-0.4-0.1-0.8-0.2-1.3-0.2c-1.6,1.1-3.2,2.7-4,4.4
	c-1.1-2.5-2.6-4.5-4.4-6.2c-0.3-0.1-0.5-0.1-0.8-0.2c-5.1,2.9-8.3,5.8-10.8-2.6c-0.5-0.1-1.1-0.3-1.7-0.4c-0.6,1-1,2-1.3,3.4
	c-2.8-0.9-2.1-3.6-4.4-4.8c0,0,0,0-0.1,0c-4.9,2.2-10.3,1.2-13.7-2.6c-0.4,1.5-0.8,3-0.8,4.4c-1.4-1.4-1.3-3.7-1.8-5.7
	c-1.7-0.4-3.2-0.8-4.6-1.1c-0.9,2.3-2.8,4.5-3.5,6.8c-1.3-2.6-0.9-5.2-0.8-7.8c-6.3-1.5-9.8-2.3-12.2-2.8c0.2,1.6,0.6,3.3,1.9,4.6
	c0-1,0-2,0-3c0,1,0,2,0,3c-1.3-1.3-1.8-3-1.9-4.6c-2.4-0.5-3.4-0.6-4.8-0.8c-2.6-0.3-5-0.4-7.2-0.4c-0.9,2.2-2.1,4.3-2.1,6.8
	c-1.2-1.8-1.3-4.4-1.7-6.8c-0.2,0-0.3,0-0.5,0c-0.3,1.6-1.3,3.2-2.9,4.8c0.5-1.5,0.2-3.1-0.2-4.6c-1.2,0.1-2.4,0.2-3.5,0.4
	c0.4,2.3,0.7,4.6,0.7,7.2c0-2.4-3.1-4.1-3.9-6.7c-4.3,0.8-7.9,1.9-11.9,2.6c-0.4,2-0.7,4.1-0.1,6.1c-0.7-2.2-2.5-3.8-3.4-5.7
	c-2.4,0.2-5.1,0.2-8.2,0c-6.4-0.6-6.7-1.8-42.5-22.4c-0.5,1.3-1.2,2.5-2.9,3.1c-0.6-1.7-1.1-3.8-1.7-5.8c-2.7-1.6-5.6-3.2-8.8-5
	c-0.9-0.5-1.7-1-2.5-1.4c0.6,1.3,1.4,2.6,2,4.2c0-1,0-1,1-1c-1,0-1,0-1,1c-0.5-1.6-1.3-2.9-2-4.2c-3.3-1.9-6.2-3.5-9-5.1
	c-0.5,1-1.2,1.8-2.1,2.3c-2-2.6-4.3-4.8-6.3-7.1c-1.7-1-3.5-2-5.3-3.1c-1.1,1.3-2,2.5-3.4,3.2c0-2,0-3.5,0-5.2c-1-0.6-2-1.2-3-1.8
	c-1.2,0.5-2.4,0.6-4,0.1c-0.8-0.8-1-1.7-1-3.1c-2.2-1.4-4.4-2.7-6.5-4c-0.5,1-1.2,2-2.1,2.8c-0.1,0.1-0.3,0.2-0.4,0.4
	c0.2-0.1,0.3-0.2,0.4-0.4c1.3-1.2,0.5-2.7-0.1-4.2c-5.1-3.2-9.6-6.1-13.3-8.6c-0.9,0.1-1.9,0.2-3,0.3c0,1.1,0.1,2.3-1,2.9
	c0-0.8-1.2-1.5-1.3-2.7c-4.4,0.2-9.6,0-15.4-1.1c-0.4,1.6-0.4,3.4-0.4,4.9c-1.4-2.1-2.8-3.7-3.8-5.8c-4.7-1.2-8.7-2.8-12.4-4.8
	c-0.4,1.4-0.6,2.7-1.7,1.6c-0.7-0.7-2.4-2.4-3-4.3c-3.5-2.2-6.6-4.7-9.7-7.3c-0.9,1-1.3,2.3-1.3,3.6c-1.5-2.9-2.9-5.3-3.6-7.9
	c-2.8-2.5-5.7-5.1-8.8-7.7c-1.8-1.5-4-3.3-6.5-5.3c-0.6,0.9-1.1,1.8-1.1,2.8c-1.7-1.7-1.3-3.3-1.6-5c-2-1.5-4.1-3.1-6.4-4.7
	c-0.4,0.9-0.7,1.8-1,2.7c-1.9-0.9-1.1-2.8-1.9-4.7c-5.7-3.8-12-7.7-18.9-10.8c-0.1,0.8-0.2,1.6-0.2,2.5c-1.6-1.1-2.6-2.5-3.1-4
	c-2.5-1.1-5.1-2-7.7-2.8c-0.2,1.9-0.2,3.8-0.2,5.8c-1.9-2.5-4.1-4.6-5.3-7.3c-2-0.5-4-0.9-6-1.1c-0.3,2.8-0.8,5.6-1.7,8.4
	c-1.4-2.7-2.2-6.3-4.2-9c-0.7,0-1.5,0-2.2-0.1c-0.9,3-3.2,4.7-5.6,7c0-2.1,0-4.4-0.1-6.8c-1.2,0.2-2.3,0.4-3.4,0.7
	c-1.7,1.9-4.3,3-7,3.1c-1.1,0.6-2.2,1.3-3.5,2c0,1-1,3-2,4c-0.5-0.5-0.7-1.4-1.1-2.3c-6.6,3.6-16.6,8.6-35.2,15.2
	c-6.6,2.3-12.5,4.2-17.8,5.8c-0.4,3.5-4,5.5-5,9.3c-0.8-2.4-2.2-4.7-3.2-7.1c-1.6,0.4-3.2,0.8-4.6,1.1c-1,2-2.1,3.7-2.1,5.9
	c-1.4-1.4-2.4-3.1-3.1-4.8c-16.2,3.1-23.2,1.5-26.6,0.4c-2.7-0.8-10.1-3.4-20.6-4.4c-0.2,0-0.3,0-0.5,0c-1.6,0.7-3.1,0.8-5.2-0.3
	c-0.9,0-1.8,0-2.6,0c-1.1,1.6-2.1,3.1-1.4,5.1c-1.3-1.3-2.2-3-3.2-4.9c-2.9,0.2-5.3,0.5-7,0.7c0,0-0.3,0-0.9,0.1
	c-0.4,2.4,0.1,5,0.1,7.1c-2.6-1.7-3.7-4.2-5.2-6.8c-1,0.1-2.1,0.1-3.3,0.1c-1.4,1.2-1.6,3.7-2.4,4.6c0-1.5-0.5-3-1.1-4.5
	c-7.8,0.1-18.3-0.2-28.8-2.1c-0.6,1-1,2.2-1,3.6c-1.7-1.1-1.5-2.6-1.1-4.1c-11.5-2.4-19.4-8.6-27.4-17c-1.1,1.4-2.2,2.8-3.5,4.1
	c0-2.6,0-5.2,0-7.8c-1.2-1.3-2.4-2.7-3.7-4.2c-2.1,1.8-4.1,3.2-5.3,2c-1.9-1.9-1-5.2-0.6-8.7c-1.5-1.7-3.1-3.4-4.7-5.2
	c-2-0.1-3-1.5-3.5-3.6c-2.6-2.6-7.3-7-13.8-12.6c-2.5,3.1-5.3,6.6-9.4,7c1-4,0-8-2-11c0-1-3,3-6,2c1.3-2.6,4.7-4.4,6.4-6.9
	c-1.5-1.2-3.1-2.3-4.7-3.5c-0.6,0.5-1.2,0.8-1.7,0.5c0-0.4,0-1.1,0-1.7c-1-0.7-2.1-1.5-3.1-2.3c-1.5,0.4-3.2,1-4.9,1
	c0-1.4,0.2-2.8,0.4-4.1c-3-2.1-6.1-4.2-9.4-6.3c-2.9,0.5-4.9-0.2-6.3-4c-1.1-0.7-2.2-1.4-3.4-2c-2.5,1.4-5.4,2.4-8.4,2.4
	c0-2.7,0-4.9,0-7.3c-3.1-1.7-6.2-3.4-9.4-5.1c-1.4,1.6-2.6,3.3-4.6,4.3c-0.9-2.6-4.1-5.3-4.2-8.6c-4.8-2.3-9.8-4.5-15-6.6
	c-1.3,1.6-2.3,3.7-3.8,5.2c0-2,0.5-4.5-0.2-6.9c-2.4-0.9-4.4-1.7-6.3-2.3c-0.2,0.4-0.4,0.8-0.6,1.2c-1.3,0.7-2.2-0.9-3-2.3
	c-3.1-0.9-5.7-1.5-8.4-2c-1.1,1.9-1.6,4.2-2.6,6.3c0-2.9-1.6-4.7-2.4-7.1c-5.4-0.8-12.3-1.7-24.3-4.3c-0.9,2.3-1.9,4.6-3.3,6.4
	c-0.7-2.2-0.9-4.9-1.4-7.4c-5.1-1.2-11-2.6-18-4.4c-5.8-1.5-11.2-3-16.3-4.4c-0.4,2,0,4.3-1.3,6.2c-1.4-2.1-2.8-4.2-3.9-6.4
	c-1.4,3.2-3.5,5.6-7.1,4.4c-3,0-2-5-2-8c0,3-1,8,2,8c3.6,1.2,5.7-1.2,7.1-4.4c-0.3-0.5-0.5-1-0.7-1.6c-3-0.9-5.8-1.7-8.5-2.5
	c-3.9,1.6-7.6,3.8-11.9,4.5c1.6-2.4,3.8-4.1,4.6-6.7c-6.1-1.9-11.5-3.8-16.5-5.5c-1,0.8-2.1,1.7-2.1,3.2c-0.5-1.6-1.3-3.2-2.1-4.8
	c-0.6-0.2-1.2-0.5-1.9-0.7c0,0.8,0,1.6,0,2.4c-4.5,3.7-9.5,0.8-10.9-3.8c-1.2,1.6-2.3,3.2-3.1,4.8c0-3.7-2.7-6.9-4.2-10.3
	c-4.8-1.8-9.1-3.4-13.3-4.8c-0.4,0.9-0.5,1.9-0.5,3.1c-2.1-1.4-3.2-2.8-4-4.5c-8.2-2.4-16.2-3.9-26.5-4.3c-2.1,3.8-3.6,8-5.5,11.8
	c0.8-3.2-2.3-5.8-3-8.7c0,0.6,0,1.2,0,1.7c0-0.5,0-1.1,0-1.7c-0.2-0.7-0.2-1.5,0-2.3c-0.2,0.8-0.2,1.5,0,2.3c0-1,0.1-2.2,0.3-3.2
	c-4.8,0-9.3,0-13.6,0.1c-0.9,2.5-1.9,5-3.8,6.9c0.8-2.5-1.1-3.6-1.8-5.7c-1.6,2.4-3.5,3.9-6.2,1.7c0,0-0.5-1.5-1.2-2.8
	c-2.9,0-5.6,0.1-8.2,0.1c-1.3,1.2-2.2,2.8-2.6,4.7c-1.1-1.4-2-3-2.9-4.6c-2.9,0.1-5.6,0.1-8.1,0.2c-0.1,0.7-0.1,1.5-0.1,2.4
	c-1.2-0.4-1.9-1.3-2.4-2.4c-6.1,0.1-10.8,0.3-14,0.4c-1.3,2.6-2.9,5.1-5.6,7c-1.3-2-1.8-4.4-2.2-6.7c-1.5,0.1-2.9,0.1-4.4,0.2
	c0.5,1.6,1.8,2.5,4.6,2.5c-2.8,0-4.1-1-4.6-2.5c-3.1,0.1-6.1,0.2-9.2,0.1c-3.5,4.4-5.6,10.5-11.2,12.4c1.8-4.5,2.2-8.8,1.5-12.9
	c-0.5,0-0.9-0.1-1.4-0.1c-9-0.9-15.8-2.4-22-4.1c-0.9,1.9-1.8,3.9-2.1,6.2c-1.2-2.7-2.6-5.4-4.1-8.1c-2.3-0.7-4.5-1.4-6.9-2.2
	c0,3.4,0,6.8,0,10.3c-4.5-2.7-5.7-7.8-7.4-12.4c-1.6-0.4-3.3-0.9-5.1-1.3c-12.8-2.9-14.8-1.4-49.8-2.4c-28.2-0.8-53.8-1.5-83.1-4.7
	c-32.2-3.6-53.3-8.5-55.8-2.4c-2.3,5.6,14.7,12.6,16.9,28.5c2.1,15.2-14.2,26.6-15.3,33.5c-10.1,65.2-19.8,134.3,5.6,195.2
	c14.3,34.3,38.7,63.3,55.2,96.6c40.5,81.7,37.2,193.1,113.7,242.8c31.2,20.3,69.8,25.1,106.9,29c504.4,52.3,1013.4,25.1,1519.3-9.9
	c129.9-9,266.8-20.9,373.6-95.2c74.9-52.1,130.4-132.3,213.9-169.1c14.6-6.5,31.5-13,37.4-27.8
	C2181.1,2108.3,2178.9,2097.1,2176.7,2086.6z"/>
<linearGradient id="SVGID_7_" gradientUnits="userSpaceOnUse" x1="1145.6323" y1="1675.3518" x2="1145.6323" y2="2105.8748">
	<stop  offset="0.6166" style="stop-color:#7F61A7;stop-opacity:0"/>
	<stop  offset="0.6902" style="stop-color:#7874B3;stop-opacity:0.1947"/>
	<stop  offset="0.8481" style="stop-color:#5E9CD0;stop-opacity:0.6129"/>
	<stop  offset="0.9943" style="stop-color:#2ABCE5"/>
</linearGradient>
<path class="st8" d="M469,2009.4c2.7,3.5,8.3,5,11.8,5.7c5.3,1.1,9.9,2.9,15.5,2.9c15.1-0.2,30.2,0,45.2,0c6.7,0,13.4-0.2,20-0.1
	c7.4,0.1,13.2,3,20.5,3c18.1-0.2,36.1,0,54.2,0c5.9,0,11.9,0,17.8,0c5.8,0,10,2.2,15.4,3c9.4,1.3,20.1-2.6,29.1,0.5
	c1.9,0.6,2.7,1.9,5.2,2.3c2.3,0.3,4.9-0.1,7.2-0.1c5.2,0,11.1-1,16.1,0.6c3.8,1.2,7.2,5.4,5.4,10.9c-2.4,7.6-10.6,3.5-14.4,10
	c-6.3,10.8,3.3,9.9,9.5,9.9c5.5,0,11.1,0,16.6,0c11.1,0,22.2,0,33.2,0c20.7,0,41.5,0,62.2,0c32.7,0,65.3,0,98,0
	c4.7,0,9.8-0.7,14.4,0.2c6,1.2,11.4,5,17.4,5.5c7.7,0.8,15.3,0.6,22.8,3.1c7.9,2.6,14.1,2.6,22.8,2.6c6.5,0,13.4-0.9,19.8,0.6
	c7.5,1.7,12.7,5.2,20.3,5.1c15.5-0.1,31,0,46.5,0c26.4,0,52.9,0,79.3,0c13.9,0,27.8-0.1,41.7,0c5.6,0,9.2-1.2,14.4-2.6
	c4.1-1.1,8.7-0.1,12.9-0.2c3.9-0.1,5.7-1.1,9.2-2.3c3.3-1.1,6.4-0.3,9.7-0.6c2.9-0.2,4.4-1.4,7-2.3c7.9-2.6,16.8-2.3,24.8-4.9
	c12-4,28-1.4,40.6-1.4c9.5,0,20.4,1.7,29.6-0.6c3.9-1,6.1-2.3,10.8-2.3c6.3,0.1,12.7-0.3,19-0.1c16.3,0.5,32.3,3,48.6,3
	c29.6,0,58.8,2.9,88.4,2.9c16.5,0,33,0,49.5,0c18.7,0,37.1-2.7,55.8-2.9c5.4-0.1,40,4.4,34.4-9.4c-2.3-5.6-8.5-7.6-12.6-10.4
	c-8.2-5.7-16.9-7.8-25.6-11.6c-8.7-3.8-17.5-0.9-26.2-3.5c-7.4-2.2-14.7-2.8-22.5-2.3c-9.2,0.6-26.2,10.1-32.6-2.6
	c-4.6-9.1,3.3-10,9.6-11.3c8.1-1.7,14.5,1.2,21.5-3.1c9.4-5.7,22.1-2.6,33.1-2.8c18.1-0.4,35.9-2.9,54-2.9c26.5,0,53-0.2,79.5,0
	c13.3,0.1,26.4-2.8,39.6-3c10.5-0.1,19.8-0.1,30.2-2.1c15.5-3,31.6,1.8,47-1.3c18.6-3.7,38-2.8,56.9-3.7c30.8-1.4,61.4-1.4,92.2-1.4
	c11.2,0,22.6-1,33.6,1.4c5.7,1.3,16.9-1.2,21.5,2.6c-6.3,18.1-15.5,36.2-28.7,48.1c-9.8,8.8-19.2,15.9-30.2,22.5
	c-17.2,10.3-35.1,19.6-54.4,19.8c-91.4,1-181.4,13.2-271.4,32.9c-34.4,7.6-71.7,9.9-106.6,11.5c-88.9,4-177.8,4.1-266.8,4.1
	c-35.6,0-71.3,1.1-106.9-1.5c-36.6-2.7-72.5-7.3-109.2-7.3c-26.9,0-53.2,3.3-80,5.5c-45.6,3.7-91.5-1.4-137.1,1.1
	c-47.9,2.6-95.7,8.1-143.7,7.9c-67.1-0.2-133.9,5.7-200.9,5.8c-49.3,0-98.3-3.4-147.6-2.8c-6,0.1-10.6-1.1-16.3-2.3
	c-8.8-1.8-17.6,0.3-26.4-2.6c-8-2.6-15.6-6.5-23.7-8.9c-8.7-2.5-17.6-3.7-26.2-6.4c-11.8-3.8-23.7-1.4-35-5.8
	c-1.4-0.5-2.7,0.7-4.2-0.1c-4-2-8.8-7.2-12.6-9.4c-4.9-2.8-8.1-5.5-12.6-8.9c-2.1-1.6-8.5-3.7-10.3-6.6c-1.7-2.7-0.6-3.9-1.3-6.4
	c-1.9-6.9-4.5-14.1-7.3-20.6c-3.2-7.3-2.7-16.6-2.3-25.2c0.2-4.4,0.6-9.1,4-11.2c4.2-2.6,8.7-2.5,13.1-5.8c10-7.5,22.3-15.2,34-18.2
	c3-0.8,6.2-0.9,9.1-1.9c3.4-1.2,6-3.9,9.3-5.2c9-3.7,19.5-3.6,28.9-3.4c12.5,0.2,22.2-8.7,34.5-8.6"/>
<linearGradient id="SVGID_8_" gradientUnits="userSpaceOnUse" x1="874.8588" y1="1532.9884" x2="874.8588" y2="2447.155">
	<stop  offset="0.5539" style="stop-color:#7F61A7"/>
	<stop  offset="0.6285" style="stop-color:#716DAE"/>
	<stop  offset="0.7812" style="stop-color:#3985BE"/>
	<stop  offset="0.7876" style="stop-color:#3585BF"/>
</linearGradient>
<path class="st9" d="M2208.2,2129.4c-8.8-27.6-11.2-56.6-21.5-83.9c-5.1-13.6-9.8-26.3-17.5-38.7c-3.6-5.8-6.3-12.5-13.1-15.1
	c-2-0.7-4-1.3-5.8-1.8c-5.6-0.7-9.7-1.2-9.7-1.3c0-0.1,4.2,0,9.7,1.3c12.5,1.5,32.6,3.4,32.7,2.4c0.3-1.5-39.1-9.5-54.1-12.3
	c-20.7-3.8-41.2-6.3-61.1-7.7c-0.5,3.6-0.7,7.1-1.9,10.7c-0.6-3.9-1.7-7.4-2.8-11c-8.1-0.5-16-0.8-23.9-1c-2.1,3.7-3.7,7.1-5.3,11.1
	c-1.1-3.9-1-7.5-0.8-11.2c-10.5-0.1-20.8,0-30.8,0.3c0.1,2.2-0.1,4.5-1.4,6.9c-0.5-1.4-1.7-2.5-2.9-3.7c-1.3,3.9-3.1,7.8-3.1,11.7
	c-1.7-5-4-9.7-6.6-14.3c-7.6,0.4-15.1,0.9-22.2,1.5c0.3,4.3,0.4,8.5-1.2,12.8c0-4.1-4.1-7.6-5.5-11.5c-3.3,1.8-2.8,6.8-5.5,9.5
	c-2.1-2.8-2.7-6-2.9-9.4c-13.1,1.4-25.2,3-36.1,4.7c0,3.2,0,6.7,0,9.7c-1.6-3.2-3.1-5.7-3.7-9.1c-4.3,0.7-8.4,1.4-12.3,2.1
	c0,1.3,0,2.6,0,4c-2.1,0-3.7-1.5-5.2-3.1c-2.1,0.4-4.1,0.8-6.1,1.2c-0.3,2.7-0.8,5.4-1.7,7.9c0-2-2-3-1-5c-4,2-5,6-6,10
	c-3.6-2.1-5.1-5.8-7.1-9.6c-0.2,0-0.3,0.1-0.5,0.1c-0.9,2.2-2.7,4.3-3.4,6.5c-1.4-1.4-1.8-3.4-2.3-5.1c-7.9,1.9-12.2,3.1-12.2,3.1
	c-7,2-13.8,4.1-20.4,6.3c0.5,5.6-2.2,11.2-3.1,16.8c-2.2-4.5-4.5-9-5.5-13.9c-0.2,0.1-0.3,0.1-0.5,0.2c0.7,2.7-3.1,2.8-3.1,4.7
	c-1.3-0.8-2.2-1.7-2.8-2.7c-6.1,2.2-12.1,4.4-18,6.6c0.3,2.5,1.2,4.8,1.8,7c-4,1-7-4-11-3c4-1,7,4,11,3c-0.6-2.3-1.5-4.6-1.8-7
	c-5.4,2.1-10.8,4.2-16,6.3c-0.3,3.6-0.4,7.3-1.2,10.8c-2-1-2-5-5-4v2c-3,1-4-2-5-4c0,2,0,4,0,6c-3.2,0-6.4-0.7-9.1-2.5
	c-9.7,4-19.4,7.8-29.2,11.6c-3,4.5-7.4,8-13.5,5c-0.3,0.1-0.6,0.2-0.9,0.3c-0.6,3.6-1.3,7.2-2.3,10.6c0-3,0-5,0-8c-4,2-3,8-6,11
	c-2.1-2.8-3.2-6.1-4-9.5c-1,0.3-1.9,0.6-2.9,0.9c-1.1,3.1-2.2,6-4,8.5c-0.8-2-1.3-4.4-2-6.6c-7,2.1-14.3,4.2-21.8,6
	c-7.2,1.8-13.7,3.2-19.6,4.3c-0.8,3.5-1.6,6.9-1.6,10.4c-3.4-2.2-4.5-5.7-5.8-9.1c-6.2,1-11.7,1.7-17,2.3c0.1,2,0.1,3.9-0.2,5.7
	c0-2.2-1.2-3.8-2.3-5.5c-0.9,0.1-1.7,0.2-2.6,0.3c-2.9,2.6-6.4,4.5-9.1,7.2c0-2.1,0-4.2,0-6.3c-0.4,0-0.7,0.1-1.1,0.1
	c-1.6,3.1-4.4,5.8-5.9,4.2c-1.1-0.7-1.6-2-1.9-3.4c-5.2,0.6-10.6,1.2-16.2,2.2c-1.2,2-2.3,4.1-2.8,6.2c0.5-1.9,0.3-3.8-0.1-5.7
	c-2.1,0.4-4.2,0.8-6.4,1.3c-2.7,0.6-9,2.2-17.2,1.8c-0.6,1.6-1.4,3.1-1.4,4.6c-0.9-1.8-2-3.4-2.9-4.9c-1.1-0.1-2.2-0.3-3.4-0.5
	c-6.1-1.2-11.8-4.1-17.5-6.6c-1.6,3.9-3.2,7.7-3.2,12.1c-1.9-4.4-1.4-9.1-1-13.8c-3.7-1.3-7.3-2-11.2-2.1c-1.9,1.6-2.1,4.8-2.8,6.9
	c-2.6-1.3-2.7-4.7-3.5-6.7c-1.5,0.1-2.9,0.4-4.5,0.6c-0.8,1.7-1.4,4.3-2,6.1c-1.6-1.6-1.9-3.1-2.5-5.2c-0.9,0.2-1.8,0.4-2.7,0.6
	c-1.3,2.2-2.1,4.8-4.9,5.5c-1.8,0-1.8-1.9-2.2-3.5c-5.6,1.7-11.8,3.8-18.6,6.1c0,3.2-0.2,6.3-1.2,9.5c-1.1-2.2-2.8-4.7-4.1-7.3
	c-1.6,2.4-3.3,4.9-4.9,7.3c0-2-1-4-2-5c0,4-2,10-5,7c-1.5-1.1-2.6-2.9-3.6-4.8c-3.3,1-6.8,2-10.4,2.9c0,3.6,0,7.2,0,10.9
	c-2-3-3.9-5.9-4-9.8c0,0-0.1,0-0.1,0c-1.1,2.8-4.9,3.9-5.9,7.8c0-1,0-2,0-3c-1,1-2,2-3,3c-0.5-2-1.5-3.7-2.2-5.5
	c-2.2,0.4-4.7,0.8-7.6,1.2c-0.4,2.4-1,4.7-4.2,5.2c-2,0,0-4-2-3c-1,1,0,5-3,4c-1-1-2-3-4-4c2,1,3,3,4,4c3,1,2-3,3-4c2-1,0,3,2,3
	c3.2-0.5,3.8-2.8,4.2-5.2c-4,0.6-8.5,1.3-13.8,2.1c-1,4.5-2.1,8.9-3.4,13.1c-0.8-4.5,0.8-8.5,0.3-12.7c-1.9,0.3-4,0.6-6.1,0.9
	c0.1,2,0.3,4-0.2,5.8c-3-1-2-4-5-5c3,1,2,4,5,5c0.4-1.8,0.3-3.8,0.2-5.8c-1.8,0.3-3.6,0.5-5.5,0.8c-1.1,7.7-4.7,15.3-4.7,23
	c-1-7.5-2-14.8-3.4-21.9c-1.9,0.3-3.8,0.5-5.7,0.8c-0.3,1.4-0.9,2.7-1.9,4.1c-1.1-1.1-2.2-2.2-3.3-3.3c-0.9,0.1-1.8,0.2-2.7,0.4
	c0,3,0,6,0,9c-2-3-6.8-4-7.9-7.8c-0.2,0-0.4,0.1-0.6,0.1c0.9,4.6,1.5,9.2,1.5,13.8c-0.8-4.7-3.4-8.9-4.5-13.3
	c-2.2,0.3-4.3,0.6-6.5,0.9c0,4.2,0,8.5,0,12.4c-2.2-3.7-3.4-8-5.9-11.6c-1.3,0.2-2.7,0.4-4,0.5c-0.9,2.3-2.2,4.5-2.2,7.1
	c-2.8-1.9-4.8-4.6-7.5-5.8c-0.2,0-0.4,0.1-0.7,0.1c0.7,7.8,1.4,15.6,0.2,23.7c-2-7.2-2.2-15.4-3.9-23.2c-6.6,0.9-12.7,1.7-18.1,2.3
	c0,1.6,0,3.2,0,4.9c-1.1-1.1-1.9-2.8-2.9-4.5c-1,0.1-1.9,0.2-2.8,0.4c-0.3,0-0.6-0.1-0.8-0.1c-3,6.5-7.1,12.5-10.4,19.3
	c1.5-6.1,3.1-12.3,4.1-18.6c-1.6,1.8-3.4,3.5-4.1,5.6c-3.4-2.2-6.1-5.1-8.4-8.3c-3.2-0.2-6.5-0.4-9.9-0.6c-2.1,4.2-3.7,8.8-6.8,11.8
	c0-4,0-7,0-11c-5,4-8,9-10,15c-5.3-4.4-7.5-9.6-9.3-15.6c-0.6,0-1.2,0.1-1.7,0.1c-1.1,4.4,1,9.3,1,13.5c-3-4.9-6.9-7.9-8.9-12.9
	c-0.5,0-1.1,0.1-1.6,0.1c-0.4,6-1,11.9-1.5,17.7c-1.7-6.1-2.7-11.4-2.9-17.2c-2.1,0.2-4.1,0.5-6.1,0.8c1.1,3.6,1.7,7.5,1,11.4
	c2-4,1-9,5-12c-4,3-3,8-5,12c0.7-3.9,0-7.8-1-11.4c-1.8,0.2-3.5,0.5-5.3,0.8c-0.7,2.9-0.7,5.9-0.7,8.7c-0.5-2.5-1.5-5.3-2.5-8.1
	c-1.6,0.3-3.1,0.5-4.6,0.8c-0.5,4.1-0.7,8.2-1.8,12.3c-0.6-3.9-0.9-7.7-1.8-11.6c-1.4,0.3-2.7,0.6-4,0.9c-0.7,2.6-1.4,5.2-2,7.6
	c0,0.4-0.1,0.7-0.2,1.1c0.1-0.4,0.2-0.7,0.2-1.1c0.3-2.3-0.9-4.6-1.2-6.9c-0.1,0-0.3,0.1-0.4,0.1c-0.9,2.6-1.9,5.3-3.6,7.9
	c0-2.5-0.7-4.4-1.5-6.7c-0.5,0.1-0.9,0.2-1.4,0.4c-1.1,2.4-1.1,4.9-1.1,7.3c-1.6-2.4-3.2-4.1-5.8-5.2c1.1,4.7,2.3,9.3,1.8,14.2
	c-4.1-3.4-4.5-8.6-6.2-13.2c-1.3,0.4-2.6,0.8-3.9,1.2c-0.1,2.9-0.5,5.7-2,8c0-2.6-0.4-4.8-0.7-7.1c-1.5,0.5-3,1-4.5,1.5
	c-0.8,3.2-1,6.6-1.8,9.6c-1.3-2.5-2.5-5-3.8-7.6c-2.4,0.9-4.7,1.8-7,2.7c-0.9,2.6-1.7,5.2-2.3,7.9c-1.5-2.9-2.4-5.8-3.2-8.7
	c-3.3-0.6-6.5-1.2-9.6-1.6c-1.4,3.8-1.8,7.6-3.3,11.3c-2-4-7-7-7-12c0,5,5,8,7,12c1.5-3.8,1.9-7.6,3.3-11.3
	c-3.5-0.5-6.8-0.9-10.1-1.1c-2.9,5.5-6.5,10.9-10.2,15.5c0-5.6,0-10.6-0.5-16c-0.4,0-0.9,0-1.3,0c-2.9,3.4-4.7,6.8-7.2,11
	c0-2.8-0.3-6-0.2-9.1c-0.9,3.6-1.9,6.3-3.8,9.1c0.6-3.5,0.1-7.1-0.3-10.6c-2.3,0.2-4.6,0.4-6.7,0.7c-0.9,2,0,5.9-2.9,6.8
	c-0.5-2.1-0.8-4.3-1.7-6.1c-0.6,0.1-1.2,0.2-1.8,0.3c0.4,5.3,0.4,10.5,0.4,15.8c-1.8-4.9-3.7-9.9-5.8-14.6c-1.5,0.4-3,0.8-4.4,1.2
	c-0.9,0.3-1.8,0.6-2.8,0.9c1,2.8,2.2,5.7,2.9,8.5c1-3,1-5,1-8c0,3,0,5-1,8c-0.7-2.8-1.9-5.7-2.9-8.5c-1.6,0.5-3.3,1-5.1,1.5
	c-0.3,3.5-2,6.3-2.9,9c-0.9-2.7-1.8-5.3-2.4-8c-2.2,0.3-4.7,0.5-7.3,0.6c-0.6,0-1.3,0-1.9,0c-1.1,2.5-2.6,4.9-3.4,7.4
	c-0.8-2.7-1.4-5.3-1.9-7.8c-3.7-0.5-7.1-1.3-10.2-2.5c-0.6,1.6-1.4,2.9-2.9,3.3c-2.2,0.7-2.8-2.4-3-5.7c-1.9-0.9-3.6-1.8-5.4-2.8
	c-0.8,3.2-1.7,6.4-1.7,9.5c-1.8-3.5-1.5-7.4-1.3-11.2c-1.8-1-3.6-2.1-5.3-3.1c-1.5,3-3.3,5.8-5.4,8.3c0-3.9-1.2-7.9-1.3-11.8
	c-0.4-0.2-0.8-0.4-1.2-0.6c-3-1.3-5.8-2.3-8.6-3c0,4.2,0,8.5,0,12.3c-2.5-4.1-4.3-9-6.5-13.3c-1.3-0.1-2.6-0.1-3.9-0.1
	c-2.4,3.6-6,6.3-7.6,10.4c0-3.3,0.8-6.5,1.2-9.8c-1.4,0.2-2.8,0.5-4.2,0.8c-0.1,4.8-1.1,10.3-3,15c-2.3-4.6-5.8-8.1-6.4-12.6
	c-3.3,0.9-6.8,1.9-10.6,2.8c0,2.6,0,5.4,0,7.7c-2.2-1.6-4.4-3.9-5.7-6.4c-4.1,0.9-8.6,1.6-13.4,2.2c-0.8,5-1.5,9.9-0.8,15.2
	c-2.4-4.9-4.2-9.8-6.4-14.6c-1.3,0.1-2.5,0.1-3.8,0.2c-0.7,2.5-2.1,5-2.7,7.5c-0.5-2.6-1.1-5-1.4-7.4c-7.3,0-13.3-0.5-18.7-1.4
	c-1.1,3.4-2.3,6.7-3.9,9.8c-1-2-1-4-1-6c-4,1-4,8-5,7c-4.9-3-6-9.8-7.9-15.7c-0.1,0-0.2-0.1-0.3-0.1c-1.5,3-3.8,5.7-3.8,8.8
	c-5.2-2.2-4.9-8.3-6.8-13c-1-0.4-2-0.8-3.1-1.2c-0.5,3.4-3.1,6-3.1,9.1c-3.7-3.7-5.8-8.5-8.2-12.8c-5.3-1.5-11.3-2.7-18.5-3.6
	c-1.2,2.1-2.4,4.3-3.3,6.4c-2.8-1.4-4.7-4.3-6.2-7.3c-8.5-0.5-16-0.3-22.9,0.6c-2,3.9-4.9,6.8-5.9,10.8c-1.6-2.7-1.2-6.5-1.6-9.6
	c-2.1,0.4-4.2,0.8-6.3,1.3c-1.7,4.3-4.2,8.3-6.2,12.3c-0.4-3.4-0.9-7-1.7-10.3c-2.5,0.7-5.1,1.4-7.6,2.2c0,1.5,0.1,3,0.5,4.5
	c0.4,0.8,0.7,1.7,0.9,2.6c-0.4-0.9-0.7-1.8-0.9-2.6c-0.6-1.4-1.4-2.7-2.3-4c-0.3,0.1-0.7,0.2-1,0.3c-2.8,4.5-6.3,7.6-12.8,4.3
	c6.5,3.2,10,0.2,12.8-4.3c-4.6,1.4-9.3,2.8-14.3,4.2c-0.4,3.4-0.9,6.7-1.5,10.1c-1.2-3-2.5-5.8-3.8-8.7c-0.8,0.2-1.6,0.4-2.5,0.6
	c-1.4,2.1-3.1,3.5-5.5,1.3c-0.1,0-0.1,0-0.2,0c0,2.9,0,5.6,0,8.8c-3.9-0.8-6-4-7.7-7.3c-0.5,0.1-0.9,0.1-1.4,0.2
	c-0.8,4.1-1.7,8.1-3,12.1c-0.7-3.9-1.5-7.6-2.3-11.3c-7.2,1-14.3,1.5-21.3,1.6c-0.8,4.6-1.4,8.8-1.4,13.7c-2.7-4.6-0.5-9.1-1.6-13.7
	c-6,0-11.8-0.2-17.7-0.8c-0.6,2.7-1,5.3-2.8,6.4c-1,2-1-3-2-4c-2-1-3,1-3,3c-1.9-1.9-2.6-4.2-2.9-6.7c-3.1-0.4-6.2-1-9.2-1.5
	c-0.9,3.1-1.9,6.4-1.9,9.2c-3-1,0-5-3-6c-1,3-3,5-3,8c-1.7-4.2-2-9.2-3.2-13.6c-3.3-0.8-6.6-1.7-9.9-2.6c-0.3,2.6-1.1,4.9-3.9,6.2
	c-1-3-2-5-3-8c-1,2-1,4-2,6c0-3.2-1.6-5.6-3.1-7.9c-6.3-2.1-12.6-4.4-18.9-6.9c-1.1,2.1-1.9,4.4-3.1,6.8c-2-2-2-5-2-8c-2,2-3,6-6,7
	c0-4-1.2-7.3-1.8-11c-4.1-1.7-8.2-3.5-12.3-5.4c-1.2,1.3-2.5,2.5-3.9,3.4c0-0.7-1-1.4-1.2-2.1c-0.7,1.2-2.6,1.5-1.8,3.1
	c-1.8-3.7-5.3-5.7-5.1-9.8c-0.3-0.1-0.5-0.2-0.8-0.4c-1,1.9-1.9,3.7-3.1,5.2c-2-4-5-7-8-10c3,3,6,6,8,10c1.1-1.5,2.1-3.3,3.1-5.2
	c-7.6-3.5-15.2-7-22.8-10.6c-1,1.7-1.8,3.6-2.2,5.7c-3.4-1.7-3.9-6.2-5.8-9.4c-0.8-0.4-1.7-0.8-2.5-1.2c-2.1,2.8-4.6,4.6-7.7,3.6
	c-3-1-5,1-8-3c-2-3-1-9-5-9c-1-1-2,3-4,4c-1.4-3.4-4.5-5.9-6.5-9c-7.7-3.1-15.6-6.1-23.6-8.8c-1.4,2.7-2.9,5.1-4.9,5.8c-3,1-2-4-2-7
	c-4,1-4,7-6,6c-4.3-1.4-6.5-6.4-8.6-11.4c-9-2.5-18.3-4.6-27.8-6.3c-2.3,3.1-4.6,6.3-6.7,9.7c-3-3-1-8-3-9c-4-2-4,6-8,7
	c0-3.3,0-7,0-10.6c-6.5-1.2-14.4-3.1-23.3-6.3c-0.8,1.3-1.7,2.6-2.7,3.9c-1.5-1.5-1.9-3.6-2.4-5.8c-0.6-0.2-1.1-0.4-1.7-0.7
	c-1.6,2.2-3.3,3.9-4.9,5.5c-0.5-2.7-0.9-5.4-1.1-8.1c-20.7-9.6-30.1-19.7-39.3-28.7c-1.1,1.8-2.3,3.4-4.6,3.8c0-3-2-7-3-10
	c-1,1-3,4-3,3c-1.6-2.4-3.8-5.4-3.1-8.6c-0.6-0.4-1.2-0.8-1.8-1.2c-1.4,1.6-2.8,3.1-4.1,4.7c-1.2-1.6-1.9-3.4-2.3-5.3
	c-0.8,1-2.4,1.9-1.7,3.3c-5.2,0-5.9-6-7.3-9.6c-0.7-0.1-1.4-0.3-2.1-0.4c-0.7,1.9-1.7,3.5-3.6,3.9c-2.5,0.6-4.6-1.5-6.1-4.3
	c-5.3,0.1-12.4,0.6-22.1,1.7c-1.4,2.6-2.9,5.1-4.8,7.7c-2.3-1.6-4.1-3.7-5.2-6.5c-6.1,0.8-13.2,1.7-21.1,2.9
	c-0.5,1.2-1.4,2.1-0.7,3.6c-1.5-1-3.4-1.7-5-2.8c-1.6,0.2-3.2,0.5-4.8,0.7c-2.3,3.3-2.4,9.1-4.2,9.1c-3.2-1.4-5.6-4-7.5-7.3
	c-4.3,0.7-8.7,1.4-13.4,2.1c-0.8,0.1-1.7,0.3-2.5,0.4c-1.2,5.4-1.8,10.7-5.6,10.7c-3.8,0-7.2-3.6-9.7-8.2c-15.4,2.6-25,4.3-32.1,5.6
	c-0.7,1.8-1.2,3.6-1.2,5.6c-2-1.2-3.7-2.8-5.2-4.5c-3.9,0.7-7.2,1.2-11,1.7c-2.5,5.4-5.3,10.6-8.7,15.7c-1.3-4.8-2.4-9.6-3.8-14.3
	c-11.9,1.2-21.4,1.7-29.6,2c-0.5,1.4-1.1,2.7-1.6,4.3c-1.8-1.3-3.1-2.7-4.2-4.2c-8.4,0.2-15.5,0-22.6,0.1c-0.1,2.1-0.4,4.1-1.2,6.1
	c-1-2-2.5-3.9-3.7-6c-3.8,0.1-7.6,0.2-11.8,0.5c-1.6,3.4-3.4,6.8-4.5,10.5c0-3.3-0.6-6.7-1.5-10c-3.2,0.3-6.6,0.7-10.3,1.2
	c-1.7,0.2-3.5,0.5-5.3,0.7c-3.3,4.8-8.1,8.5-10.9,14.1c-0.9-4.2-1.2-8.1-1.4-12c-6.4,1.2-13.3,2.8-20.7,4.8c-0.1,1,0,2.1,0.2,3.3
	c-0.9-0.9-1.8-1.8-2.7-2.6c-2,0.5-4,1.1-6.1,1.7c0.3,7.4,0.5,14.7-1.2,21.8c-4.8-5.6-9.6-11.2-12.9-17.3c-8.1,2.8-16.7,6.1-25.6,10
	c-1.3,3.4-2.5,6.8-2.5,10.4c0-3.4,0.1-6.8,0.1-10.4c-5.5-0.4-13.1-1.2-22.1-2.6c-7.6-1.2-13.9-2.5-19.3-3.8
	c-2.5,4.2-5.3,8.2-7.7,11.8c-1.7-5-3-10-3.4-15c-5.3-1.7-9.9-3.5-14.6-5.2c-2.2,4.9-4.5,9.7-5,15.1c-3.8-6.1-6.4-12.7-8.3-19.6
	c-2.9-0.8-5.9-1.6-9.3-2.4c-40.6-9.1-86.7-3.2-99.1-13.1c-1.3-1.1-6.6-5.9-14.3-10c-5.3-2.8-10.4-5.7-15.6-8.8
	c-14.3-8.5-31.6-14.2-47.5-18.3c-6.5-1.7-12.5-1.5-18.9-3.1c-14.2-3.5-35.4-6-46.6,4.4c-8.2,7.6-14.1,17.4-20.3,26.6
	c-8.8,13.2-18.5,26.5-25.4,40.8c-2.7,5.6-2.9,11.8-5.2,17.5c-2.2,5.6-5.8,9.9-9.2,14.8c-6.7,9.6-11.7,19.9-17.2,30
	c-4.7,8.7-11.8,15.6-17.7,23.4c-6.4,8.4-9.1,18.3-13.7,27.8c-11.8,24.5-10.1,57.2-10.1,83.6c0,16.5,2.4,26.5,7.9,42.2
	c2.5,7,3.2,15.7,7.2,22.1c6,9.6,22.1,21.9,29.6,27.3c30.9,22.1,65.4,38.7,95.9,61.6c10.7,8,22.6,14.7,34.1,21.5
	c15.5,9.1,33.7,13.1,50.6,19c19.8,6.9,39.4,14.7,59,22.1c33.5,12.7,66.4,24,101.7,30.6c42.2,7.9,83.9,15.2,126.6,19.9
	c55.2,6.1,110.6,13.5,165.2,23.9c38.8,7.4,78,11.7,117,17.5c36.7,5.5,73.2,10.2,110.1,13.6c75.3,6.9,150.8,11.8,226.4,15.1
	c123.6,5.4,247.7,4.4,371.2-0.7c84.7-3.5,168.6-15,253-22.9c101.6-9.4,202.3-25.1,303.7-36.5c40.5-4.5,80.9-8.9,121.4-13.4
	c23-2.7,46-5.3,69-8c55.5-10.5,108.3-33.2,161.2-52.4c37.7-13.7,89.8-26.3,120.7-52.5c16.3-13.8,28.7-23.6,45.7-40.6
	c21.6-20.1,40.5-42.3,56.7-66.7c3.8-5.4,7.7-10.9,11.5-16.3c4.3-9.8,7.1-19.2,12.5-28.7C2207.9,2186,2215.7,2153,2208.2,2129.4z"/>
<linearGradient id="SVGID_9_" gradientUnits="userSpaceOnUse" x1="1045.6224" y1="1768.8683" x2="1045.6224" y2="2184.1499">
	<stop  offset="0.5539" style="stop-color:#7F61A7;stop-opacity:0"/>
	<stop  offset="0.6448" style="stop-color:#7F63A8;stop-opacity:0.2303"/>
	<stop  offset="0.7057" style="stop-color:#7D69AC;stop-opacity:0.3848"/>
	<stop  offset="0.758" style="stop-color:#7973B3;stop-opacity:0.5172"/>
	<stop  offset="0.8052" style="stop-color:#7280BC;stop-opacity:0.637"/>
	<stop  offset="0.8492" style="stop-color:#6890C7;stop-opacity:0.7483"/>
	<stop  offset="0.8906" style="stop-color:#59A1D3;stop-opacity:0.8533"/>
	<stop  offset="0.9294" style="stop-color:#41B3DF;stop-opacity:0.9517"/>
	<stop  offset="0.9485" style="stop-color:#2ABCE5"/>
</linearGradient>
<path class="st10" d="M-56.3,2130.3c7.8,0,15.7,0,23.5,0c9,0,18.5,0.8,27.5,0.1c4.6-0.4,7.7-2.6,12.1-3.4c9-1.7,16.2-0.1,25.2-3.4
	c9.1-3.3,17.6-1.3,27.3-2.7c7.2-1,12.8-3.3,20.4-3.3c8.1,0,17.3,1.1,25.3,0.2c8.7-1.1,15.5-3.4,24.5-3.3c18.4,0,36.9,0,55.3,0
	c70.3,0,141.6-2.6,211.9-0.1c10.4,0.4,19.4,3.4,30.2,3.3c19.6-0.2,38.9,2.9,58.4,3.1c5.1,0.1,10.2-0.4,15.2-0.1
	c4.9,0.3,7.9,2.5,12.5,3.4c8.5,1.7,20-0.1,28.7-0.2c8.5-0.1,15.7,2.7,24,3.3c13.3,1,27.4-0.1,40.8-0.1c19,0,38,0,56.9,0
	c17.3,0,31.8,6.3,49.8,6.3c7.7,0,15.4,0,23,0c8.7,0,15.5,2.8,23.7,3.2c20.4,1.1,41.3-0.1,61.7-0.1c14.5,0,33.5,3.2,47.6,0.1
	c5.1-1.1,10.2-3.9,14.8-5.7c3.9-1.5,6-1.9,9.5-4.6c7.9-6.1,7.4-3.8,15.3-5.5c3-0.6,4.5-2.8,7.6-3.5c2.8-0.6,6.7,0.1,9.6,0.1
	c7.9,0,15.7,0,23.6,0c20.1,0,42-2.4,61.4,1.6c10.2,2.1,20.3-0.1,30.4,1.4c5.9,0.9,10.9,3.3,17,3.5c4.1,0.1,7.5-0.4,11.5,0.6
	c24.7,5.9,53.6,2.1,79.4,2.5c7.9,0.1,14,3.3,22,3.2c9-0.1,18,0.2,26.9,0c7.8-0.2,14.2-2.9,22.2-3.2c13.2-0.4,26.7-2.6,40-3.5
	c14.6-0.9,28.6-2.8,43.1-2.9c8.4,0,14.9,2.8,22.9,3.2c7.3,0.4,14.8-1,22,0.6c10.1,2.2,18.8,2.5,29.4,2.5c15.5,0,33.3-2.4,48.5,0.3
	c5,0.9,9.2,2.8,14.3,3c7.1,0.3,14.4,0,21.5-0.1c8.7-0.1,15.3,3.3,24.1,3.2c28.2-0.6,54.7,12,77-9.6c3.6-3.4,3.7-5.3,8.3-6.4
	c2.7-0.6,6.7,0.1,9.5,0.1c15.8,0.1,33.5-2.7,48.8,0.7c34.2,7.6,71.5,5.6,107,5.6c23.5,0,47,0.4,70.4,0.1c14.2-0.2,27.8-3.3,42.2-3.2
	c10.5,0.1,19.8-2.8,30-3.2c10.4-0.4,20.9,0.9,31.3,0.2c5.8-0.4,11.2-2.3,16.9-3c28.2-3.7,61.6-0.3,89.2-0.3c31.9,0,63.9,0,95.8,0
	c18.1,0,36.2-0.7,54.1,1.6c49.8,6.1,100,4.8,150.2,4.8c10.8,0,27.4,3.2,37.6,0.2c5.5-1.6,20.2-8.9,15.6,4.2
	c-3.4,9.7-16.6,15-25,18.7c-15.4,6.7-31.2,12.5-46.6,19.2c-32,13.9-67.4,31.6-102.2,36.7c-52.1,7.6-104.5,11.3-156.7,19.1
	c-58.8,8.9-117.7,20.2-176.8,28c-12.7,1.7-25.3,3-37.9,5.6c-98.3,19.7-199.7,27.3-299.5,36c-36.9,3.2-71.8,3.2-108.6,3.2
	c-69.1,0-138.2,0-207.2,0c-48.7,0-97.4,0-146.2,0.1c-30.5,0.1-60.8-3-91.3-3.5c-42.6-0.7-85.1,1.6-127.6-1.4
	c-27.1-1.9-54.2-1.7-81.3-1.6c-70.1,0.2-139.3-1.8-209.2-7c-54.2-4.1-108.4-10.4-162.4-16.7c-73.8-8.6-147.9-13.2-221.3-25.3
	c-54.7-9-109.1-17-164.1-23.8c-25.3-3.1-51.3-7-76.9-6.3c-18.2,0.5-34.7-5.2-52.7-6.2c-9.1-0.5-18,0-26.8-1.4
	c-34.9-5.5-71.8-5.5-106.2-14.3c-2.8-0.7-5.4-2.1-8.2-2.7c-5.3-1.2-10.7,0.1-15.8-1.1c7.9-11,15.4-17,27.8-22.4
	c19.6-8.7,41.4-16.4,62.4-20.8c25.1-5.2,49.8-16.4,75-19.8c7.1-1,12.7,2.2,19.5,3.3c11.2,1.8,22,6.4,32.5,9.4c8.6,2.4,17,6.6,25.5,9
	C-31.4,2140.8-24.4,2139.8-56.3,2130.3z"/>
<path class="st11" d="M-34.2,1446.7c4.8-5.4,12.2-2.2,18.3-3.9c6.8-1.8,11.7-5.6,19.7-5.6c16.2,0,28.6-9.5,44.4,0
	c8.1,4.9,14.7,12.1,22.6,17.3c18.1,11.9,41.1,12.4,62.8,12.6c127.5,1.2,254.8,7.1,382.2,13.9c6.6,0.4,14.6,1.6,17.2,7.7
	c-11.8,4.3-23.5,8.6-35.3,12.9c-4,1.5-8.1,3.1-10.8,6.3c-11.7,14.3,38.8,14.2,44.4,14.2c32.5,0.2,64.7,1.2,97.2,3.4
	c30.6,2,61.3,2.2,91.7,5.7c12.1,1.4,32.4,1.3,43,7.8c14.8,9.1,1.9,14.8-12.2,17.9c-77,17-149.6,11.3-227.1,4.4
	c-81.4-7.3-162.8-9.5-244.5-9.9c16.1,3.8,32.2,7.7,48.4,11.5c-6.6-1.6-21.4,4.7-28.6,5.7c-12,1.6-24.1,2.3-36.2,2.5
	c-50.7,0.8-101.4-1.4-152.1-3c-26-0.8-52.1-1.5-78.1-1.4c-17.8,0-48.6,6.6-65.3-1.2c-4-1.9-6.6-5.6-10.2-8.1
	c-7.5-5.4-4.3-3.9-8.9-11c-5.1-8-17.2-13.9-26-16.6c-5.4-1.7-9.7-4.5-14.9-6.4c-7.8-2.9-17.2-3.1-25.4-4.6
	c-13.4-2.4-26.1-5.8-39.3-8.9c-9.1-2.1-17-7.9-26.3-9.7c-4.2-0.8-9.5,0.1-11.9-4.6c-5.9-11.4,8.7-15.5,15.7-17.1
	c3.7-0.9,7.5-2.3,11.1-3.2c5.8-1.6,9.6-5.7,15.6-6.6c5.9-0.8,11.7,0.9,17.5-0.5c6-1.4,11.4-1.7,17.5-2.7c6.7-1.1,11.1-3,18.1-2.9
	c6.1,0.1,12.3,0,18.4,0C-60.3,1462.3-41.8,1452.5-34.2,1446.7z"/>
<path class="st12" d="M1992.7,1606.7c-3.4-1.4-7.1-2.2-10.8-2.3c3.4,0.9,6.8,1.8,10.3,2.8c-53.2,6.3-104.4,11.4-157.9,11.3
	c-57.6,0-115.3-0.1-172.9-0.2c-71.6-0.1-142.8-6.7-214.4-7.5c-11.3-0.1-23.1-0.2-34.1,2.7c-29.4,7.5,19.6,22.5,28.2,24.5
	c31.6,7.1,63.2,14.3,94.8,21.4c1.2,0.3,2.4,0.6,3.3,1.4c3.7,3.5-2.9,8.5-8,9.2c-97.6,13.6-196.2,14.6-294.6,14.6
	c-6.6,0-13.3,0-19.8,1.3c-1.8,0.3-3.8,1-4.4,2.6c-0.5,1.2-0.1,2.5,0.4,3.7c2.9,5.9,10.6,7.4,17.2,8c52,4.4,105.1,1.8,157.3,4.9
	c54,3.2,108,7.2,162.1,8.9c29.3,0.9,58.6,1.8,87.9,2.7c35.6,1.1,68.7,5.3,104-3.7c-5.6,0.2-11.2-1.5-15.7-4.8
	c-1.6-1.2-3.2-2.7-3.7-4.7c-1.6-5.9,6.2-9.5,12.3-10.5c63.9-9.8,128.9-5,193.1-0.9c61.2,3.9,119.4,0.7,178.1-18.3
	c5.4-1.7,22-6.6,23.7-13c1.4-5.5-8.2-14.7-12.4-17.2c-17.7-10.8-37.1-6.5-55.4-1.7c-26.5,7-53.7,11.4-81,12.9
	c-6.8,0.4-16-1.7-15.8-8.5c0.1-3.3,2.8-5.9,5.4-7.9c7.3-5.6,15.8-9.5,24.8-11.5c4.7-1,10.8-2.8,11-7.6c0.1-2.5-1.6-4.7-3.4-6.4
	C1999.5,1610.2,1996.2,1608.1,1992.7,1606.7z"/>
<path class="st13" d="M-37.1,1186.6c0.5,0,1-0.1,1.5-0.1c114-9.9,229.5-11.6,343.9-3.9c11.7,0.8,23.8,1.8,34,5.9
	c22.5,9.1,24,29.8,47.9,38.4c32.2,11.7,87.4,6.3,122.4,6c61.6-0.5,123.3,0.1,184.9,2c51.7,1.6,135.9-4.2,181.3,11.5
	c6.4,2.2-64.8,16.7-68.8,17.5c-31.2,6.3-61.2,15.3-93.7,18.3c-50.8,4.6-93.6-8.8-142.6-13.3c-19.6-1.8-41.5-0.5-61.1,0.5
	c-13.9,0.7-58.4,10.9-69.4,7.1c20.4,7,42.3,11.9,64.8,14.4c-30.2,4.5-392.1,12.5-391.5,19.5c0.5,5.3,0.9,10.6,1.4,15.9
	c-150.2,1.9-293.6-40-431.8-81.1c12.3-3.3,25.6-7.8,38.9-8.6c82.9-5.3,168.4-2.5,252.1-2.7c3.3,0,6.7,0,9.6-1.1
	c8.6-3.2,5.6-13-2.1-17.2s-18-5.4-26.2-9.1c-8.2-3.7-13.6-12.5-6.5-17.1C-45.1,1187.5-41.1,1186.9-37.1,1186.6z"/>
<path class="st13" d="M2035.7,1309.5c-11.1-1.4-22.2-1.7-44.3-2.2c-23.4-0.6-40.7,0-44.4,0c-119.6,0-237.4-8.4-357.2,1.7
	c-12.1,1-24.7,2.3-34.6,7.4c-6.4,3.3-11.1,8-17,11.7c-16.6,10.5-40.4,12.3-62.6,13.7c-128.4,8.1-257,16.3-386,16.1
	c-95.3-0.1-251.2-6.2-333.3,32.6c36.3,24.6,116.1,16.5,161.2,16.5c154.8,0.2,309.7,0.3,464.5,0.5c9.9,0,20.4,0.1,29,3.7
	c1,0.4,11,5.2,11.3,9.5c1.2,16.1-130.9,29.4-129.8,36.7c1.1,7,120.8,3.9,208.1,1.7c29.6-0.8,13.7-0.5,104.4-3.3
	c123.1-3.9,154.8-4.4,155.1-7.8c0.4-4.5-53.2-10.6-106-16.7c-37.5-4.3-68.7-7.2-90.2-8.9c15.3-2.1,39.2-5,68.8-6.7
	c0,0,33.9-1.9,68.2-1.2c84.8,1.9,489.5,50.3,529,48.4c9.5-0.5,19.6-1.1,27.5-4.9c16.3-7.8,9.9-20.3-4.2-26
	c-24.3-9.9-51.2-17.3-78.7-21.4c-39.3-5.9-79.8-6.8-119.2-12.2c-6.1-0.8-12.7-1.9-16.9-5.2c-10.2-7.8,0.8-20.9,14.7-25.2
	c13.8-4.2,30.1-4.2,42.9-9.8c5.2-2.3,14.2-7,15-13.3C2113,1330.4,2071.1,1314.1,2035.7,1309.5z"/>
<g class="st14">
	<g>
		<defs>
			<path id="SVGID_10_" d="M69-226.8c11.7,46.3,33.6,113.6,76.5,185.1c105,174.8,256.8,243.1,294.8,259c28,11.7,231.2,93.1,442,2.6
				c145-62.3,128.3-134.9,270.3-190.6c211.4-82.9,413.7,13.6,431.8,22.6c98.9,49.1,85.2,82.4,249.1,209.8
				c142.5,110.8,234.2,182,358.2,197.8c54.2,6.9,186,12.2,350.3-103.5c-47.9,179.4-95.8,358.8-143.7,538.2
				c-33,35.9-91.6,90-177.8,124.3c-141.6,56.4-271.9,25.3-332.2,4.9c-106.1-36-113.4-78.9-376.4-291.1
				c-175.9-141.9-216-157.8-254.7-166.5c-109.1-24.6-202.6,8.2-326.7,51.7c-181.7,63.7-187.2,112.2-319.8,137.6
				c-143.8,27.5-261.1-5.8-307.5-19.5C156.8,692.3,60,611.6,19.4,574.2C-133.9,433-189.1,263.2-206.8,199
				c-57.7-209.2-17.8-383.5,1-450.5C-114.2-243.3-22.6-235,69-226.8z"/>
		</defs>
		<clipPath id="SVGID_11_">
			<use xlink:href="#SVGID_10_"  style="overflow:visible;"/>
		</clipPath>
		<g class="st15">
			<g>
				<defs>
					<rect id="SVGID_12_" x="-241.9" y="-256.5" width="2788.9" height="1312.1"/>
				</defs>
				<clipPath id="SVGID_13_">
					<use xlink:href="#SVGID_12_"  style="overflow:visible;"/>
				</clipPath>
				<g style="clip-path:url(#SVGID_13_);">
					
						<image style="overflow:visible;" width="5811" height="2735" xlink:href="FF354833.jpg"  transform="matrix(0.48 0 0 0.48 -241.92 -256.8)">
					</image>
				</g>
			</g>
		</g>
	</g>
</g>
<g>
	<circle class="st16" cx="1636.9" cy="67.3" r="2.2"/>
	<circle class="st17" cx="1340.4" cy="387.5" r="2.2"/>
	<circle class="st16" cx="1065" cy="570.3" r="2.2"/>
	<circle class="st17" cx="1361.5" cy="774.4" r="2.2"/>
	<circle class="st16" cx="245.7" cy="605.1" r="2.2"/>
	<circle class="st16" cx="1729.4" cy="741.2" r="2.2"/>
	<circle class="st17" cx="1212.1" cy="1035.3" r="2.2"/>
</g>
<g>
	<circle class="st18" cx="1342.5" cy="1306.5" r="2.2"/>
	<circle class="st18" cx="1715.2" cy="1460.1" r="2.2"/>
	<circle class="st19" cx="214.7" cy="1433" r="2.2"/>
	<circle class="st18" cx="1836.5" cy="1135" r="2.2"/>
	<circle class="st18" cx="976.8" cy="104.8" r="2.2"/>
	<circle class="st18" cx="774.7" cy="370.7" r="2.2"/>
	<circle class="st18" cx="1290.5" cy="318.5" r="2.2"/>
	<circle class="st18" cx="86.7" cy="287.6" r="2.2"/>
	<circle class="st18" cx="196.1" cy="689.9" r="2.2"/>
	<circle class="st19" cx="665.8" cy="602.9" r="2.2"/>
	<circle class="st18" cx="193.9" cy="1156.3" r="2.2"/>
	<circle class="st18" cx="1866.9" cy="71.6" r="2.2"/>
	<circle class="st18" cx="1119.9" cy="774.4" r="2.2"/>
	<circle class="st18" cx="1803" cy="472.5" r="2.2"/>
	<circle class="st18" cx="407.1" cy="860.7" r="2.2"/>
	<circle class="st18" cx="874.9" cy="858.5" r="2.2"/>
	<circle class="st18" cx="1589.2" cy="930.7" r="2.2"/>
	<circle class="st19" cx="1088.6" cy="1197.4" r="2.2"/>
	<circle class="st19" cx="623.3" cy="1080" r="2.2"/>
</g>
<g class="st20">
	<path class="st21" d="M343.4,431.9l1.5,7c2.1,9.5-31,24.7-73.8,34.1c-42.1,9.2-78,9.3-81.2,0.3l-0.1,0l-1.5-7l2.8-0.6l0.4,2
		c7.4-9.2,36.3-21.1,72-28.9c35.7-7.8,66.9-9,77.5-3.8l-0.5-2.5L343.4,431.9z"/>
	<path class="st22" d="M343.3,431.9l-2.8,0.6l0.5,2.5c-10.6-5.3-41.8-4.1-77.5,3.8c-35.7,7.8-64.6,19.7-72,28.9l-0.4-2l-2.8,0.6
		c-2.1-9.5,31-24.7,73.8-34.1C304.3,423,340.2,422.9,343.3,431.9z"/>
	<path class="st22" d="M343.5,432.4c2.1,9.5-31,24.7-73.8,34.1c-42.8,9.4-79.2,9.3-81.3-0.2l2.8-0.6l0.4,2
		c7.4-9.2,36.3-21.1,72-28.9c35.7-7.8,66.9-9,77.5-3.8l-0.5-2.5l2.8-0.6C343.4,432.1,343.4,432.2,343.5,432.4z"/>
	<path class="st23" d="M343.3,431.9c0,1-0.1,2-0.1,3c-0.7,0-1.4,0-2.1,0c-10.6-5.3-41.8-4.1-77.5,3.8c-35.7,7.8-64.6,19.7-72,28.9
		c-0.3,0.5-0.7,1.1-1,1.6c-0.7-1-1.5-2-2.2-3c-2.1-9.5,31-24.7,73.8-34.1C304.3,423,340.2,422.9,343.3,431.9z"/>
	<path class="st21" d="M267.4,458.4c7.3-1.6,18.7-3.9,25-5.8c2.3-0.7,1.6-0.6,5.7-1.9c3.1-1,3.9-1.2,5-2.1c1.8-1.6,2.5-3.6,2.7-4.4
		c0.3-0.9,0.5-1.7,0.3-2.7c-0.2-1-0.8-1.7-1.6-2.7c-0.1-0.1-1.3-1.5-2.6-2.4c-3.5-2.4-9.5-2.7-10.9-2.8c-4.3-0.2-7.6,0.1-10.2,0.4
		c-8.7,0.9-17.4,2.4-26.1,4.3c-2.3,0.5-4.5,1-6.7,1.7c-2.8,0.9-5.4,2.2-8,3.4c-2.8,1.3-5.7,2.7-7.7,4.4c-1.4,1.2-2.4,2.5-3.1,3.8
		c-1.2,2.1-1.9,4.3-1.5,6.3c0.7,3.3,4,4.7,4.8,5.1c1.4,0.6,2.7,0.7,5.9,0.4c6.3-0.4,9-1,9-1C254,461.1,260.7,459.9,267.4,458.4z"/>
	<path class="st24" d="M292.5,443.5c0.3,1.3,0.5,2.6,0.6,3.8c0.1,1.1-0.6,2-1.6,2.3c-7.5,2.2-15.6,4.3-24.1,6.2
		c-8.5,1.9-16.7,3.3-24.4,4.4c-1,0.2-2.1-0.5-2.4-1.4c-0.4-1.2-0.8-2.4-1.1-3.7c-2-8.9,0.7-17.8,6.4-24.1c3.2-3.5,7.4-6.3,12.2-7.7
		c1.8-0.5,3.6-0.9,5.6-1.1c0.7-0.1,1.4-0.1,2.1-0.1c0.4,0,0.8,0,1.2,0C279.3,422.5,289.8,431.3,292.5,443.5z"/>
	<path class="st25" d="M249,452c4.6-3.3,9.2-6.9,12.1-11.7c2.4-4,3.4-8.6,4.8-13.1c0.5-1.5,1.4-3.3,3-3.1c0.8,0.1,1.5,0.8,1.8,1.6
		s0.3,1.6,0.2,2.5c-0.6,6.9-3.6,13.5-8.4,18.5c-3.6,3.7-8.3,6.5-13.3,7.9c-0.7,0.2-6.6,1.8-6.5,0.4c0.1-0.8,2.2-0.8,2.8-1
		C246.8,453.5,247.9,452.8,249,452z"/>
	<path class="st26" d="M292.5,443.5c0.3,1.3,0.5,2.6,0.6,3.8c0.1,1.1-0.6,2-1.6,2.3c-7.5,2.2-15.6,4.3-24.1,6.2
		c-8.5,1.9-16.7,3.3-24.4,4.4c-1,0.2-2.1-0.5-2.4-1.4c-0.4-1.2-0.8-2.4-1.1-3.7c-2-8.9,0.7-17.8,6.4-24.1c-0.1,0.2-0.1,0.3-0.2,0.5
		c-1.5,2.8-3.7,5.6-3.4,8.7c0.1,1.6,0.9,3.2,1.7,4.6c2.5,4.3,5.7,8.6,10.5,10c5.3,1.5,10.8-1.1,15.3-4.3c2.2-1.6,4.4-3.4,6-5.6
		c1.6-2.2,2.7-4.9,2.6-7.7c-0.1-1.5-0.5-3-1-4.4c-1-3-2.6-6-5-8.1c-1.5-1.3-3.4-2.3-5.4-2.6C279.3,422.5,289.8,431.3,292.5,443.5z"
		/>
	<circle class="st27" cx="205.5" cy="476.2" r="1.9"/>
	<circle class="st27" cx="332.5" cy="448.5" r="1.9"/>
	<circle class="st27" cx="309.8" cy="458.7" r="1.9"/>
	<circle class="st27" cx="246.9" cy="474.4" r="1.9"/>
	<circle class="st27" cx="276" cy="468.7" r="1.9"/>
</g>
<path class="st28" d="M1839.7,575.9c0.3,0.8,0.6,1.6,0.9,2.5c0.8,0.3,1.6,0.7,2.4,1c-0.8,0.3-1.6,0.7-2.4,1
	c-0.3,0.8-0.6,1.7-0.9,2.5c-0.3-0.8-0.6-1.7-0.9-2.5c-0.8-0.3-1.6-0.6-2.4-1c0.8-0.3,1.6-0.7,2.4-1
	C1839.1,577.6,1839.4,576.7,1839.7,575.9z"/>
<g>
	<path class="st29" d="M-13.4,178.4c0.3,0.8,0.6,1.6,0.9,2.5c0.8,0.3,1.6,0.7,2.4,1c-0.8,0.3-1.6,0.7-2.4,1
		c-0.3,0.8-0.6,1.7-0.9,2.5c-0.3-0.8-0.6-1.7-0.9-2.5c-0.8-0.3-1.6-0.6-2.4-1c0.8-0.3,1.6-0.7,2.4-1C-14,180-13.7,179.2-13.4,178.4z
		"/>
	<path class="st28" d="M29.1-107.3c0.3,0.8,0.6,1.6,0.9,2.5c0.8,0.3,1.6,0.7,2.4,1c-0.8,0.3-1.6,0.7-2.4,1c-0.3,0.8-0.6,1.7-0.9,2.5
		c-0.3-0.8-0.6-1.7-0.9-2.5c-0.8-0.3-1.6-0.6-2.4-1c0.8-0.3,1.6-0.7,2.4-1C28.5-105.7,28.8-106.5,29.1-107.3z"/>
	<path class="st30" d="M-154.3,27.6c0.3,0.8,0.6,1.6,0.9,2.5c0.8,0.3,1.6,0.7,2.4,1c-0.8,0.3-1.6,0.7-2.4,1
		c-0.3,0.8-0.6,1.7-0.9,2.5c-0.3-0.8-0.6-1.7-0.9-2.5c-0.8-0.3-1.6-0.6-2.4-1c0.8-0.3,1.6-0.7,2.4-1
		C-154.9,29.2-154.6,28.4-154.3,27.6z"/>
	<path class="st29" d="M-56.5,20.6c0.3,0.8,0.6,1.6,0.9,2.5c0.8,0.3,1.6,0.7,2.4,1c-0.8,0.3-1.6,0.7-2.4,1c-0.3,0.8-0.6,1.7-0.9,2.5
		c-0.3-0.8-0.6-1.7-0.9-2.5c-0.8-0.3-1.6-0.6-2.4-1c0.8-0.3,1.6-0.7,2.4-1C-57.1,22.3-56.8,21.4-56.5,20.6z"/>
	<path class="st29" d="M641.4,428.3c0.3,0.8,0.6,1.6,0.9,2.5c0.8,0.3,1.6,0.7,2.4,1c-0.8,0.3-1.6,0.7-2.4,1
		c-0.3,0.8-0.6,1.7-0.9,2.5c-0.3-0.8-0.6-1.7-0.9-2.5c-0.8-0.3-1.6-0.6-2.4-1c0.8-0.3,1.6-0.7,2.4-1
		C640.8,429.9,641.1,429.1,641.4,428.3z"/>
	<path class="st28" d="M126.1,89.5c0.3,0.8,0.6,1.6,0.9,2.5c0.8,0.3,1.6,0.7,2.4,1c-0.8,0.3-1.6,0.7-2.4,1c-0.3,0.8-0.6,1.7-0.9,2.5
		c-0.3-0.8-0.6-1.7-0.9-2.5c-0.8-0.3-1.6-0.6-2.4-1c0.8-0.3,1.6-0.7,2.4-1C125.5,91.2,125.8,90.4,126.1,89.5z"/>
	<path class="st29" d="M-10.1,361.5c0.3,0.8,0.6,1.6,0.9,2.5c0.8,0.3,1.6,0.7,2.4,1c-0.8,0.3-1.6,0.7-2.4,1
		c-0.3,0.8-0.6,1.7-0.9,2.5c-0.3-0.8-0.6-1.7-0.9-2.5c-0.8-0.3-1.6-0.6-2.4-1c0.8-0.3,1.6-0.7,2.4-1
		C-10.7,363.2-10.4,362.3-10.1,361.5z"/>
	<path class="st28" d="M155.8,437.7c0.3,0.8,0.6,1.6,0.9,2.5c0.8,0.3,1.6,0.7,2.4,1c-0.8,0.3-1.6,0.7-2.4,1
		c-0.3,0.8-0.6,1.7-0.9,2.5c-0.3-0.8-0.6-1.7-0.9-2.5c-0.8-0.3-1.6-0.6-2.4-1c0.8-0.3,1.6-0.7,2.4-1
		C155.2,439.4,155.5,438.6,155.8,437.7z"/>
	<path class="st29" d="M978.9,361.5c0.3,0.8,0.6,1.6,0.9,2.5c0.8,0.3,1.6,0.7,2.4,1c-0.8,0.3-1.6,0.7-2.4,1
		c-0.3,0.8-0.6,1.7-0.9,2.5c-0.3-0.8-0.6-1.7-0.9-2.5c-0.8-0.3-1.6-0.6-2.4-1c0.8-0.3,1.6-0.7,2.4-1
		C978.3,363.2,978.6,362.3,978.9,361.5z"/>
	<path class="st28" d="M996,238.1c0.3,0.8,0.6,1.6,0.9,2.5c0.8,0.3,1.6,0.7,2.4,1c-0.8,0.3-1.6,0.7-2.4,1c-0.3,0.8-0.6,1.7-0.9,2.5
		c-0.3-0.8-0.6-1.7-0.9-2.5c-0.8-0.3-1.6-0.6-2.4-1c0.8-0.3,1.6-0.7,2.4-1C995.4,239.8,995.7,238.9,996,238.1z"/>
	<path class="st28" d="M1995.3,667.4c0.3,0.8,0.6,1.6,0.9,2.5c0.8,0.3,1.6,0.7,2.4,1c-0.8,0.3-1.6,0.7-2.4,1
		c-0.3,0.8-0.6,1.7-0.9,2.5c-0.3-0.8-0.6-1.7-0.9-2.5c-0.8-0.3-1.6-0.6-2.4-1c0.8-0.3,1.6-0.7,2.4-1
		C1994.7,669,1995,668.2,1995.3,667.4z"/>
	<path class="st28" d="M859.5,572.4c0.3,0.8,0.6,1.6,0.9,2.5c0.8,0.3,1.6,0.7,2.4,1c-0.8,0.3-1.6,0.7-2.4,1
		c-0.3,0.8-0.6,1.7-0.9,2.5c-0.3-0.8-0.6-1.7-0.9-2.5c-0.8-0.3-1.6-0.6-2.4-1c0.8-0.3,1.6-0.7,2.4-1
		C858.9,574.1,859.2,573.2,859.5,572.4z"/>
	<path class="st29" d="M2141,875.1c0.3,0.8,0.6,1.6,0.9,2.5c0.8,0.3,1.6,0.7,2.4,1c-0.8,0.3-1.6,0.7-2.4,1c-0.3,0.8-0.6,1.7-0.9,2.5
		c-0.3-0.8-0.6-1.7-0.9-2.5c-0.8-0.3-1.6-0.6-2.4-1c0.8-0.3,1.6-0.7,2.4-1C2140.4,876.8,2140.7,876,2141,875.1z"/>
	<path class="st29" d="M1864.7,755.2c0.3,0.8,0.6,1.6,0.9,2.5c0.8,0.3,1.6,0.7,2.4,1c-0.8,0.3-1.6,0.7-2.4,1
		c-0.3,0.8-0.6,1.7-0.9,2.5c-0.3-0.8-0.6-1.7-0.9-2.5c-0.8-0.3-1.6-0.6-2.4-1c0.8-0.3,1.6-0.7,2.4-1
		C1864.1,756.8,1864.4,756,1864.7,755.2z"/>
	<path class="st28" d="M2052.3,491.9c0.3,0.8,0.6,1.6,0.9,2.5c0.8,0.3,1.6,0.7,2.4,1c-0.8,0.3-1.6,0.7-2.4,1
		c-0.3,0.8-0.6,1.7-0.9,2.5c-0.3-0.8-0.6-1.7-0.9-2.5c-0.8-0.3-1.6-0.6-2.4-1c0.8-0.3,1.6-0.7,2.4-1
		C2051.7,493.5,2052,492.7,2052.3,491.9z"/>
	<path class="st29" d="M1209.9,437.7c0.3,0.8,0.6,1.6,0.9,2.5c0.8,0.3,1.6,0.7,2.4,1c-0.8,0.3-1.6,0.7-2.4,1
		c-0.3,0.8-0.6,1.7-0.9,2.5c-0.3-0.8-0.6-1.7-0.9-2.5c-0.8-0.3-1.6-0.6-2.4-1c0.8-0.3,1.6-0.7,2.4-1
		C1209.3,439.4,1209.6,438.6,1209.9,437.7z"/>
	<path class="st29" d="M1836.4,358c0.3,0.8,0.6,1.6,0.9,2.5c0.8,0.3,1.6,0.7,2.4,1c-0.8,0.3-1.6,0.7-2.4,1c-0.3,0.8-0.6,1.7-0.9,2.5
		c-0.3-0.8-0.6-1.7-0.9-2.5c-0.8-0.3-1.6-0.6-2.4-1c0.8-0.3,1.6-0.7,2.4-1C1835.8,359.7,1836.1,358.9,1836.4,358z"/>
	<path class="st28" d="M1252.4,60.1c0.3,0.8,0.6,1.6,0.9,2.5c0.8,0.3,1.6,0.7,2.4,1c-0.8,0.3-1.6,0.7-2.4,1
		c-0.3,0.8-0.6,1.7-0.9,2.5c-0.3-0.8-0.6-1.7-0.9-2.5c-0.8-0.3-1.6-0.6-2.4-1c0.8-0.3,1.6-0.7,2.4-1
		C1251.8,61.7,1252.1,60.9,1252.4,60.1z"/>
	<path class="st29" d="M566.5,688.5c0.3,0.8,0.6,1.6,0.9,2.5c0.8,0.3,1.6,0.7,2.4,1c-0.8,0.3-1.6,0.7-2.4,1
		c-0.3,0.8-0.6,1.7-0.9,2.5c-0.3-0.8-0.6-1.7-0.9-2.5c-0.8-0.3-1.6-0.6-2.4-1c0.8-0.3,1.6-0.7,2.4-1
		C565.9,690.2,566.2,689.4,566.5,688.5z"/>
	<path class="st28" d="M534,603.8c0.3,0.8,0.6,1.6,0.9,2.5c0.8,0.3,1.6,0.7,2.4,1c-0.8,0.3-1.6,0.7-2.4,1c-0.3,0.8-0.6,1.7-0.9,2.5
		c-0.3-0.8-0.6-1.7-0.9-2.5c-0.8-0.3-1.6-0.6-2.4-1c0.8-0.3,1.6-0.7,2.4-1C533.4,605.4,533.7,604.6,534,603.8z"/>
	<path class="st28" d="M57.3,536.5c0.3,0.8,0.6,1.6,0.9,2.5c0.8,0.3,1.6,0.7,2.4,1c-0.8,0.3-1.6,0.7-2.4,1c-0.3,0.8-0.6,1.7-0.9,2.5
		c-0.3-0.8-0.6-1.7-0.9-2.5c-0.8-0.3-1.6-0.6-2.4-1c0.8-0.3,1.6-0.7,2.4-1C56.7,538.1,57,537.3,57.3,536.5z"/>
	<path class="st28" d="M-127,241.6c0.3,0.8,0.6,1.6,0.9,2.5c0.8,0.3,1.6,0.7,2.4,1c-0.8,0.3-1.6,0.7-2.4,1c-0.3,0.8-0.6,1.7-0.9,2.5
		c-0.3-0.8-0.6-1.7-0.9-2.5c-0.8-0.3-1.6-0.6-2.4-1c0.8-0.3,1.6-0.7,2.4-1C-127.6,243.2-127.3,242.4-127,241.6z"/>
	<path class="st29" d="M232.3,286.3c0.3,0.8,0.6,1.6,0.9,2.5c0.8,0.3,1.6,0.7,2.4,1c-0.8,0.3-1.6,0.7-2.4,1
		c-0.3,0.8-0.6,1.7-0.9,2.5c-0.3-0.8-0.6-1.7-0.9-2.5c-0.8-0.3-1.6-0.6-2.4-1c0.8-0.3,1.6-0.7,2.4-1
		C231.7,287.9,232,287.1,232.3,286.3z"/>
	<path class="st29" d="M469.3,381.8c0.3,0.8,0.6,1.6,0.9,2.5c0.8,0.3,1.6,0.7,2.4,1c-0.8,0.3-1.6,0.7-2.4,1
		c-0.3,0.8-0.6,1.7-0.9,2.5c-0.3-0.8-0.6-1.7-0.9-2.5c-0.8-0.3-1.6-0.6-2.4-1c0.8-0.3,1.6-0.7,2.4-1
		C468.7,383.5,469,382.7,469.3,381.8z"/>
	<path class="st28" d="M663.7,320.6c0.3,0.8,0.6,1.6,0.9,2.5c0.8,0.3,1.6,0.7,2.4,1c-0.8,0.3-1.6,0.7-2.4,1
		c-0.3,0.8-0.6,1.7-0.9,2.5c-0.3-0.8-0.6-1.7-0.9-2.5c-0.8-0.3-1.6-0.6-2.4-1c0.8-0.3,1.6-0.7,2.4-1
		C663.1,322.3,663.4,321.4,663.7,320.6z"/>
</g>
</svg>
