<?xml version="1.0" encoding="utf-8"?>
<!-- Generator: Adobe Illustrator 25.0.0, SVG Export Plug-In . SVG Version: 6.00 Build 0)  -->
<svg version="1.1" id="Слой_1" xmlns="http://www.w3.org/2000/svg" xmlns:xlink="http://www.w3.org/1999/xlink" x="0px" y="0px"
	 viewBox="0 0 1920 2160" style="enable-background:new 0 0 1920 2160;" xml:space="preserve">
<style type="text/css">
	.st0{opacity:0.83;fill:#E9E2CE;}
	.st1{opacity:0.53;fill:#E9E2CE;}
	.st2{fill:#E9E2CE;}
</style>
<g>
	<path class="st0" d="M-13.4,178.4c0.3,0.8,0.6,1.6,0.9,2.5c0.8,0.3,1.6,0.7,2.4,1c-0.8,0.3-1.6,0.7-2.4,1c-0.3,0.8-0.6,1.7-0.9,2.5
		c-0.3-0.8-0.6-1.7-0.9-2.5c-0.8-0.3-1.6-0.6-2.4-1c0.8-0.3,1.6-0.7,2.4-1C-14,180-13.7,179.2-13.4,178.4z"/>
	<path class="st1" d="M29.1-107.3c0.3,0.8,0.6,1.6,0.9,2.5c0.8,0.3,1.6,0.7,2.4,1c-0.8,0.3-1.6,0.7-2.4,1c-0.3,0.8-0.6,1.7-0.9,2.5
		c-0.3-0.8-0.6-1.7-0.9-2.5c-0.8-0.3-1.6-0.6-2.4-1c0.8-0.3,1.6-0.7,2.4-1C28.5-105.7,28.8-106.5,29.1-107.3z"/>
	<path class="st2" d="M-154.3,27.6c0.3,0.8,0.6,1.6,0.9,2.5c0.8,0.3,1.6,0.7,2.4,1c-0.8,0.3-1.6,0.7-2.4,1c-0.3,0.8-0.6,1.7-0.9,2.5
		c-0.3-0.8-0.6-1.7-0.9-2.5c-0.8-0.3-1.6-0.6-2.4-1c0.8-0.3,1.6-0.7,2.4-1C-154.9,29.2-154.6,28.4-154.3,27.6z"/>
	<path class="st0" d="M-56.5,20.6c0.3,0.8,0.6,1.6,0.9,2.5c0.8,0.3,1.6,0.7,2.4,1c-0.8,0.3-1.6,0.7-2.4,1c-0.3,0.8-0.6,1.7-0.9,2.5
		c-0.3-0.8-0.6-1.7-0.9-2.5c-0.8-0.3-1.6-0.6-2.4-1c0.8-0.3,1.6-0.7,2.4-1C-57.1,22.3-56.8,21.4-56.5,20.6z"/>
	<path class="st0" d="M641.4,428.3c0.3,0.8,0.6,1.6,0.9,2.5c0.8,0.3,1.6,0.7,2.4,1c-0.8,0.3-1.6,0.7-2.4,1c-0.3,0.8-0.6,1.7-0.9,2.5
		c-0.3-0.8-0.6-1.7-0.9-2.5c-0.8-0.3-1.6-0.6-2.4-1c0.8-0.3,1.6-0.7,2.4-1C640.8,429.9,641.1,429.1,641.4,428.3z"/>
	<path class="st1" d="M126.1,89.5c0.3,0.8,0.6,1.6,0.9,2.5c0.8,0.3,1.6,0.7,2.4,1c-0.8,0.3-1.6,0.7-2.4,1c-0.3,0.8-0.6,1.7-0.9,2.5
		c-0.3-0.8-0.6-1.7-0.9-2.5c-0.8-0.3-1.6-0.6-2.4-1c0.8-0.3,1.6-0.7,2.4-1C125.5,91.2,125.8,90.4,126.1,89.5z"/>
	<path class="st0" d="M-10.1,361.5c0.3,0.8,0.6,1.6,0.9,2.5c0.8,0.3,1.6,0.7,2.4,1c-0.8,0.3-1.6,0.7-2.4,1c-0.3,0.8-0.6,1.7-0.9,2.5
		c-0.3-0.8-0.6-1.7-0.9-2.5c-0.8-0.3-1.6-0.6-2.4-1c0.8-0.3,1.6-0.7,2.4-1C-10.7,363.2-10.4,362.3-10.1,361.5z"/>
	<path class="st1" d="M155.8,437.7c0.3,0.8,0.6,1.6,0.9,2.5c0.8,0.3,1.6,0.7,2.4,1c-0.8,0.3-1.6,0.7-2.4,1c-0.3,0.8-0.6,1.7-0.9,2.5
		c-0.3-0.8-0.6-1.7-0.9-2.5c-0.8-0.3-1.6-0.6-2.4-1c0.8-0.3,1.6-0.7,2.4-1C155.2,439.4,155.5,438.6,155.8,437.7z"/>
	<path class="st0" d="M978.9,361.5c0.3,0.8,0.6,1.6,0.9,2.5c0.8,0.3,1.6,0.7,2.4,1c-0.8,0.3-1.6,0.7-2.4,1c-0.3,0.8-0.6,1.7-0.9,2.5
		c-0.3-0.8-0.6-1.7-0.9-2.5c-0.8-0.3-1.6-0.6-2.4-1c0.8-0.3,1.6-0.7,2.4-1C978.3,363.2,978.6,362.3,978.9,361.5z"/>
	<path class="st1" d="M996,238.1c0.3,0.8,0.6,1.6,0.9,2.5c0.8,0.3,1.6,0.7,2.4,1c-0.8,0.3-1.6,0.7-2.4,1c-0.3,0.8-0.6,1.7-0.9,2.5
		c-0.3-0.8-0.6-1.7-0.9-2.5c-0.8-0.3-1.6-0.6-2.4-1c0.8-0.3,1.6-0.7,2.4-1C995.4,239.8,995.7,238.9,996,238.1z"/>
	<path class="st1" d="M1995.3,667.4c0.3,0.8,0.6,1.6,0.9,2.5c0.8,0.3,1.6,0.7,2.4,1c-0.8,0.3-1.6,0.7-2.4,1
		c-0.3,0.8-0.6,1.7-0.9,2.5c-0.3-0.8-0.6-1.7-0.9-2.5c-0.8-0.3-1.6-0.6-2.4-1c0.8-0.3,1.6-0.7,2.4-1
		C1994.7,669,1995,668.2,1995.3,667.4z"/>
	<path class="st1" d="M859.5,572.4c0.3,0.8,0.6,1.6,0.9,2.5c0.8,0.3,1.6,0.7,2.4,1c-0.8,0.3-1.6,0.7-2.4,1c-0.3,0.8-0.6,1.7-0.9,2.5
		c-0.3-0.8-0.6-1.7-0.9-2.5c-0.8-0.3-1.6-0.6-2.4-1c0.8-0.3,1.6-0.7,2.4-1C858.9,574.1,859.2,573.2,859.5,572.4z"/>
	<path class="st0" d="M2141,875.1c0.3,0.8,0.6,1.6,0.9,2.5c0.8,0.3,1.6,0.7,2.4,1c-0.8,0.3-1.6,0.7-2.4,1c-0.3,0.8-0.6,1.7-0.9,2.5
		c-0.3-0.8-0.6-1.7-0.9-2.5c-0.8-0.3-1.6-0.6-2.4-1c0.8-0.3,1.6-0.7,2.4-1C2140.4,876.8,2140.7,876,2141,875.1z"/>
	<path class="st0" d="M1864.7,755.2c0.3,0.8,0.6,1.6,0.9,2.5c0.8,0.3,1.6,0.7,2.4,1c-0.8,0.3-1.6,0.7-2.4,1
		c-0.3,0.8-0.6,1.7-0.9,2.5c-0.3-0.8-0.6-1.7-0.9-2.5c-0.8-0.3-1.6-0.6-2.4-1c0.8-0.3,1.6-0.7,2.4-1
		C1864.1,756.8,1864.4,756,1864.7,755.2z"/>
	<path class="st1" d="M2052.3,491.9c0.3,0.8,0.6,1.6,0.9,2.5c0.8,0.3,1.6,0.7,2.4,1c-0.8,0.3-1.6,0.7-2.4,1
		c-0.3,0.8-0.6,1.7-0.9,2.5c-0.3-0.8-0.6-1.7-0.9-2.5c-0.8-0.3-1.6-0.6-2.4-1c0.8-0.3,1.6-0.7,2.4-1
		C2051.7,493.5,2052,492.7,2052.3,491.9z"/>
	<path class="st0" d="M1209.9,437.7c0.3,0.8,0.6,1.6,0.9,2.5c0.8,0.3,1.6,0.7,2.4,1c-0.8,0.3-1.6,0.7-2.4,1
		c-0.3,0.8-0.6,1.7-0.9,2.5c-0.3-0.8-0.6-1.7-0.9-2.5c-0.8-0.3-1.6-0.6-2.4-1c0.8-0.3,1.6-0.7,2.4-1
		C1209.3,439.4,1209.6,438.6,1209.9,437.7z"/>
	<path class="st0" d="M1836.4,358c0.3,0.8,0.6,1.6,0.9,2.5c0.8,0.3,1.6,0.7,2.4,1c-0.8,0.3-1.6,0.7-2.4,1c-0.3,0.8-0.6,1.7-0.9,2.5
		c-0.3-0.8-0.6-1.7-0.9-2.5c-0.8-0.3-1.6-0.6-2.4-1c0.8-0.3,1.6-0.7,2.4-1C1835.8,359.7,1836.1,358.9,1836.4,358z"/>
	<path class="st1" d="M1252.4,60.1c0.3,0.8,0.6,1.6,0.9,2.5c0.8,0.3,1.6,0.7,2.4,1c-0.8,0.3-1.6,0.7-2.4,1c-0.3,0.8-0.6,1.7-0.9,2.5
		c-0.3-0.8-0.6-1.7-0.9-2.5c-0.8-0.3-1.6-0.6-2.4-1c0.8-0.3,1.6-0.7,2.4-1C1251.8,61.7,1252.1,60.9,1252.4,60.1z"/>
	<path class="st0" d="M566.5,688.5c0.3,0.8,0.6,1.6,0.9,2.5c0.8,0.3,1.6,0.7,2.4,1c-0.8,0.3-1.6,0.7-2.4,1c-0.3,0.8-0.6,1.7-0.9,2.5
		c-0.3-0.8-0.6-1.7-0.9-2.5c-0.8-0.3-1.6-0.6-2.4-1c0.8-0.3,1.6-0.7,2.4-1C565.9,690.2,566.2,689.4,566.5,688.5z"/>
	<path class="st1" d="M534,603.8c0.3,0.8,0.6,1.6,0.9,2.5c0.8,0.3,1.6,0.7,2.4,1c-0.8,0.3-1.6,0.7-2.4,1c-0.3,0.8-0.6,1.7-0.9,2.5
		c-0.3-0.8-0.6-1.7-0.9-2.5c-0.8-0.3-1.6-0.6-2.4-1c0.8-0.3,1.6-0.7,2.4-1C533.4,605.4,533.7,604.6,534,603.8z"/>
	<path class="st1" d="M57.3,536.5c0.3,0.8,0.6,1.6,0.9,2.5c0.8,0.3,1.6,0.7,2.4,1c-0.8,0.3-1.6,0.7-2.4,1c-0.3,0.8-0.6,1.7-0.9,2.5
		c-0.3-0.8-0.6-1.7-0.9-2.5c-0.8-0.3-1.6-0.6-2.4-1c0.8-0.3,1.6-0.7,2.4-1C56.7,538.1,57,537.3,57.3,536.5z"/>
	<path class="st1" d="M-127,241.6c0.3,0.8,0.6,1.6,0.9,2.5c0.8,0.3,1.6,0.7,2.4,1c-0.8,0.3-1.6,0.7-2.4,1c-0.3,0.8-0.6,1.7-0.9,2.5
		c-0.3-0.8-0.6-1.7-0.9-2.5c-0.8-0.3-1.6-0.6-2.4-1c0.8-0.3,1.6-0.7,2.4-1C-127.6,243.2-127.3,242.4-127,241.6z"/>
	<path class="st0" d="M232.3,286.3c0.3,0.8,0.6,1.6,0.9,2.5c0.8,0.3,1.6,0.7,2.4,1c-0.8,0.3-1.6,0.7-2.4,1c-0.3,0.8-0.6,1.7-0.9,2.5
		c-0.3-0.8-0.6-1.7-0.9-2.5c-0.8-0.3-1.6-0.6-2.4-1c0.8-0.3,1.6-0.7,2.4-1C231.7,287.9,232,287.1,232.3,286.3z"/>
	<path class="st0" d="M469.3,381.8c0.3,0.8,0.6,1.6,0.9,2.5c0.8,0.3,1.6,0.7,2.4,1c-0.8,0.3-1.6,0.7-2.4,1c-0.3,0.8-0.6,1.7-0.9,2.5
		c-0.3-0.8-0.6-1.7-0.9-2.5c-0.8-0.3-1.6-0.6-2.4-1c0.8-0.3,1.6-0.7,2.4-1C468.7,383.5,469,382.7,469.3,381.8z"/>
	<path class="st1" d="M663.7,320.6c0.3,0.8,0.6,1.6,0.9,2.5c0.8,0.3,1.6,0.7,2.4,1c-0.8,0.3-1.6,0.7-2.4,1c-0.3,0.8-0.6,1.7-0.9,2.5
		c-0.3-0.8-0.6-1.7-0.9-2.5c-0.8-0.3-1.6-0.6-2.4-1c0.8-0.3,1.6-0.7,2.4-1C663.1,322.3,663.4,321.4,663.7,320.6z"/>
</g>
</svg>
